<svg width="290" height="212" viewBox="0 0 290 212" fill="none" xmlns="http://www.w3.org/2000/svg">
<path d="M205.779 89.093C202.615 89.4184 199.597 90.5855 197.039 92.473C196.343 93.0859 195.553 93.5823 194.698 93.943C193.758 94.253 192.699 94.183 191.869 94.743C191.706 94.8317 191.572 94.9638 191.48 95.1244C191.388 95.2851 191.343 95.4681 191.349 95.653C191.416 95.9198 191.546 96.1667 191.729 96.373C192.131 97.0902 192.249 97.9328 192.059 98.733C191.919 99.533 191.619 100.293 191.409 101.083C191.03 102.572 191.031 104.133 191.412 105.621C191.792 107.11 192.54 108.48 193.587 109.605C194.633 110.73 195.945 111.575 197.402 112.062C198.86 112.549 200.416 112.663 201.929 112.393C202.111 117.635 201.515 122.876 200.159 127.943C201.901 128.033 203.646 128.033 205.388 127.943C205.573 127.961 205.76 127.937 205.933 127.871C206.107 127.805 206.263 127.699 206.388 127.563C206.492 127.32 206.52 127.052 206.469 126.793C206.329 124.403 207.408 122.113 207.688 119.733C207.818 118.733 207.789 117.633 207.899 116.593C208.093 115.144 208.428 113.717 208.899 112.333C208.968 111.894 209.131 111.475 209.376 111.105C209.621 110.734 209.942 110.42 210.318 110.183C211.428 109.703 212.649 110.623 213.859 110.613C215.026 110.447 216.08 109.825 216.789 108.883C217.7 108.131 218.288 107.057 218.429 105.883C218.369 104.965 217.952 104.108 217.269 103.493C216.215 102.436 214.825 101.781 213.339 101.643C212.665 101.643 211.993 101.562 211.339 101.403C210.78 101.134 210.282 100.755 209.873 100.29C209.464 99.8243 209.153 99.2812 208.959 98.693C208.369 97.3836 207.907 96.0207 207.579 94.623C207.25 92.7021 206.644 90.8393 205.779 89.093Z" fill="white"/>
<path d="M244.469 175.953C246.481 184.644 247.735 193.494 248.219 202.403C250.889 200.953 253.929 200.133 256.679 198.843C259.481 197.657 262.023 195.931 264.159 193.763C265.221 192.676 266.045 191.378 266.577 189.954C267.11 188.53 267.338 187.01 267.249 185.493C266.882 181.143 265.705 176.9 263.779 172.983C261.693 169.162 259.327 165.502 256.698 162.033C256.438 161.663 256.178 161.303 255.898 160.943C251.948 165.623 248.039 171.003 244.469 175.953Z" fill="white"/>
<path d="M178.198 160.293C178.198 160.293 169.668 163.573 169.148 163.723C168.628 163.873 169.568 171.423 174.318 171.973C179.068 172.523 178.728 166.253 178.578 164.863C178.428 163.473 178.308 159.503 178.198 160.293Z" fill="#3B3B3B"/>
<path d="M167.518 138.443C167.518 138.443 166.888 131.553 170.648 131.013C174.408 130.473 174.578 135.663 174.578 135.663V136.593L167.518 138.443Z" fill="#3B3B3B"/>
<path d="M187.388 210.793C187.388 210.793 233.968 213.293 248.188 209.523C248.188 209.523 247.888 185.443 244.188 174.853L213.188 129.453L205.409 127.913C205.409 127.913 178.349 129.163 172.099 130.693C173.537 131.952 174.432 133.719 174.599 135.623C174.949 138.913 177.509 152.023 178.049 158.423C178.049 158.423 179.499 169.003 176.909 171.843L180.989 170.843C180.989 170.843 180.429 175.333 183.719 181.593C187.009 187.853 189.098 198.663 187.388 210.793Z" fill="#AEC9FF"/>
<path d="M148.596 39.5022L92.0071 59.9202L112.88 117.77L169.469 97.3518L148.596 39.5022Z" fill="#FFCB2F"/>
<path d="M198.288 99.5526C197.888 100.013 196.938 99.8226 196.158 99.1326C195.378 98.4426 195.078 97.5326 195.478 97.0726C195.878 96.6126 196.838 96.8126 197.608 97.4926C198.378 98.1726 198.688 99.1026 198.288 99.5526Z" fill="#005BF3"/>
<path d="M63.8485 147.983C62.7772 147.983 61.7319 147.653 60.8551 147.037C59.9782 146.422 59.3125 145.551 58.9485 144.543L30.0785 64.543C29.846 63.9009 29.7423 63.2192 29.7733 62.537C29.8043 61.8547 29.9693 61.1852 30.259 60.5668C30.5487 59.9483 30.9575 59.393 31.4618 58.9325C31.9662 58.472 32.5563 58.1154 33.1985 57.883L147.299 16.703C148.592 16.232 150.019 16.2927 151.267 16.8719C152.515 17.4511 153.483 18.5015 153.959 19.793L182.739 99.523C183.227 100.889 183.154 102.393 182.535 103.705C181.917 105.017 180.803 106.031 179.439 106.523L65.6086 147.673C65.0445 147.878 64.4488 147.983 63.8485 147.983ZM149.069 18.073C148.663 18.0737 148.26 18.1448 147.879 18.283L33.7785 59.463C33.3429 59.6195 32.9424 59.8604 32.6 60.1719C32.2576 60.4834 31.98 60.8594 31.7831 61.2783C31.5861 61.6972 31.4738 62.1509 31.4524 62.6133C31.4311 63.0757 31.5011 63.5377 31.6585 63.973L60.5285 143.973C60.685 144.409 60.9259 144.809 61.2374 145.152C61.5489 145.494 61.9249 145.772 62.3438 145.969C62.7627 146.165 63.2163 146.278 63.6787 146.299C64.1412 146.321 64.6033 146.251 65.0386 146.093L178.869 105.013C179.34 104.844 179.774 104.584 180.145 104.247C180.515 103.91 180.816 103.503 181.029 103.049C181.242 102.596 181.363 102.105 181.385 101.604C181.407 101.104 181.33 100.604 181.159 100.133L152.379 20.403C152.134 19.7213 151.684 19.1317 151.092 18.7147C150.5 18.2977 149.793 18.0736 149.069 18.073Z" fill="#3B3B3B"/>
<path d="M33.2984 70.2229L155.358 26.1729L152.978 19.5729C152.978 19.5729 151.088 16.2529 147.098 18.2529L33.3884 59.2529C32.426 59.6582 31.6604 60.4238 31.2549 61.3861C30.8494 62.3484 30.8363 63.4311 31.2184 64.4029L33.2984 70.2229Z" fill="#3B3B3B"/>
<path d="M43.6586 60.653C43.7563 60.9268 43.7706 61.2234 43.6997 61.5053C43.6289 61.7872 43.4761 62.0418 43.2606 62.2368C43.0451 62.4319 42.7766 62.5587 42.489 62.6012C42.2015 62.6437 41.9078 62.6 41.6451 62.4756C41.3824 62.3513 41.1624 62.1518 41.013 61.9024C40.8636 61.6531 40.7916 61.3651 40.8059 61.0747C40.8201 60.7844 40.9202 60.5049 41.0933 60.2714C41.2665 60.0379 41.5049 59.861 41.7786 59.763C41.9604 59.6979 42.1534 59.6693 42.3463 59.6788C42.5393 59.6883 42.7284 59.7357 42.903 59.8184C43.0776 59.901 43.2343 60.0173 43.3639 60.1605C43.4935 60.3037 43.5937 60.4711 43.6586 60.653Z" fill="white"/>
<path d="M39.3485 62.2027C39.4462 62.4765 39.4605 62.7731 39.3897 63.055C39.3188 63.3369 39.166 63.5915 38.9505 63.7865C38.735 63.9816 38.4665 64.1084 38.179 64.1509C37.8914 64.1934 37.5977 64.1497 37.335 64.0253C37.0723 63.901 36.8523 63.7015 36.703 63.4521C36.5536 63.2028 36.4815 62.9148 36.4958 62.6245C36.5101 62.3341 36.6101 62.0546 36.7832 61.8211C36.9564 61.5876 37.1949 61.4107 37.4685 61.3127C37.6503 61.2462 37.8435 61.2166 38.0368 61.2254C38.2302 61.2343 38.4199 61.2815 38.5948 61.3643C38.7697 61.4471 38.9265 61.5639 39.0559 61.7078C39.1853 61.8518 39.2847 62.02 39.3485 62.2027Z" fill="white"/>
<path d="M47.9585 59.0926C48.058 59.366 48.0742 59.6627 48.005 59.9453C47.9357 60.2279 47.7842 60.4835 47.5695 60.6799C47.3549 60.8763 47.0869 61.0046 46.7993 61.0486C46.5117 61.0925 46.2175 61.0501 45.954 60.9268C45.6905 60.8035 45.4696 60.6047 45.3191 60.3557C45.1686 60.1067 45.0954 59.8187 45.1087 59.5281C45.1221 59.2374 45.2214 58.9573 45.394 58.7231C45.5666 58.489 45.8048 58.3113 46.0785 58.2126C46.4447 58.0833 46.847 58.1031 47.1987 58.2678C47.5504 58.4324 47.8232 58.7286 47.9585 59.0926Z" fill="white"/>
<path d="M68.2184 134.283L47.0585 75.643L84.6484 62.073L105.808 120.713L68.2184 134.283ZM48.1284 76.143L68.7184 133.203L104.718 120.203L84.1284 63.203L48.1284 76.143Z" fill="#3B3B3B"/>
<path d="M112.619 118.253L91.4685 59.6128L148.849 38.9128L170.008 97.5428L112.619 118.253ZM92.5385 60.1228L113.128 117.183L168.919 97.0428L148.328 39.9828L92.5385 60.1228Z" fill="#3B3B3B"/>
<path d="M55.9786 81.723C55.8911 81.7238 55.8054 81.6973 55.7337 81.6471C55.662 81.5969 55.6077 81.5255 55.5786 81.443C55.5426 81.3381 55.5485 81.2234 55.5951 81.1227C55.6417 81.0221 55.7253 80.9434 55.8286 80.903L72.5486 74.903C72.6005 74.8839 72.6556 74.8753 72.7108 74.8775C72.766 74.8798 72.8202 74.8929 72.8704 74.9161C72.9205 74.9394 72.9656 74.9722 73.003 75.0128C73.0404 75.0535 73.0695 75.1011 73.0886 75.153C73.1076 75.2048 73.1163 75.26 73.114 75.3152C73.1118 75.3704 73.0986 75.4246 73.0754 75.4747C73.0522 75.5249 73.0194 75.57 72.9787 75.6074C72.9381 75.6449 72.8904 75.6739 72.8386 75.693L56.1186 81.693L55.9786 81.723Z" fill="#3B3B3B"/>
<path d="M57.4685 85.9826C57.3673 85.9856 57.2683 85.952 57.19 85.8878C57.1116 85.8236 57.0591 85.7333 57.042 85.6335C57.025 85.5336 57.0445 85.431 57.0972 85.3445C57.1498 85.2579 57.232 85.1933 57.3285 85.1626L83.3285 75.7726C83.4333 75.7341 83.549 75.7389 83.6503 75.7858C83.7516 75.8326 83.8301 75.9178 83.8685 76.0226C83.907 76.1274 83.9022 76.2431 83.8554 76.3444C83.8085 76.4456 83.7233 76.5241 83.6185 76.5626L57.6185 85.9526C57.5709 85.9722 57.52 85.9823 57.4685 85.9826Z" fill="#3B3B3B"/>
<path d="M62.6285 100.143C62.5418 100.146 62.4564 100.121 62.3846 100.073C62.3127 100.024 62.258 99.9543 62.2285 99.8728C62.1925 99.7679 62.1984 99.6532 62.245 99.5526C62.2916 99.452 62.3752 99.3732 62.4785 99.3328L88.4785 89.9328C88.531 89.9139 88.5867 89.9056 88.6424 89.9085C88.6982 89.9114 88.7527 89.9253 88.803 89.9495C88.8533 89.9737 88.8982 90.0077 88.9352 90.0495C88.9722 90.0913 89.0005 90.14 89.0185 90.1928C89.0375 90.244 89.0461 90.2984 89.0437 90.353C89.0414 90.4075 89.0282 90.461 89.0049 90.5104C88.9816 90.5597 88.9487 90.604 88.9081 90.6404C88.8675 90.6769 88.82 90.7049 88.7685 90.7228L62.7685 100.123C62.7236 100.139 62.676 100.145 62.6285 100.143Z" fill="#3B3B3B"/>
<path d="M64.1285 104.303C64.0421 104.304 63.9574 104.279 63.8858 104.231C63.8143 104.183 63.7593 104.113 63.7285 104.033C63.6925 103.928 63.6984 103.813 63.745 103.712C63.7916 103.612 63.8752 103.533 63.9785 103.493L89.9785 94.0927C90.0846 94.0573 90.2004 94.0646 90.3012 94.1131C90.4021 94.1617 90.48 94.2476 90.5185 94.3527C90.5389 94.4037 90.5487 94.4585 90.547 94.5134C90.5454 94.5684 90.5324 94.6224 90.509 94.6722C90.4855 94.7219 90.4521 94.7663 90.4107 94.8025C90.3693 94.8387 90.3209 94.866 90.2685 94.8827L64.2685 104.283C64.2237 104.299 64.176 104.306 64.1285 104.303Z" fill="#3B3B3B"/>
<path d="M65.6285 108.463C65.5425 108.463 65.4585 108.437 65.3872 108.389C65.3158 108.341 65.2606 108.273 65.2286 108.193C65.2097 108.14 65.2014 108.085 65.2043 108.029C65.2072 107.973 65.2211 107.919 65.2453 107.868C65.2695 107.818 65.3035 107.773 65.3453 107.736C65.3871 107.699 65.4358 107.671 65.4886 107.653L91.4886 98.2529C91.5934 98.2204 91.7067 98.2292 91.8052 98.2776C91.9038 98.3259 91.9801 98.4101 92.0186 98.5129C92.039 98.564 92.0488 98.6187 92.0471 98.6736C92.0455 98.7286 92.0325 98.7826 92.009 98.8324C91.9856 98.8821 91.9522 98.9265 91.9108 98.9627C91.8694 98.9989 91.821 99.0262 91.7686 99.0429L65.7686 108.443C65.7238 108.459 65.6761 108.466 65.6285 108.463Z" fill="#3B3B3B"/>
<path d="M68.2385 115.693C68.1524 115.693 68.0683 115.667 67.997 115.619C67.9257 115.571 67.8705 115.503 67.8384 115.423C67.8195 115.37 67.8113 115.314 67.8142 115.259C67.817 115.203 67.831 115.148 67.8552 115.098C67.8794 115.048 67.9134 115.003 67.9551 114.966C67.9969 114.929 68.0456 114.901 68.0985 114.883L94.0985 105.493C94.1496 105.474 94.2041 105.465 94.2586 105.467C94.3131 105.47 94.3667 105.483 94.416 105.506C94.4654 105.53 94.5096 105.562 94.5461 105.603C94.5826 105.644 94.6105 105.691 94.6284 105.743C94.6476 105.795 94.6563 105.85 94.6541 105.905C94.6519 105.96 94.6388 106.014 94.6156 106.065C94.5924 106.115 94.5594 106.16 94.5187 106.197C94.4781 106.235 94.4304 106.264 94.3784 106.283L68.3784 115.673C68.3337 115.689 68.286 115.696 68.2385 115.693Z" fill="#3B3B3B"/>
<path d="M69.7384 119.853C69.6421 119.849 69.5499 119.813 69.4773 119.749C69.4047 119.686 69.3562 119.599 69.3398 119.505C69.3233 119.41 69.3401 119.312 69.3872 119.228C69.4343 119.144 69.5089 119.078 69.5984 119.043L95.5984 109.653C95.6503 109.634 95.7054 109.625 95.7607 109.627C95.8159 109.629 95.8702 109.642 95.9203 109.666C95.9705 109.689 96.0156 109.722 96.053 109.762C96.0904 109.803 96.1194 109.851 96.1384 109.903C96.1739 110.009 96.1666 110.125 96.118 110.225C96.0695 110.326 95.9835 110.404 95.8784 110.443L69.8784 119.833C69.8336 119.849 69.786 119.856 69.7384 119.853Z" fill="#3B3B3B"/>
<path d="M71.2386 124.023C71.1373 124.026 71.0384 123.992 70.96 123.928C70.8816 123.864 70.8291 123.774 70.812 123.674C70.795 123.574 70.8146 123.471 70.8673 123.385C70.9199 123.298 71.0021 123.234 71.0986 123.203L97.0986 113.813C97.1504 113.794 97.2056 113.785 97.2608 113.787C97.3161 113.789 97.3703 113.803 97.4205 113.826C97.4706 113.849 97.5157 113.882 97.5532 113.923C97.5906 113.963 97.6196 114.011 97.6386 114.063C97.6575 114.115 97.6657 114.171 97.6628 114.227C97.66 114.283 97.646 114.337 97.6218 114.387C97.5976 114.438 97.5637 114.483 97.5219 114.52C97.4802 114.557 97.4314 114.585 97.3785 114.603L71.3785 123.993C71.3347 124.013 71.2869 124.024 71.2386 124.023Z" fill="#3B3B3B"/>
<path d="M141.639 50.4468L105.386 63.5271L108.03 70.8547L144.282 57.7744L141.639 50.4468Z" fill="#3B3B3B"/>
<path d="M175.178 136.793C175.238 137.633 175.298 138.483 175.368 139.323C175.483 141.482 175.723 143.632 176.088 145.763C176.398 147.343 176.838 148.903 177.018 150.503C177.128 151.503 177.138 152.593 177.188 153.633C177.389 155.983 177.722 158.32 178.188 160.633C168.351 164.461 158.041 166.94 147.538 168.003C142.413 168.573 137.227 168.234 132.218 167.003C130.822 166.653 129.477 166.122 128.218 165.423C127.041 164.804 126 163.953 125.158 162.923C124.123 161.499 123.529 159.802 123.448 158.043C123.372 156.29 123.506 154.534 123.848 152.813C124.82 146.858 126.603 141.064 129.148 135.593C133.248 126.983 138.148 118.663 140.478 109.423C140.738 108.363 141.008 107.293 141.278 106.233C141.603 105.102 141.824 103.944 141.938 102.773C142.093 100.625 141.565 98.4826 140.428 96.653C139.118 94.553 137.188 92.893 136.588 90.483C136.386 90.7598 136.099 90.9631 135.77 91.0623C135.442 91.1616 135.09 91.1513 134.768 91.033C134.452 90.9047 134.167 90.711 133.93 90.4645C133.694 90.2181 133.513 89.9244 133.398 89.603C133.175 88.9609 133.077 88.282 133.108 87.603C133.051 86.1776 133.462 84.7727 134.278 83.603C134.719 83.0273 135.336 82.6125 136.036 82.4227C136.735 82.233 137.478 82.2787 138.148 82.5529C138.121 82.0367 138.196 81.5202 138.368 81.033C138.522 80.5444 138.835 80.1216 139.258 79.8329C139.918 79.5405 140.655 79.4703 141.358 79.633C141.647 79.1122 142.048 78.6625 142.532 78.3165C143.017 77.9705 143.572 77.737 144.158 77.633C144.491 77.5611 144.837 77.5819 145.158 77.6929C145.608 77.8729 145.938 78.3029 146.398 78.1629C145.036 75.8252 143.99 73.3165 143.288 70.703C143.035 69.9367 142.943 69.1264 143.018 68.323C143.06 67.9215 143.208 67.5385 143.447 67.2133C143.686 66.8881 144.008 66.6326 144.378 66.4729C144.748 66.3667 145.139 66.355 145.515 66.4388C145.89 66.5227 146.239 66.6995 146.528 66.953C147.104 67.4664 147.581 68.0796 147.938 68.763C149.818 71.903 151.438 75.273 153.178 78.493C155.262 82.6742 157.063 86.9906 158.568 91.4129C159.428 93.6729 159.098 96.1829 158.618 98.5529C158.028 101.453 157.228 104.473 156.348 107.303C154.478 113.303 152.468 119.303 150.848 125.423L145.538 145.333C155.164 141.667 165.078 138.811 175.178 136.793Z" fill="white"/>
<path d="M175.163 25.9058C177.445 16.162 171.396 6.41332 161.652 4.13152C151.908 1.84973 142.16 7.89886 139.878 17.6427C137.596 27.3864 143.645 37.1352 153.389 39.417C163.133 41.6988 172.881 35.6496 175.163 25.9058Z" fill="#AEC9FF"/>
<path d="M157.468 40.3029C153.802 40.2969 150.219 39.2038 147.173 37.1617C144.128 35.1195 141.756 32.2201 140.358 28.8301C138.961 25.4401 138.599 21.7117 139.321 18.1165C140.042 14.5213 141.813 11.2206 144.41 8.63195C147.007 6.04328 150.313 4.28287 153.911 3.57332C157.508 2.86377 161.236 3.23695 164.621 4.64568C168.007 6.05441 170.898 8.4354 172.931 11.4876C174.963 14.5398 176.044 18.126 176.038 21.7929C176.025 26.7084 174.063 31.4179 170.581 34.888C167.1 38.3582 162.384 40.3055 157.468 40.3029ZM157.468 4.06288C153.97 4.06881 150.552 5.11119 147.646 7.05837C144.74 9.00555 142.476 11.7702 141.14 15.0032C139.804 18.2363 139.456 21.7927 140.14 25.2233C140.824 28.654 142.509 31.8051 144.983 34.2786C147.456 36.7522 150.607 38.4374 154.038 39.1213C157.469 39.8052 161.025 39.4572 164.258 38.1213C167.491 36.7853 170.256 34.5213 172.203 31.6152C174.15 28.709 175.193 25.291 175.198 21.7929C175.2 19.4642 174.742 17.158 173.852 15.0064C172.961 12.8547 171.655 10.8996 170.008 9.25295C168.362 7.6063 166.407 6.30037 164.255 5.40982C162.103 4.51927 159.797 4.06156 157.468 4.06288Z" fill="#3B3B3B"/>
<path d="M141.059 5.79307L144.659 5.49306C145.315 5.35266 145.987 5.29554 146.659 5.32307C146.808 5.32694 146.952 5.3815 147.066 5.4778C147.181 5.57409 147.259 5.7064 147.289 5.85306C147.313 6.1577 147.293 6.46435 147.229 6.76307C147.039 9.33307 146.859 11.8931 146.669 14.4631C146.289 19.6031 145.912 24.7397 145.539 29.8731C145.539 30.5431 146.539 30.5431 146.539 29.8731C146.979 23.9731 147.412 18.0731 147.838 12.1731C147.938 10.7131 148.049 9.26307 148.159 7.80307C148.219 6.91307 148.589 5.54307 147.989 4.80307C147.389 4.06307 146.219 4.35306 145.409 4.42306L141.008 4.79307C140.338 4.85307 140.338 5.90307 141.008 5.79307H141.059Z" fill="#3B3B3B"/>
<path d="M146.069 30.3629C153.859 30.1229 161.619 29.5129 169.389 28.9729C170.069 28.9229 170.069 27.8729 169.389 27.9229C161.619 28.4629 153.859 29.0729 146.069 29.3129C145.399 29.3129 145.389 30.3829 146.069 30.3129V30.3629Z" fill="#3B3B3B"/>
<path d="M147.388 16.393C155.342 15.9863 163.292 15.713 171.239 15.573C171.342 15.5366 171.432 15.4689 171.495 15.3794C171.559 15.2898 171.593 15.1828 171.593 15.073C171.593 14.9632 171.559 14.8562 171.495 14.7666C171.432 14.6771 171.342 14.6094 171.239 14.573C163.292 14.713 155.342 14.9863 147.388 15.393C146.718 15.393 146.718 16.473 147.388 16.393Z" fill="#3B3B3B"/>
<path d="M170.869 14.993L163.629 28.303C163.309 28.893 164.209 29.423 164.539 28.833L171.769 15.523C172.099 14.933 171.189 14.403 170.869 14.993Z" fill="#3B3B3B"/>
<path d="M151.679 17.3929C150.899 20.5129 150.128 23.6329 149.398 26.7529C149.238 27.4129 150.248 27.6929 150.398 27.0329C151.128 23.9129 151.898 20.7929 152.688 17.6729C152.697 17.5511 152.664 17.43 152.593 17.3301C152.523 17.2303 152.42 17.1578 152.303 17.1249C152.185 17.0919 152.06 17.1006 151.948 17.1495C151.836 17.1983 151.744 17.2843 151.688 17.3929H151.679Z" fill="#3B3B3B"/>
<path d="M156.998 17.6929C156.428 20.5829 155.798 23.4629 155.088 26.3329C154.928 26.9829 155.938 27.2629 156.088 26.6129C156.802 23.7463 157.438 20.8663 157.998 17.9729C158.128 17.3129 157.118 16.9729 156.998 17.6929Z" fill="#3B3B3B"/>
<path d="M163.239 17.5628C162.239 20.2728 161.239 22.9728 160.239 25.6828C160.009 26.3228 161.019 26.5928 161.239 25.9628C162.245 23.2494 163.245 20.5428 164.239 17.8428C164.479 17.2028 163.459 16.9328 163.239 17.5628Z" fill="#3B3B3B"/>
<path d="M151.948 33.1831C151.948 33.634 151.815 34.0748 151.564 34.4498C151.314 34.8247 150.958 35.117 150.541 35.2895C150.124 35.4621 149.666 35.5072 149.224 35.4193C148.781 35.3313 148.375 35.1141 148.056 34.7953C147.737 34.4764 147.52 34.0702 147.432 33.6279C147.344 33.1856 147.389 32.7272 147.562 32.3106C147.735 31.8939 148.027 31.5379 148.402 31.2873C148.777 31.0368 149.217 30.9031 149.668 30.9031C150.273 30.9031 150.853 31.1433 151.281 31.5709C151.708 31.9985 151.948 32.5784 151.948 33.1831Z" fill="#3B3B3B"/>
<path d="M165.289 33.1831C165.289 33.634 165.155 34.0748 164.904 34.4498C164.654 34.8247 164.298 35.117 163.881 35.2895C163.464 35.4621 163.006 35.5072 162.564 35.4193C162.121 35.3313 161.715 35.1141 161.396 34.7953C161.077 34.4764 160.86 34.0702 160.772 33.6279C160.684 33.1856 160.729 32.7272 160.902 32.3106C161.075 31.8939 161.367 31.5379 161.742 31.2873C162.117 31.0368 162.558 30.9031 163.008 30.9031C163.613 30.9031 164.193 31.1433 164.621 31.5709C165.048 31.9985 165.289 32.5784 165.289 33.1831Z" fill="#3B3B3B"/>
<path d="M202.468 89.2826C199.476 90.0886 196.783 91.7461 194.714 94.0539C192.646 96.3616 191.293 99.2203 190.818 102.283C190.582 103.84 190.742 105.432 191.282 106.912C191.822 108.392 192.725 109.713 193.908 110.753C195.193 111.826 196.748 112.528 198.403 112.782C200.058 113.035 201.751 112.832 203.298 112.193C203.918 111.943 203.648 110.923 203.018 111.193C201.576 111.811 199.986 112 198.438 111.736C196.891 111.471 195.454 110.765 194.298 109.703C193.205 108.61 192.423 107.245 192.032 105.749C191.642 104.253 191.658 102.68 192.078 101.193C192.715 98.5821 194.041 96.1905 195.918 94.2677C197.795 92.345 200.154 90.9618 202.749 90.2626C202.874 90.2198 202.979 90.1304 203.041 90.0128C203.103 89.8951 203.118 89.7581 203.082 89.63C203.046 89.5019 202.963 89.3925 202.848 89.3241C202.734 89.2558 202.598 89.2338 202.468 89.2626V89.2826Z" fill="#3B3B3B"/>
<path d="M202.778 90.2826C204.597 89.5719 206.611 89.5435 208.448 90.2026C209.828 90.8574 210.948 91.956 211.628 93.3226C213.108 96.0926 213.689 100.203 211.809 102.903C211.429 103.463 212.338 103.993 212.718 103.433C214.848 100.433 214.178 95.7126 212.438 92.6226C211.622 91.0986 210.32 89.8913 208.739 89.1926C206.714 88.4838 204.504 88.5122 202.499 89.2726C201.859 89.4726 202.138 90.4926 202.778 90.2726V90.2826Z" fill="#3B3B3B"/>
<path d="M213.788 105.343L213.858 105.413C213.858 105.353 213.858 105.413 213.858 105.413L213.918 105.503V105.603C213.918 105.693 213.918 105.533 213.918 105.603L213.978 105.793C213.978 105.793 213.978 105.853 213.978 105.873C213.978 105.893 213.978 105.763 213.978 105.873C213.983 105.936 213.983 106 213.978 106.063V106.153C213.978 106.153 213.978 106.063 213.978 106.103C213.979 106.12 213.979 106.136 213.978 106.153C213.964 106.218 213.944 106.282 213.918 106.343C213.918 106.403 213.968 106.243 213.918 106.343C213.922 106.373 213.922 106.403 213.918 106.433C213.922 106.459 213.922 106.486 213.918 106.513C213.918 106.563 213.988 106.433 213.918 106.513L213.788 106.653L213.718 106.713C213.718 106.713 213.778 106.663 213.718 106.713L213.558 106.803H213.498H213.558H213.458H213.288H213.178C213.109 106.802 213.041 106.814 212.976 106.84C212.912 106.865 212.854 106.903 212.804 106.952C212.755 107 212.716 107.058 212.689 107.122C212.662 107.185 212.648 107.254 212.648 107.323C212.653 107.462 212.711 107.594 212.809 107.692C212.908 107.79 213.039 107.848 213.178 107.853C213.576 107.849 213.963 107.728 214.29 107.503C214.618 107.279 214.872 106.962 215.018 106.593C215.147 106.234 215.17 105.845 215.085 105.473C215 105.101 214.811 104.761 214.538 104.493C214.436 104.412 214.307 104.372 214.177 104.38C214.047 104.388 213.924 104.444 213.833 104.536C213.741 104.629 213.687 104.753 213.68 104.883C213.674 105.013 213.716 105.142 213.798 105.243L213.788 105.343Z" fill="#3B3B3B"/>
<path d="M201.359 112.413C201.614 117.459 201.112 122.516 199.869 127.413C199.719 128.073 200.739 128.353 200.869 127.693C202.14 122.705 202.656 117.554 202.399 112.413C202.349 111.753 201.299 111.743 201.349 112.413H201.359Z" fill="#3B3B3B"/>
<path d="M199.648 95.7928C199.158 96.2828 198.518 96.4428 198.218 96.1428C197.918 95.8428 198.088 95.2028 198.578 94.7128C199.068 94.2228 199.708 94.0628 200.008 94.3628C200.308 94.6628 200.148 95.3128 199.648 95.7928Z" fill="#3B3B3B"/>
<path d="M195.338 93.333C194.208 94.163 192.538 93.863 191.338 94.663C190.628 95.153 190.998 96.183 191.188 96.853C191.298 97.223 191.408 97.583 191.508 97.953C191.59 98.2279 191.65 98.5088 191.688 98.793C191.693 98.9303 191.749 99.0609 191.846 99.159C191.942 99.2571 192.071 99.3156 192.208 99.323C192.349 99.323 192.484 99.2671 192.583 99.1678C192.683 99.0684 192.738 98.9335 192.738 98.793C192.654 98.1329 192.503 97.4829 192.288 96.853C192.188 96.523 192.098 96.203 192.028 95.853C192.002 95.7583 191.985 95.6611 191.978 95.563C191.978 95.313 191.918 95.563 191.898 95.563L192.088 95.453C192.689 95.2208 193.312 95.0532 193.948 94.953C194.625 94.8538 195.273 94.6117 195.848 94.243C195.908 94.2082 195.959 94.1621 196 94.1073C196.042 94.0525 196.072 93.9902 196.089 93.9238C196.106 93.8574 196.11 93.7883 196.101 93.7204C196.091 93.6524 196.068 93.5871 196.033 93.528C195.999 93.4689 195.953 93.4172 195.898 93.3759C195.843 93.3347 195.781 93.3046 195.714 93.2874C195.648 93.2702 195.579 93.2663 195.511 93.2758C195.443 93.2854 195.378 93.3082 195.318 93.343L195.338 93.333Z" fill="#3B3B3B"/>
<path d="M212.719 103.553C212.999 103.221 213.376 102.984 213.796 102.873C214.216 102.762 214.661 102.783 215.069 102.933C215.508 103.1 215.898 103.376 216.202 103.734C216.506 104.093 216.715 104.522 216.809 104.983C217.025 105.956 216.854 106.975 216.334 107.826C215.814 108.676 214.984 109.292 214.019 109.543C213.538 109.634 213.042 109.593 212.583 109.426C212.124 109.259 211.718 108.971 211.409 108.593C211.361 108.543 211.304 108.503 211.24 108.475C211.176 108.448 211.108 108.434 211.039 108.434C210.969 108.434 210.901 108.448 210.837 108.475C210.774 108.503 210.716 108.543 210.669 108.593C210.572 108.692 210.518 108.825 210.518 108.963C210.518 109.101 210.572 109.234 210.669 109.333C211.054 109.787 211.544 110.142 212.095 110.366C212.647 110.591 213.245 110.679 213.839 110.623C214.457 110.552 215.054 110.352 215.59 110.035C216.126 109.718 216.589 109.291 216.949 108.783C218.529 106.643 218.249 103.093 215.549 101.993C214.901 101.73 214.186 101.685 213.511 101.866C212.836 102.046 212.238 102.442 211.809 102.993C211.742 103.114 211.724 103.257 211.76 103.391C211.795 103.525 211.881 103.64 211.999 103.713C212.12 103.78 212.263 103.797 212.397 103.762C212.531 103.726 212.646 103.641 212.719 103.523V103.553Z" fill="#3B3B3B"/>
<path d="M144.409 152.963C145.684 146.21 147.334 139.533 149.349 132.963C151.479 125.503 153.769 118.093 155.959 110.653C156.849 107.653 157.729 104.653 158.529 101.583C159.223 99.3115 159.61 96.9572 159.679 94.583C159.56 92.1718 159.012 89.8011 158.059 87.583C156.546 83.8225 154.823 80.1501 152.899 76.583C151.919 74.723 150.919 72.883 149.899 71.063C149.019 69.543 148.179 67.643 146.789 66.533C146.517 66.2787 146.189 66.0925 145.831 65.9897C145.474 65.8869 145.097 65.8704 144.732 65.9417C144.367 66.013 144.024 66.1699 143.731 66.3996C143.438 66.6294 143.205 66.9253 143.049 67.263C142.339 68.753 142.749 70.543 143.269 72.023C144.656 75.8367 146.383 79.5182 148.429 83.023C148.506 83.1273 148.62 83.1992 148.747 83.2252C148.875 83.2511 149.007 83.2293 149.12 83.1638C149.232 83.0983 149.317 82.9938 149.357 82.8701C149.397 82.7464 149.391 82.6122 149.339 82.493C147.61 79.4735 146.09 76.3396 144.789 73.113C144.134 71.7704 143.792 70.2968 143.789 68.803C143.789 68.033 144.089 67.103 144.969 66.973C146.119 66.803 146.969 68.123 147.449 68.973C149.449 72.213 151.289 75.583 153.019 78.973C154.882 82.4404 156.48 86.0441 157.799 89.753C158.601 92.0768 158.855 94.5549 158.539 96.993C158.233 98.8853 157.805 100.756 157.259 102.593C156.479 105.473 155.639 108.343 154.789 111.193C152.789 118.123 150.619 125.023 148.629 131.963C146.524 138.774 144.804 145.698 143.479 152.703C143.369 153.363 144.379 153.643 144.479 152.983L144.409 152.963Z" fill="#3B3B3B"/>
<path d="M149.519 82.8628C149.12 81.8081 148.603 80.8017 147.979 79.8628C147.424 78.9736 146.696 78.2051 145.839 77.6027C145.457 77.3252 145.014 77.144 144.548 77.0743C144.081 77.0047 143.604 77.0487 143.159 77.2028C142.284 77.5217 141.568 78.1668 141.159 79.0028C140.879 79.6128 141.789 80.1428 142.069 79.5328C142.21 79.2148 142.416 78.9292 142.672 78.6936C142.928 78.458 143.23 78.2773 143.559 78.1627C143.91 78.077 144.278 78.0816 144.628 78.176C144.978 78.2704 145.298 78.4516 145.559 78.7028C146.206 79.243 146.757 79.8888 147.189 80.6128C147.714 81.4194 148.15 82.2812 148.489 83.1828C148.719 83.8028 149.739 83.5328 149.489 82.9028L149.519 82.8628Z" fill="#3B3B3B"/>
<path d="M144.959 84.9229C143.959 83.2929 143.789 81.2228 142.339 79.8528C142.059 79.5573 141.723 79.3216 141.35 79.16C140.977 78.9984 140.575 78.9143 140.169 78.9128C139.828 78.9369 139.496 79.0289 139.192 79.1835C138.888 79.3381 138.618 79.5521 138.399 79.8129C138.106 80.1793 137.898 80.6063 137.791 81.063C137.684 81.5196 137.68 81.9944 137.779 82.4529C137.821 82.5788 137.911 82.6836 138.028 82.7456C138.146 82.8076 138.283 82.8222 138.411 82.7863C138.539 82.7505 138.649 82.6669 138.717 82.5528C138.785 82.4387 138.807 82.3027 138.779 82.1729C138.709 81.8302 138.731 81.4754 138.841 81.1438C138.952 80.8122 139.148 80.5154 139.409 80.2829C139.657 80.084 139.965 79.9757 140.284 79.9757C140.602 79.9757 140.91 80.084 141.159 80.2829C141.903 80.8215 142.459 81.5806 142.749 82.4529C143.092 83.4894 143.527 84.4933 144.049 85.4529C144.083 85.5119 144.129 85.5636 144.184 85.6049C144.239 85.6462 144.301 85.6762 144.368 85.6934C144.434 85.7106 144.503 85.7145 144.571 85.705C144.639 85.6955 144.704 85.6726 144.764 85.6378C144.823 85.603 144.874 85.5569 144.916 85.5022C144.957 85.4474 144.987 85.3851 145.004 85.3187C145.021 85.2523 145.025 85.1831 145.016 85.1152C145.006 85.0473 144.983 84.9819 144.949 84.9229H144.959Z" fill="#3B3B3B"/>
<path d="M140.828 86.7927C140.408 85.0227 139.828 83.0927 138.198 82.1027C137.543 81.6803 136.751 81.5247 135.985 81.6679C135.219 81.8111 134.537 82.2422 134.078 82.8727C133.19 84.2438 132.73 85.8489 132.758 87.4827C132.758 88.9827 133.188 91.1627 134.858 91.6527C135.292 91.7521 135.746 91.6965 136.143 91.4956C136.539 91.2946 136.853 90.9609 137.028 90.5527C137.21 90.0272 137.277 89.4689 137.226 88.9152C137.174 88.3616 137.004 87.8254 136.728 87.3427C136.478 86.7327 135.458 87.0027 135.728 87.6227C136.12 88.2964 136.281 89.0791 136.188 89.8527C136.038 90.3827 135.528 90.8527 134.968 90.5627C133.848 89.9327 133.758 88.2527 133.838 87.1327C133.875 85.9462 134.19 84.7849 134.758 83.7427C134.889 83.4891 135.071 83.2662 135.295 83.0891C135.518 82.9119 135.776 82.7845 136.053 82.7153C136.329 82.6462 136.618 82.637 136.898 82.6883C137.178 82.7395 137.444 82.8502 137.679 83.0127C139.089 83.8527 139.478 85.5927 139.828 87.0727C139.871 87.1986 139.961 87.3034 140.078 87.3654C140.196 87.4275 140.333 87.4421 140.461 87.4062C140.589 87.3703 140.699 87.2867 140.767 87.1726C140.835 87.0585 140.857 86.9225 140.828 86.7927Z" fill="#3B3B3B"/>
<path d="M136.298 90.7327C136.698 92.7327 138.009 94.3227 139.249 95.9127C139.9 96.6993 140.47 97.5503 140.948 98.4527C141.588 99.8469 141.78 101.405 141.499 102.913C140.615 107.898 139.11 112.752 137.018 117.363C133.238 126.433 128.358 135.053 125.408 144.443C123.841 148.969 123.03 153.723 123.008 158.513C122.987 159.651 123.231 160.778 123.721 161.805C124.21 162.833 124.932 163.732 125.828 164.433C127.134 165.446 128.574 166.27 130.108 166.883C137.178 169.753 145.518 169.043 152.888 167.883C161.405 166.547 169.749 164.276 177.768 161.113C178.388 160.873 178.119 159.853 177.489 160.113C170.655 162.786 163.593 164.831 156.388 166.223C148.858 167.683 140.568 168.723 133.038 166.733C129.478 165.793 124.788 163.793 124.158 159.733C123.915 157.228 124.063 154.701 124.598 152.243C124.986 149.918 125.53 147.623 126.228 145.373C129.028 136.103 133.798 127.603 137.578 118.723C139.842 113.811 141.491 108.638 142.489 103.323C142.716 102.132 142.698 100.908 142.434 99.7246C142.171 98.5414 141.669 97.4246 140.958 96.4427C139.598 94.5327 137.789 92.8327 137.309 90.4427C137.169 89.7727 136.159 90.0527 136.309 90.7227L136.298 90.7327Z" fill="#3B3B3B"/>
<path d="M143.538 67.5827C143.788 68.5565 144.341 69.4253 145.118 70.0627C146.028 70.6927 147.118 70.3927 148.118 70.1727C148.25 70.131 148.361 70.0404 148.428 69.9194C148.495 69.7985 148.513 69.6565 148.478 69.5227C148.461 69.4562 148.431 69.3938 148.389 69.3391C148.347 69.2844 148.295 69.2386 148.236 69.2041C148.176 69.1697 148.11 69.1475 148.042 69.1386C147.974 69.1298 147.905 69.1346 147.838 69.1527C147.414 69.2625 146.983 69.3427 146.548 69.3927C146.38 69.4289 146.206 69.4289 146.038 69.3927C145.891 69.345 145.753 69.2741 145.628 69.1827C145.371 68.9912 145.16 68.7453 145.008 68.4627C144.818 68.0997 144.657 67.7218 144.528 67.3327C144.489 67.2012 144.401 67.0897 144.282 67.021C144.163 66.9523 144.022 66.9314 143.888 66.9627C143.755 67.0023 143.642 67.0921 143.573 67.2133C143.504 67.3344 143.484 67.4775 143.518 67.6127L143.538 67.5827Z" fill="#3B3B3B"/>
<path d="M145.748 145.723C155.018 141.993 164.748 139.473 174.458 137.093C175.118 136.933 174.838 135.923 174.178 136.093C164.488 138.463 154.748 140.993 145.468 144.723C144.848 144.973 145.118 145.983 145.748 145.723Z" fill="#3B3B3B"/>
<path d="M168.039 137.493C168.039 135.553 168.038 133.053 169.888 131.893C171.938 130.633 173.249 132.513 173.739 134.313C174.756 138.483 175.541 142.706 176.089 146.963C176.759 151.343 177.289 155.753 177.659 160.163C177.829 162.163 178.039 164.233 178.059 166.263C178.059 167.843 177.929 169.763 176.679 170.903C175.039 172.383 172.559 171.373 171.339 169.853C169.909 168.083 169.769 165.743 169.669 163.573C169.669 162.893 168.589 162.893 168.619 163.573C168.719 165.783 168.888 168.053 170.128 169.973C170.614 170.748 171.275 171.397 172.059 171.868C172.843 172.339 173.727 172.618 174.638 172.683C179.228 172.803 179.199 167.223 178.999 164.023C178.639 158.423 178.038 152.846 177.198 147.293C176.788 144.603 176.338 141.933 175.828 139.293C175.398 137.033 175.208 134.363 174.078 132.293C173.876 131.876 173.587 131.507 173.231 131.211C172.874 130.915 172.458 130.699 172.011 130.577C171.564 130.454 171.096 130.429 170.639 130.503C170.181 130.576 169.745 130.747 169.359 131.003C167.139 132.393 166.989 135.143 166.989 137.503C167.006 137.63 167.069 137.746 167.165 137.83C167.262 137.914 167.386 137.96 167.513 137.96C167.641 137.96 167.765 137.914 167.862 137.83C167.958 137.746 168.021 137.63 168.039 137.503V137.493Z" fill="#3B3B3B"/>
<path d="M205.779 124.953C204.599 128.753 201.429 131.513 198.569 134.273C195.74 136.814 193.372 139.825 191.569 143.173C189.764 146.548 189.345 150.493 190.399 154.173C191.209 156.583 192.799 158.683 193.509 161.113C194.789 165.543 193.009 170.563 194.909 174.763C196.609 178.533 200.769 180.493 204.709 181.763C216.459 185.663 230.119 186.293 240.579 179.653C243.974 177.393 247.028 174.659 249.649 171.533C252.989 167.713 255.989 163.533 257.579 158.673C258.989 154.393 259.239 149.833 259.479 145.333C259.669 143.785 259.533 142.215 259.079 140.723C258.079 138.083 255.259 136.583 252.509 135.953C249.759 135.323 246.879 135.313 244.179 134.493C242.976 134.202 241.898 133.537 241.099 132.593C239.509 130.423 240.759 127.363 242.239 125.133C243.719 122.903 245.389 120.843 246.359 118.383C247.329 115.923 247.449 112.933 245.869 110.823C243.249 107.323 237.939 108.043 233.699 106.963C231.394 106.315 229.236 105.232 227.339 103.773C226.729 103.375 226.197 102.871 225.769 102.283C224.769 100.723 225.679 98.6128 225.139 96.8428C221.919 86.3828 208.419 87.5628 204.279 88.9328C207.539 89.0728 210.619 90.4328 212.279 93.2528C213.086 94.6757 213.532 96.275 213.577 97.9104C213.622 99.5458 213.266 101.167 212.539 102.633C213.052 102.266 213.672 102.079 214.302 102.099C214.933 102.118 215.539 102.345 216.029 102.743C216.758 103.417 217.228 104.326 217.356 105.311C217.484 106.296 217.262 107.295 216.729 108.133C216.452 108.572 216.075 108.939 215.629 109.204C215.183 109.47 214.68 109.626 214.163 109.66C213.645 109.694 213.126 109.605 212.649 109.401C212.173 109.196 211.751 108.882 211.419 108.483C210.469 107.483 207.169 110.933 206.549 116.583C206.219 119.413 206.609 122.273 205.779 124.953Z" fill="#3B3B3B"/>
<path d="M205.198 89.203C205.198 89.203 205.459 102.483 212.029 103.793C212.029 103.793 212.769 104.043 213.029 102.873C213.339 101.543 214.609 94.603 214.609 94.603C214.609 94.603 210.588 87.573 205.198 89.203Z" fill="#3B3B3B"/>
<path d="M201.028 91.9626C201.138 92.1426 201.238 92.3326 201.328 92.5126C201.418 92.6926 201.418 92.6926 201.458 92.7826V92.8626C201.458 92.8026 201.458 92.7926 201.458 92.8626C201.479 92.9042 201.496 92.9477 201.508 92.9926C201.66 93.3782 201.777 93.7765 201.858 94.1826C201.898 94.3163 201.988 94.4294 202.109 94.4984C202.23 94.5673 202.373 94.5868 202.508 94.5526C202.639 94.5089 202.748 94.4179 202.815 94.2976C202.881 94.1773 202.901 94.0364 202.868 93.9026C202.677 93.032 202.339 92.2001 201.868 91.4426C201.796 91.3246 201.68 91.239 201.546 91.2037C201.412 91.1683 201.27 91.1858 201.148 91.2526C201.03 91.3253 200.945 91.4406 200.909 91.5746C200.874 91.7087 200.892 91.8512 200.958 91.9726L201.028 91.9626Z" fill="#3B3B3B"/>
<path d="M171.298 131.453C183.439 129.576 195.704 128.61 207.988 128.563C208.115 128.545 208.231 128.483 208.315 128.386C208.4 128.29 208.446 128.166 208.446 128.038C208.446 127.91 208.4 127.786 208.315 127.69C208.231 127.593 208.115 127.53 207.988 127.513C195.599 127.567 183.232 128.546 170.988 130.443C170.328 130.543 170.608 131.553 171.268 131.443L171.298 131.453Z" fill="#3B3B3B"/>
<path d="M176.689 172.473L187.529 169.793C188.179 169.633 187.899 168.623 187.249 168.793L176.409 171.483C175.759 171.643 176.039 172.653 176.689 172.483V172.473Z" fill="#3B3B3B"/>
<path d="M180.468 170.793C179.938 174.173 180.978 177.353 182.268 180.443C183.558 183.533 184.809 186.333 185.809 189.393C186.495 191.4 186.961 193.475 187.198 195.583C187.333 197.481 187.333 199.385 187.198 201.283C187.048 204.473 186.878 207.653 186.848 210.843C186.866 210.97 186.929 211.086 187.025 211.17C187.122 211.254 187.246 211.3 187.374 211.3C187.501 211.3 187.625 211.254 187.722 211.17C187.818 211.086 187.881 210.97 187.898 210.843C187.898 206.063 188.578 201.223 188.298 196.453C188.018 191.683 186.298 187.213 184.438 182.893C182.878 179.163 180.818 175.243 181.438 171.073C181.538 170.413 180.528 170.073 180.438 170.793H180.468Z" fill="#3B3B3B"/>
<path d="M242.978 172.023C244.51 178.175 245.715 184.403 246.588 190.683C247.338 196.943 247.468 203.263 247.658 209.563C247.658 210.233 248.728 210.243 248.658 209.563C248.498 204.363 248.378 199.153 247.928 193.973C247.537 189.731 246.91 185.514 246.048 181.343C245.398 178.133 244.678 174.943 243.948 171.743C243.788 171.083 242.778 171.363 242.948 172.023H242.978Z" fill="#3B3B3B"/>
<path d="M254.638 159.723C256.934 162.759 259.064 165.917 261.018 169.183C263.029 172.338 264.679 175.71 265.938 179.233C267.159 182.61 267.247 186.292 266.188 189.723C265.028 193.023 262.378 195.273 259.408 196.923C255.838 198.923 251.958 200.343 248.228 201.923C247.608 202.183 248.138 203.093 248.758 202.823C252.338 201.273 256.049 199.823 259.499 198.033C262.409 196.483 265.149 194.393 266.619 191.363C269.949 184.483 266.618 176.933 263.208 170.833C260.92 166.77 258.358 162.867 255.538 159.153C255.138 158.623 254.228 159.153 254.638 159.683V159.723Z" fill="#3B3B3B"/>
<path d="M287.922 90.7813L184.198 54.7014L180.817 64.4202L284.541 100.5L287.922 90.7813Z" fill="#AEC9FF"/>
<path d="M283.748 89.3309L200.907 60.5149L198.873 66.3613L281.714 95.1773L283.748 89.3309Z" fill="#53D86A"/>
<path d="M195.268 61.9927C194.99 62.792 194.482 63.491 193.806 64.0012C193.131 64.5114 192.32 64.81 191.475 64.8592C190.63 64.9084 189.789 64.7059 189.06 64.2775C188.33 63.8491 187.743 63.2139 187.374 62.4523C187.005 61.6906 186.87 60.8366 186.987 59.9983C187.103 59.16 187.465 58.375 188.028 57.7425C188.59 57.11 189.327 56.6585 190.146 56.4449C190.965 56.2313 191.829 56.2654 192.628 56.5427C193.16 56.7269 193.65 57.0141 194.07 57.3878C194.49 57.7615 194.833 58.2144 195.078 58.7205C195.323 59.2267 195.466 59.7762 195.499 60.3376C195.532 60.8991 195.453 61.4615 195.268 61.9927Z" fill="#005BF3"/>
<path d="M283.848 100.533C283.668 100.537 283.488 100.507 283.318 100.443L181.828 65.153C181.434 65.0162 181.108 64.7304 180.921 64.3567C180.734 63.9829 180.701 63.5509 180.828 63.153L184.638 52.203C184.779 51.8113 185.066 51.4888 185.438 51.3026C185.811 51.1164 186.24 51.0808 186.638 51.203L288.128 86.503C288.523 86.6398 288.849 86.9256 289.036 87.2993C289.223 87.6731 289.256 88.1051 289.128 88.503L285.318 99.453C285.213 99.7613 285.015 100.03 284.752 100.223C284.49 100.416 284.174 100.524 283.848 100.533ZM186.158 51.923C186.001 51.924 185.847 51.9734 185.718 52.0647C185.589 52.1559 185.492 52.2845 185.438 52.433L181.628 63.433C181.591 63.5293 181.573 63.6323 181.576 63.7357C181.58 63.8391 181.604 63.9407 181.648 64.0343C181.692 64.1279 181.755 64.2116 181.832 64.2801C181.91 64.3487 182 64.4007 182.098 64.433L283.598 99.733C283.694 99.774 283.798 99.7942 283.902 99.7923C284.007 99.7905 284.109 99.7665 284.204 99.7222C284.298 99.6778 284.382 99.6139 284.45 99.5348C284.518 99.4557 284.569 99.363 284.598 99.263L288.408 88.313C288.447 88.2174 288.465 88.115 288.462 88.0121C288.459 87.9092 288.436 87.8079 288.393 87.7144C288.35 87.6209 288.288 87.5371 288.212 87.4681C288.135 87.3991 288.046 87.3464 287.948 87.313L186.448 52.023C186.36 51.9698 186.261 51.9357 186.158 51.923Z" fill="#3B3B3B"/>
<path d="M281.859 96.0626L281.458 95.9226L198.229 66.9726L200.679 59.9226L201.078 60.0526L284.309 89.0526L281.859 96.0626ZM199.299 66.4626L281.299 94.9926L283.198 89.5226L201.198 60.9926L199.299 66.4626Z" fill="#3B3B3B"/>
<path d="M191.179 65.2329C190.658 65.2303 190.141 65.1425 189.648 64.9729C188.924 64.7221 188.272 64.2965 187.751 63.7336C187.231 63.1707 186.857 62.488 186.663 61.746C186.469 61.004 186.462 60.2257 186.641 59.4801C186.82 58.7345 187.181 58.0446 187.69 57.4717C188.2 56.8987 188.843 56.4604 189.563 56.1956C190.282 55.9308 191.056 55.8477 191.816 55.9536C192.575 56.0596 193.297 56.3513 193.917 56.803C194.536 57.2547 195.035 57.8523 195.369 58.5429C195.639 59.0922 195.797 59.6902 195.833 60.3016C195.869 60.913 195.783 61.5255 195.578 62.1029C195.258 63.0152 194.663 63.8059 193.875 64.3664C193.088 64.9269 192.145 65.2296 191.179 65.2329ZM191.179 56.7529C190.604 56.7537 190.036 56.8835 189.518 57.1329C188.621 57.5822 187.937 58.3665 187.614 59.3162C187.29 60.2659 187.353 61.3048 187.789 62.2085C188.225 63.1121 188.999 63.8079 189.944 64.1455C190.889 64.4831 191.928 64.4355 192.838 64.0129C193.301 63.7991 193.716 63.4953 194.059 63.1193C194.402 62.7433 194.667 62.3025 194.838 61.8229C195.168 60.8666 195.106 59.819 194.665 58.9085C194.225 57.998 193.443 57.2986 192.488 56.9629C192.064 56.834 191.622 56.7765 191.179 56.7929V56.7529Z" fill="#3B3B3B"/>
<path d="M192.169 63.0329C192.089 63.033 192.011 63.0105 191.944 62.968C191.876 62.9255 191.823 62.8648 191.789 62.7929L189.789 58.7129C189.739 58.6121 189.732 58.4959 189.769 58.39C189.806 58.284 189.883 58.1969 189.984 58.1479C190.084 58.0988 190.2 58.0918 190.306 58.1283C190.412 58.1649 190.499 58.2421 190.549 58.3429L192.549 62.4329C192.572 62.4828 192.586 62.5368 192.589 62.592C192.591 62.6472 192.583 62.7023 192.565 62.7544C192.546 62.8064 192.517 62.8542 192.48 62.8951C192.443 62.9361 192.398 62.9693 192.348 62.9929C192.293 63.0204 192.231 63.0341 192.169 63.0329Z" fill="#3B3B3B"/>
<path d="M189.138 61.983C189.043 61.9833 188.95 61.9509 188.875 61.8913C188.801 61.8317 188.749 61.7485 188.728 61.6552C188.707 61.562 188.718 61.4644 188.76 61.3785C188.802 61.2927 188.872 61.2237 188.958 61.183L193.039 59.183C193.139 59.134 193.255 59.1269 193.361 59.1635C193.467 59.2001 193.554 59.2772 193.604 59.378C193.653 59.4788 193.66 59.5949 193.623 59.7009C193.586 59.8069 193.509 59.894 193.409 59.943L189.318 61.943C189.261 61.9659 189.2 61.9794 189.138 61.983Z" fill="#3B3B3B"/>
<path d="M104.048 181.553C103.481 181.318 102.985 180.939 102.61 180.453C102.234 179.967 101.993 179.391 101.908 178.783C101.879 177.516 102.193 176.265 102.818 175.163L106.388 167.353C106.772 166.399 107.298 165.509 107.948 164.713C108.618 164.061 109.375 163.505 110.198 163.063L114.148 160.703C114.358 160.558 114.597 160.463 114.848 160.423C115.568 160.423 115.988 161.303 115.848 161.993C115.572 162.661 115.237 163.304 114.848 163.913C114.491 164.87 114.381 165.902 114.528 166.913C114.748 169.753 115.308 172.723 114.278 175.383C114.07 175.971 113.728 176.501 113.278 176.933C112.278 177.873 110.718 177.933 109.498 178.603C108.691 179.061 108.047 179.76 107.658 180.603C107.465 180.94 107.189 181.222 106.856 181.423C106.524 181.624 106.146 181.737 105.758 181.753C105.181 181.834 104.592 181.765 104.048 181.553Z" fill="#53D86A"/>
<path d="M92.9885 171.843C93.5797 170.587 93.9194 169.228 93.9885 167.843C93.9885 164.963 91.7685 162.193 92.5785 159.433C92.8585 158.483 93.4785 157.663 93.7785 156.723C94.0488 155.444 94.1096 154.131 93.9585 152.833C93.8901 152.183 93.956 151.527 94.1521 150.904C94.3482 150.281 94.6704 149.706 95.0985 149.213C95.1616 149.142 95.2386 149.085 95.3246 149.046C95.4106 149.006 95.5038 148.985 95.5985 148.983C95.7525 149.021 95.8896 149.109 95.9885 149.233C96.7816 150.068 97.504 150.968 98.1485 151.923C99.4245 153.547 100.505 155.316 101.369 157.193C102.216 159.077 102.389 161.196 101.859 163.193C101.595 163.845 101.372 164.513 101.188 165.193C101.069 166.002 101.069 166.824 101.188 167.633C101.388 169.863 101.358 172.253 100.188 174.133C99.6923 174.888 99.0333 175.523 98.2598 175.99C97.4863 176.457 96.6179 176.745 95.7185 176.833C95.0322 176.94 94.3312 176.906 93.6585 176.733C93.3839 176.606 93.14 176.422 92.9432 176.192C92.7465 175.963 92.6016 175.693 92.5185 175.403C92.2065 174.2 92.3751 172.923 92.9885 171.843Z" fill="#53D86A"/>
<path d="M85.6486 183.143C84.698 183.359 83.7046 183.29 82.7935 182.943C81.8824 182.596 81.0943 181.987 80.5286 181.193C80.0211 180.265 79.4463 179.376 78.8086 178.533C77.6386 177.313 75.8086 177.093 74.2586 176.373C71.4386 175.053 69.8086 172.083 68.6686 169.183C68.4261 168.697 68.3289 168.152 68.3886 167.613C68.4909 167.275 68.6809 166.971 68.939 166.73C69.1972 166.489 69.5145 166.321 69.8586 166.243C70.5492 166.113 71.258 166.113 71.9486 166.243L75.9486 166.643C76.9595 166.666 77.9503 166.93 78.8386 167.413C80.3586 168.413 80.7386 170.413 81.6986 171.963C82.8286 173.783 84.7486 174.893 86.3886 176.193C87.2392 176.803 87.9798 177.554 88.5786 178.413C88.7566 178.83 88.8252 179.286 88.778 179.738C88.7307 180.189 88.5692 180.621 88.3086 180.993C88.0344 181.513 87.6572 181.972 87.1998 182.342C86.7425 182.711 86.2147 182.984 85.6486 183.143Z" fill="#53D86A"/>
<path d="M90.6585 196.083C91.3285 191.163 92.0185 184.413 86.5185 181.903C85.1885 181.293 83.7585 180.973 82.7285 179.853C81.9387 178.829 81.2235 177.749 80.5885 176.623C78.9385 174.173 76.0785 173.263 73.5085 172.063C72.8985 171.783 72.3685 172.693 72.9785 172.973C75.4585 174.133 78.2985 174.973 79.8485 177.393C81.0885 179.313 81.9785 181.143 84.1785 182.083C85.4618 182.487 86.6611 183.121 87.7185 183.953C88.6796 184.913 89.3696 186.11 89.7185 187.423C90.5085 190.143 90.0085 193.063 89.6285 195.813C89.5385 196.473 90.5485 196.753 90.6285 196.083H90.6585Z" fill="#3B3B3B"/>
<path d="M93.9584 196.273C93.9584 193.213 93.8084 190.143 93.7284 187.073C93.6484 184.003 93.2584 180.503 93.8784 177.373C94.4384 174.513 96.1684 172.053 96.8784 169.233C97.5432 166.506 97.5432 163.659 96.8784 160.933C96.7184 160.273 95.7084 160.553 95.8784 161.203C96.6002 164.179 96.4686 167.298 95.4985 170.203C94.6085 172.843 93.0884 175.203 92.7284 178.003C92.4912 180.998 92.4912 184.007 92.7284 187.003C92.8084 190.073 92.9084 193.143 92.9584 196.203C92.9948 196.306 93.0625 196.396 93.152 196.459C93.2416 196.523 93.3487 196.557 93.4584 196.557C93.5682 196.557 93.6753 196.523 93.7648 196.459C93.8544 196.396 93.922 196.306 93.9584 196.203V196.273Z" fill="#3B3B3B"/>
<path d="M96.6485 195.943C96.6485 191.363 96.6485 185.823 100.029 182.303C101.789 180.493 103.828 179.123 105.128 176.903C106.282 174.694 107.133 172.339 107.659 169.903C107.667 169.781 107.634 169.66 107.563 169.56C107.493 169.46 107.39 169.388 107.273 169.355C107.155 169.322 107.03 169.331 106.918 169.379C106.806 169.428 106.714 169.514 106.659 169.623C106.13 172.24 105.163 174.748 103.799 177.043C102.319 179.223 99.9185 180.523 98.3585 182.633C95.6285 186.333 95.6285 191.513 95.6185 195.903C95.6549 196.006 95.7226 196.096 95.8121 196.16C95.9017 196.223 96.0088 196.257 96.1185 196.257C96.2283 196.257 96.3353 196.223 96.4249 196.16C96.5144 196.096 96.5821 196.006 96.6185 195.903L96.6485 195.943Z" fill="#3B3B3B"/>
<path d="M88.6084 183.623L84.9885 184.543C83.7718 184.928 82.5236 185.206 81.2584 185.373C80.1584 185.453 78.9684 185.243 78.5684 184.063C78.396 183.094 78.2892 182.115 78.2485 181.133C77.9185 179.383 76.5685 178.643 74.9885 178.133C73.9308 177.892 72.9379 177.424 72.0784 176.763C71.2972 176.004 70.6602 175.109 70.1984 174.123C69.0884 171.953 68.1984 169.653 67.1984 167.413C66.9484 166.853 66.0684 165.413 67.3184 165.333C67.8184 165.333 68.3184 165.793 68.7584 166.023C69.6253 166.525 70.5843 166.848 71.5784 166.973C73.5784 167.243 75.7784 166.883 77.7084 167.633C79.6384 168.383 80.4784 170.493 81.4484 172.243C82.6684 174.463 84.5584 175.683 86.4484 177.243C88.3384 178.803 90.5584 181.583 88.2684 183.673C87.7684 184.123 88.5184 184.863 89.0084 184.413C89.7345 183.658 90.166 182.668 90.2247 181.622C90.2834 180.576 89.9654 179.544 89.3284 178.713C87.8084 176.443 85.1484 175.433 83.3984 173.413C81.9184 171.683 81.3984 169.263 79.6984 167.723C77.9984 166.183 75.4485 166.183 73.1785 166.093C71.916 166.116 70.6646 165.852 69.5184 165.323C68.5184 164.803 67.5784 163.983 66.3984 164.493C66.0763 164.616 65.8082 164.849 65.6416 165.151C65.475 165.453 65.4208 165.804 65.4885 166.143C65.6691 166.785 65.9206 167.406 66.2385 167.993C66.5785 168.753 66.9085 169.523 67.2385 170.293C68.2385 172.663 69.1584 175.463 71.0384 177.293C71.745 177.976 72.5959 178.492 73.5284 178.803C74.7684 179.233 76.5284 179.423 77.0084 180.803C77.4684 182.003 77.0784 183.373 77.5784 184.573C77.7764 185.038 78.0912 185.445 78.4924 185.753C78.8936 186.062 79.3676 186.261 79.8685 186.333C81.0818 186.457 82.3077 186.327 83.4684 185.953L88.8085 184.593C88.9344 184.55 89.0392 184.46 89.1012 184.343C89.1632 184.225 89.1778 184.088 89.142 183.96C89.1061 183.832 89.0225 183.722 88.9084 183.654C88.7943 183.586 88.6583 183.564 88.5284 183.593L88.6084 183.623Z" fill="#3B3B3B"/>
<path d="M92.9885 177.363C89.9285 177.263 90.6985 173.283 91.3685 171.473C92.0885 169.473 92.8184 167.623 92.2184 165.473C91.6184 163.323 90.4584 161.643 91.1484 159.373C91.7584 157.373 92.9585 155.653 93.4285 153.603C93.6501 152.645 93.7674 151.666 93.7784 150.683C93.7234 150.204 93.7234 149.721 93.7784 149.243C94.0784 148.033 95.2685 148.583 95.8685 149.153C96.6498 150.009 97.3401 150.944 97.9285 151.943C98.5585 152.873 99.1584 153.833 99.7184 154.813C100.936 156.67 101.643 158.815 101.768 161.033C101.721 162.129 101.405 163.197 100.848 164.143C100.384 164.915 100.177 165.815 100.258 166.713C100.515 167.858 100.642 169.029 100.638 170.203C100.486 172.075 99.6477 173.826 98.2837 175.118C96.9197 176.41 95.1265 177.152 93.2485 177.203C92.5785 177.203 92.5785 178.283 93.2485 178.203C95.5588 178.114 97.7417 177.121 99.3263 175.437C100.911 173.753 101.77 171.514 101.718 169.203C101.718 167.763 100.948 166.383 101.598 164.993C102.157 164.032 102.549 162.984 102.758 161.893C103.078 159.393 102.068 156.893 100.888 154.763C100.258 153.623 99.5684 152.513 98.8384 151.433C98.1509 150.259 97.3214 149.174 96.3685 148.203C94.9685 146.973 92.8884 147.413 92.7084 149.423C92.6878 150.796 92.5675 152.167 92.3484 153.523C91.9536 154.858 91.4347 156.154 90.7985 157.393C90.2785 158.385 89.9399 159.462 89.7985 160.573C89.7891 161.872 90.08 163.155 90.6484 164.323C91.3398 165.765 91.4958 167.406 91.0884 168.953C90.5154 170.438 90.0344 171.958 89.6484 173.503C89.3284 175.713 90.4184 178.313 92.9384 178.393C93.6084 178.393 93.6084 177.393 92.9384 177.343L92.9885 177.363Z" fill="#3B3B3B"/>
<path d="M100.098 181.263C98.8884 178.913 100.208 177.093 101.588 175.263C102.968 173.433 103.388 171.533 104.148 169.553C104.859 167.718 105.934 166.046 107.309 164.638C108.684 163.23 110.33 162.116 112.148 161.363C112.758 161.113 114.148 160.363 114.828 160.583C116.448 161.023 114.478 163.383 114.178 164.113C113.448 165.913 113.948 167.873 114.308 169.693C114.787 171.537 114.632 173.488 113.868 175.233C113.504 175.993 112.914 176.621 112.178 177.033C111.308 177.503 110.278 177.543 109.388 177.973C107.548 178.863 107.328 181.233 105.458 182.123C104.556 182.558 103.534 182.68 102.555 182.47C101.575 182.26 100.693 181.73 100.048 180.963C99.6284 180.443 98.8884 181.183 99.3084 181.713C99.9123 182.425 100.69 182.969 101.566 183.291C102.442 183.613 103.387 183.704 104.308 183.553C106.368 183.263 107.518 182.043 108.528 180.333C109.318 179.023 110.288 178.793 111.658 178.333C112.636 178.062 113.508 177.501 114.158 176.723C115.344 175.108 115.869 173.102 115.628 171.113C115.528 169.993 115.238 168.893 115.048 167.783C114.713 166.288 114.971 164.721 115.768 163.413C116.066 163.05 116.281 162.627 116.398 162.173C116.516 161.719 116.533 161.244 116.448 160.783C116.353 160.38 116.11 160.027 115.768 159.794C115.425 159.561 115.008 159.464 114.598 159.523C112.476 159.863 110.47 160.722 108.758 162.023C106.917 163.322 105.379 165.004 104.248 166.953C102.818 169.433 102.458 172.373 100.728 174.693C99.8124 175.702 99.1296 176.9 98.7284 178.203C98.4846 179.418 98.672 180.681 99.2584 181.773C99.5684 182.373 100.468 181.843 100.168 181.243L100.098 181.263Z" fill="#3B3B3B"/>
<path d="M83.2886 196.793C90.2824 197.145 97.2937 196.871 104.239 195.973C104.899 195.893 104.909 194.843 104.239 194.923C97.2937 195.821 90.2824 196.095 83.2886 195.743C82.6086 195.743 82.6086 196.743 83.2886 196.793Z" fill="#3B3B3B"/>
<path d="M82.7385 196.413C84.3885 201.193 85.9585 206.003 87.2285 210.903C87.2713 211.029 87.3607 211.133 87.4784 211.195C87.5961 211.257 87.733 211.272 87.8611 211.236C87.9892 211.2 88.0987 211.117 88.167 211.003C88.2354 210.888 88.2574 210.752 88.2285 210.623C86.9685 205.723 85.3885 200.913 83.7385 196.133C83.5185 195.503 82.5085 195.773 82.7385 196.413Z" fill="#3B3B3B"/>
<path d="M104.069 195.323C102.369 200.236 100.872 205.206 99.5785 210.233C99.5497 210.363 99.5717 210.499 99.6401 210.613C99.7084 210.727 99.8179 210.811 99.946 210.846C100.074 210.882 100.211 210.868 100.329 210.806C100.446 210.744 100.536 210.639 100.579 210.513C101.879 205.48 103.375 200.51 105.069 195.603C105.289 194.963 104.279 194.683 104.069 195.323Z" fill="#3B3B3B"/>
<path d="M85.9285 198.893C86.4549 201.156 87.1229 203.383 87.9285 205.563C88.1585 206.193 89.1785 205.923 88.9285 205.283C88.1229 203.103 87.4549 200.876 86.9285 198.613C86.7785 197.953 85.7585 198.233 85.9285 198.893Z" fill="#3B3B3B"/>
<path d="M88.5884 207.583L89.1384 209.333C89.1537 209.402 89.183 209.467 89.2243 209.524C89.2657 209.582 89.3183 209.63 89.3789 209.666C89.4395 209.703 89.5069 209.726 89.5769 209.736C89.647 209.745 89.7182 209.74 89.7862 209.721C89.8543 209.702 89.9178 209.669 89.9728 209.625C90.0277 209.58 90.0731 209.525 90.1061 209.463C90.139 209.4 90.1588 209.332 90.1644 209.261C90.17 209.191 90.1611 209.12 90.1384 209.053C89.9584 208.473 89.7684 207.893 89.5884 207.303C89.5489 207.172 89.4602 207.061 89.3409 206.994C89.2216 206.927 89.0809 206.909 88.9484 206.943C88.8819 206.96 88.8195 206.991 88.7648 207.032C88.7101 207.074 88.6643 207.126 88.6299 207.186C88.5955 207.245 88.5732 207.311 88.5644 207.379C88.5555 207.447 88.5603 207.517 88.5784 207.583H88.5884Z" fill="#3B3B3B"/>
<path d="M19.3785 137.503C28.2426 137.503 35.4285 130.317 35.4285 121.453C35.4285 112.589 28.2426 105.403 19.3785 105.403C10.5143 105.403 3.32849 112.589 3.32849 121.453C3.32849 130.317 10.5143 137.503 19.3785 137.503Z" fill="#AEC9FF"/>
<path d="M18.3884 138.313C13.8854 138.309 9.55513 136.58 6.28771 133.481C3.02028 130.382 1.06398 126.15 0.82097 121.653C0.577962 117.157 2.06668 112.738 4.98113 109.306C7.89557 105.873 12.0143 103.687 16.4906 103.197C20.967 102.708 25.4608 103.952 29.0483 106.673C32.6359 109.395 35.0446 113.387 35.7793 117.83C36.5141 122.273 35.519 126.828 32.9986 130.559C30.4782 134.291 26.6241 136.915 22.2284 137.893C20.9672 138.17 19.6798 138.311 18.3884 138.313ZM18.3884 103.943C14.9151 103.94 11.5268 105.016 8.69121 107.022C5.85567 109.028 3.71289 111.865 2.55882 115.141C1.40476 118.417 1.29632 121.97 2.24852 125.311C3.20073 128.651 5.16658 131.613 7.87456 133.788C10.5825 135.963 13.899 137.243 17.366 137.453C20.833 137.662 24.2795 136.789 27.2293 134.956C30.1791 133.122 32.4868 130.418 33.8337 127.216C35.1806 124.015 35.5003 120.474 34.7485 117.083C33.9442 113.363 31.8902 110.03 28.9282 107.639C25.9662 105.248 22.2749 103.944 18.4684 103.943H18.3884Z" fill="#3B3B3B"/>
</svg>
