<svg width="101" height="101" viewBox="0 0 101 101" fill="none" xmlns="http://www.w3.org/2000/svg">
<path d="M84.8029 63.6383L67.8029 70.8201C67.8332 70.608 67.8635 70.3959 67.8635 70.1686C67.8635 66.8655 65.1817 64.1837 61.8786 64.1837H49.6362C49.1362 64.1837 48.6514 64.0777 48.1968 63.8655L37.818 59.1686C36.1968 58.4413 34.3938 58.0474 32.6211 58.0474H24.1665V61.0777H32.6211C33.9696 61.0777 35.3332 61.3655 36.5756 61.9262L46.9544 66.6231C47.8029 67.0019 48.712 67.1989 49.6514 67.1989H61.8938C63.5302 67.1989 64.8483 68.5322 64.8483 70.1534C64.8483 71.7746 63.515 73.108 61.8938 73.108H46.0302V76.1383H61.8786C62.9241 76.1383 63.8938 75.8504 64.7423 75.3807V75.3959L85.9696 66.411C87.7271 65.6686 89.6514 65.6837 91.3938 66.4413C92.7271 67.0322 93.818 67.9868 94.5453 69.2292L57.0756 89.108C54.212 90.6231 50.8029 90.9262 47.712 89.9413L29.3786 84.0474L24.1514 83.9716V87.0019H28.6817L46.7877 92.8201C48.2877 93.3049 49.8332 93.5322 51.3938 93.5322C53.8483 93.5322 56.3029 92.9413 58.4847 91.7746L98.409 70.6231L97.9696 69.3807C97.0453 66.8049 95.1362 64.7746 92.6211 63.6686C90.1059 62.5928 87.3332 62.5625 84.8029 63.6383Z" fill="#005BF3"/>
<path d="M20.8787 89.3808V57.2141C20.8787 55.5475 19.5151 54.1838 17.8484 54.1838H2.59082V57.2141H17.8484V89.396H2.59082V92.4263H17.8484C19.5151 92.4111 20.8787 91.0475 20.8787 89.3808Z" fill="#005BF3"/>
<path d="M13.863 84.6686C13.863 85.8353 12.9085 86.7898 11.7418 86.7898C10.56 86.7898 9.60547 85.8353 9.60547 84.6686C9.60547 83.4868 10.56 82.5322 11.7418 82.5322C12.9085 82.5322 13.863 83.4868 13.863 84.6686Z" fill="#005BF3"/>
<path d="M38.439 43.608L40.0753 44.8201L51.348 38.5777L61.545 44.714L62.4238 45.2292L64.0602 44.0474L61.6056 31.411L70.6208 23.5928L71.348 22.8958L70.7117 21.0171L57.9541 19.4413L53.3177 8.47161L52.8935 7.56251L51.9238 7.54736H50.8935L45.4541 19.2292L33.5753 20.2292L32.5602 20.3504L31.9541 22.2443L41.3632 31.0171L38.439 43.608ZM37.1511 22.9716L46.5753 22.1534L47.4693 22.0474L51.8177 12.714L55.4996 21.3958L55.8783 22.2292L66.1208 23.4868L59.0299 29.6383L58.3177 30.2443L60.2874 40.3959L52.1662 35.5019L51.3935 35.0928L42.4086 40.0777L44.5147 30.9868L44.7723 30.0474L37.1511 22.9716Z" fill="#005BF3"/>
<path d="M18.5141 38.0172L16.3171 47.4566L16.0141 48.5475L17.7262 49.8051L27.1656 44.5778L35.4989 49.5778L36.4383 50.1687L38.1201 48.9414L36.0595 38.3505L38.2565 36.4566L36.2717 34.1687L33.3474 36.699L32.908 37.2142V37.8202L34.3323 45.3505L28.1808 41.6384L27.8626 41.3354L26.5747 41.3051L26.2717 41.6081L19.9838 45.0929L21.6808 37.7293V36.8354L15.7868 31.3505L22.9989 30.7142L23.6959 30.699L24.3323 30.0626L27.5595 23.1233L30.4686 29.9869L30.9383 30.8808H31.7868L35.4383 31.3354L35.8171 28.3202L32.8929 27.9717L29.0444 18.8808L28.5292 17.9111L26.4383 18.0778L26.1505 18.9717L22.0595 27.7748L12.4232 28.6081L11.2262 28.6687L10.5898 30.8808L11.4232 31.4263L18.5141 38.0172Z" fill="#005BF3"/>
<path d="M68.3184 27.9717L68.5912 30.9868L71.5154 30.7141L72.1972 30.6838L72.8336 30.0474L76.0609 23.108L78.8336 29.6383L78.8639 30.8656H80.2881L87.5154 31.7596L81.8942 36.6383L81.3942 37.1687V37.8202L82.8336 45.3353L76.6669 41.6383L76.3487 41.3202L75.0154 41.3353L74.7427 41.6232L68.4851 45.0929L70.1972 37.7293L70.1821 36.8353L66.3033 33.2141L64.2275 35.4262L67.0003 38.0171L64.8184 47.4565L64.5154 48.4717L66.1669 49.8353L75.6669 44.5777L84.0154 49.5929L84.9548 50.1686L86.6063 48.9262L84.5457 38.3505L91.8336 32.0323C92.3336 31.6383 92.5457 30.9717 92.379 30.3656L92.0306 29.2899L81.3942 27.9868L77.5154 18.8656L77.0609 18.0323L75.2578 17.9717L74.7881 18.7141L70.5457 27.7747L68.3184 27.9717Z" fill="#005BF3"/>
</svg>
