<svg width="30" height="30" viewBox="0 0 30 30" fill="none" xmlns="http://www.w3.org/2000/svg">
<path d="M3.00134 4.18705V25.7415C3.00134 26.3971 3.53502 26.9286 4.19327 26.9286H25.7919C26.4502 26.9286 26.9838 26.3971 26.9838 25.7415V4.18705C26.9839 3.53147 26.4502 3 25.7919 3H4.19332C3.53502 3 3.00134 3.53147 3.00134 4.18705Z" fill="#00DF76"/>
<path d="M25.7917 3H14.9747V26.9285H25.7917C26.45 26.9285 26.9836 26.3971 26.9836 25.7415V4.18705C26.9836 3.53147 26.45 3 25.7917 3V3Z" fill="#00AB5E"/>
<path d="M15.053 14.8955L4.00439 26.8207V26.9283H25.5283L15.053 14.8955Z" fill="#7FB9FF"/>
<path d="M26.3253 26.9286C26.689 26.9286 26.9838 26.635 26.9838 26.2729V4.0392L26.3498 3.55176L14.4923 14.4612L26.3253 26.9286Z" fill="#DFEBF1"/>
<path d="M12.7369 9.03249H10.5413C10.1292 9.03249 9.79517 9.36521 9.79517 9.77561C9.79517 10.186 10.1292 10.5187 10.5413 10.5187H11.8737C11.7533 10.8906 11.5424 11.2302 11.251 11.5114C10.7699 11.9758 10.1255 12.2314 9.43662 12.2314C8.02826 12.2314 6.88252 11.1136 6.88252 9.7397C6.88252 8.36575 8.02826 7.24796 9.43662 7.24796C10.0543 7.24796 10.6503 7.4658 11.1149 7.86139C11.4281 8.12799 11.8991 8.09142 12.1669 7.77943C12.4347 7.46753 12.3979 6.99842 12.0847 6.73173C11.35 6.10625 10.4096 5.76172 9.43657 5.76172C7.20534 5.76172 5.39014 7.54621 5.39014 9.7397C5.39014 11.9332 7.20538 13.7177 9.43657 13.7177C10.5153 13.7177 11.5285 13.3132 12.2895 12.5787C13.0592 11.8359 13.4831 10.8404 13.4831 9.77566C13.4831 9.36521 13.149 9.03249 12.7369 9.03249Z" fill="white"/>
<path d="M14.9747 26.9283H25.5282L15.0529 14.8955L14.9747 14.9799V26.9283Z" fill="#0080FF"/>
<path d="M26.9838 26.2915L15.5476 14.4663C15.2576 14.1747 14.7851 14.1724 14.4923 14.4613C14.1996 14.75 14.1973 15.2205 14.4873 15.5121L25.5283 26.9287H26.3439C26.6973 26.9287 26.9838 26.6434 26.9838 26.2915Z" fill="#FFF5F5"/>
<path d="M18.4122 20.8793L21.8656 26.7445C22.0653 27.0837 22.5554 27.0854 22.7574 26.7476L26.3005 20.8245C26.7574 20.0607 26.9987 19.1873 26.9987 18.2973V18.0945C26.9987 15.5861 24.9777 13.5651 22.4849 13.5654H22.3453C19.7755 13.5657 17.6924 15.649 17.6924 18.2188V18.2381C17.6923 19.1669 17.9409 20.0789 18.4122 20.8793Z" fill="#FF0125"/>
<path d="M22.4848 13.5645H22.3452C22.3441 13.5645 22.343 13.5645 22.3419 13.5645V26.9972C22.504 26.9881 22.6624 26.9053 22.7573 26.7467L26.3004 20.8236C26.7573 20.0598 26.9986 19.1864 26.9986 18.2963V18.0935C26.9986 15.5852 24.9776 13.5642 22.4848 13.5645Z" fill="#BE2342"/>
<path d="M22.3455 20.054C23.3556 20.054 24.1745 19.2351 24.1745 18.225C24.1745 17.2149 23.3556 16.396 22.3455 16.396C21.3353 16.396 20.5165 17.2149 20.5165 18.225C20.5165 19.2351 21.3353 20.054 22.3455 20.054Z" fill="white"/>
<path d="M22.3454 16.396C22.3443 16.396 22.3431 16.3961 22.3419 16.3961V20.0539C22.3431 20.0539 22.3443 20.054 22.3454 20.054C23.3556 20.054 24.1744 19.2351 24.1744 18.225C24.1744 17.2149 23.3556 16.396 22.3454 16.396Z" fill="#FFF5F5"/>
<path d="M26.9839 4.05192V4.04995C26.9839 3.47005 26.5118 3 25.9296 3L3.00134 25.8767V26.0043C3.00134 26.5148 3.41686 26.9285 3.92939 26.9285H4.05561L26.9839 4.05192Z" fill="#FFE107"/>
<path d="M25.9294 3L14.9747 13.93V16.0338L26.9836 4.05192V4.04995C26.9836 3.47005 26.5116 3 25.9294 3Z" fill="#FFC125"/>
</svg>
