<svg width="119" height="16" viewBox="0 0 119 16" fill="none" xmlns="http://www.w3.org/2000/svg">
<path d="M64.6122 15.0221V14.2966C64.5109 14.382 64.4039 14.4605 64.2921 14.5315C63.5784 14.9035 62.788 15.1046 61.9833 15.119C61.3615 15.1346 60.7428 15.0256 60.1638 14.7985C59.5847 14.5713 59.057 14.2305 58.6117 13.7963C58.1664 13.362 57.8125 12.843 57.5709 12.2698C57.3292 11.6967 57.2047 11.0809 57.2047 10.4589C57.2047 9.8369 57.3292 9.22119 57.5709 8.64803C57.8125 8.07487 58.1664 7.55587 58.6117 7.1216C59.057 6.68733 59.5847 6.34656 60.1638 6.11939C60.7428 5.89221 61.3615 5.78322 61.9833 5.79883C63.2016 5.78267 64.3798 6.23359 65.2761 7.05896C66.1954 7.89316 66.6654 9.04755 66.6654 10.5221V15.0103L64.6122 15.0221ZM61.9686 13.1628C62.5039 13.1756 63.0309 13.0286 63.4823 12.7405C63.9336 12.4525 64.2889 12.0364 64.5027 11.5455C64.7165 11.0546 64.7792 10.5111 64.6826 9.98446C64.5861 9.45778 64.3348 8.97181 63.9608 8.58862C63.5869 8.20543 63.1071 7.94241 62.5829 7.83313C62.0588 7.72385 61.5139 7.77329 61.018 7.97512C60.522 8.17695 60.0974 8.52202 59.7985 8.96626C59.4996 9.4105 59.3399 9.93375 59.3397 10.4692C59.3273 10.822 59.3868 11.1737 59.5146 11.5028C59.6425 11.8319 59.8359 12.1316 60.0832 12.3836C60.3305 12.6355 60.6265 12.8345 60.9531 12.9685C61.2798 13.1024 61.6303 13.1685 61.9833 13.1628H61.9686Z" fill="#005BF3"/>
<path d="M29.8125 15.0221V14.2966C29.7112 14.382 29.6042 14.4605 29.4923 14.5315C28.7786 14.9035 27.9883 15.1046 27.1836 15.119C26.5618 15.1346 25.9431 15.0256 25.3641 14.7985C24.785 14.5713 24.2573 14.2305 23.812 13.7963C23.3667 13.362 23.0128 12.843 22.7712 12.2698C22.5295 11.6967 22.405 11.0809 22.405 10.4589C22.405 9.8369 22.5295 9.22119 22.7712 8.64803C23.0128 8.07487 23.3667 7.55587 23.812 7.1216C24.2573 6.68733 24.785 6.34656 25.3641 6.11939C25.9431 5.89221 26.5618 5.78322 27.1836 5.79883C28.4019 5.78267 29.5801 6.23359 30.4763 7.05896C31.3957 7.89316 31.8657 9.04755 31.8657 10.5221V15.0103L29.8125 15.0221ZM27.1689 13.1628C27.7042 13.1756 28.2312 13.0286 28.6825 12.7405C29.1339 12.4525 29.4892 12.0364 29.703 11.5455C29.9168 11.0546 29.9795 10.5111 29.8829 9.98446C29.7864 9.45778 29.5351 8.97181 29.1611 8.58862C28.7871 8.20543 28.3074 7.94241 27.7832 7.83313C27.2591 7.72385 26.7142 7.77329 26.2182 7.97512C25.7223 8.17695 25.2977 8.52202 24.9988 8.96626C24.6999 9.4105 24.5401 9.93375 24.54 10.4692C24.5276 10.822 24.5871 11.1737 24.7149 11.5028C24.8428 11.8319 25.0362 12.1316 25.2835 12.3836C25.5308 12.6355 25.8268 12.8345 26.1534 12.9685C26.4801 13.1024 26.8306 13.1685 27.1836 13.1628H27.1689Z" fill="#005BF3"/>
<path d="M14.0594 0.803223V6.53397C14.6562 6.12377 15.3649 5.90737 16.0891 5.91419C16.5745 5.90547 17.0562 5.99995 17.5023 6.19136C17.9484 6.38277 18.3488 6.66676 18.6769 7.02452C19.4024 7.75298 19.7667 8.81922 19.7667 10.2086V15.1257L17.7105 15.1257V10.2086C17.7105 8.66941 16.985 7.87925 15.8718 7.87925C14.7585 7.87925 14.0565 8.64885 14.0565 10.2086V15.1257H12.0003L12.0003 0.803223L14.0594 0.803223Z" fill="#005BF3"/>
<path d="M53.3977 7.15971C52.6524 6.4723 51.6756 6.09062 50.6616 6.09062C49.6476 6.09062 48.6709 6.4723 47.9255 7.15971C47.8873 7.19495 47.8521 7.23608 47.8168 7.27427C47.7786 7.23608 47.7434 7.19495 47.7052 7.15971C46.9593 6.4721 45.982 6.09033 44.9676 6.09033C43.9531 6.09033 42.9758 6.4721 42.23 7.15971C41.4839 7.86467 41.0991 8.92211 41.0991 10.3908V15.3079H43.1553V10.3908C43.1553 8.85161 43.8631 8.06145 44.9734 8.06145C46.0338 8.06145 46.7358 8.80166 46.8063 10.1851C46.8063 10.2556 46.8063 10.3203 46.8063 10.3908V15.3079L48.8625 15.3079V10.3908C48.8625 10.3203 48.8625 10.2527 48.8625 10.1822C48.9242 8.78113 49.6145 8.06145 50.6748 8.06145C51.7851 8.06145 52.5107 8.87511 52.5107 10.3908V15.3079H54.5668V10.3908C54.5521 8.95442 54.1585 7.86467 53.3977 7.15971Z" fill="#005BF3"/>
<path d="M2.05614 9.2945L2.05614 15.1692H0L0 5.52881C0 4.06014 0.469968 2.89992 1.38935 2.06572C2.28453 1.24053 3.46181 0.78958 4.67919 0.805588C5.29262 0.803657 5.9004 0.922686 6.4678 1.15583C7.0352 1.38898 7.55107 1.73165 7.98592 2.16432C8.42077 2.59699 8.76609 3.11116 9.00208 3.67738C9.23808 4.2436 9.36013 4.85077 9.36129 5.4642C9.36965 6.08042 9.25411 6.69205 9.02152 7.26274C8.78892 7.83344 8.44402 8.35157 8.00729 8.78638C7.57056 9.22119 7.05092 9.56382 6.47921 9.7939C5.90749 10.024 5.29537 10.1368 4.67919 10.1257C3.86049 10.1377 3.05439 9.9232 2.34987 9.50598L2.05614 9.2945ZM4.69974 2.77359C4.16499 2.76367 3.63941 2.9132 3.18994 3.20307C2.74047 3.49295 2.38748 3.91009 2.17593 4.40131C1.96439 4.89254 1.90388 5.4356 2.0021 5.96134C2.10032 6.48709 2.35284 6.97168 2.72747 7.35339C3.1021 7.7351 3.58186 7.99664 4.10567 8.10468C4.62949 8.21272 5.17362 8.16239 5.66872 7.96007C6.16381 7.75776 6.58747 7.41262 6.88571 6.96865C7.18395 6.52468 7.34325 6.00198 7.34334 5.46714C7.35755 5.11261 7.2988 4.75895 7.17069 4.42806C7.04259 4.09718 6.84788 3.79614 6.59864 3.5436C6.34941 3.29106 6.05095 3.09238 5.72178 2.95993C5.39261 2.82748 5.03976 2.76405 4.68507 2.77359H4.69974Z" fill="#005BF3"/>
<path d="M36.5368 15.1961H34.5042V9.76788C34.5042 7.12428 35.9728 6.09033 37.9673 6.09033L38.4607 6.09033V8.05837H38.076C37.0479 8.05837 36.5368 8.64582 36.5368 9.76788V15.1961Z" fill="#005BF3"/>
<path d="M73.691 0.803223V2.77132H73.2622C72.2781 2.77132 71.7934 3.32649 71.7934 4.46034V6.02009H73.6969V7.98819H71.7934V15.1261H69.7372V4.48089C69.7372 1.85189 71.206 0.803223 73.2622 0.803223H73.691Z" fill="#3B3B3B"/>
<path d="M105.257 14.9024H103.224V9.47405C103.224 6.83037 104.693 5.79639 106.687 5.79639H107.181V7.76448H106.796C105.768 7.76448 105.257 8.35195 105.257 9.47405V14.9024Z" fill="#3B3B3B"/>
<path d="M90.4315 13.1897V15.1548H90.0056C87.9318 15.1548 86.4807 14.1297 86.4807 11.5007V1.97754H88.5105V6.03999H90.2729V8.00808H88.5105V11.4919C88.5105 12.6257 89.004 13.1809 90.0086 13.1809L90.4315 13.1897Z" fill="#3B3B3B"/>
<path d="M81.9015 5.79639H83.9577V10.7136C83.9577 12.1442 83.5729 13.2369 82.8033 13.9448C82.0574 14.6288 81.0831 15.0099 80.0711 15.0137C79.059 15.0175 78.082 14.6437 77.3309 13.9654C76.5848 13.2604 76.2 12.1706 76.2 10.7166V5.79933H78.2561V10.7166C78.2561 12.2558 78.9612 13.046 80.0744 13.046C81.1877 13.046 81.9133 12.2352 81.9133 10.7166L81.9015 5.79639Z" fill="#3B3B3B"/>
<path d="M98.6447 6.09082H100.701V11.0081C100.701 12.4386 100.316 13.5313 99.5465 14.2392C98.8006 14.9232 97.8263 15.3044 96.8143 15.3082C95.8022 15.312 94.8252 14.9382 94.0741 14.2598C93.328 13.5548 92.9432 12.465 92.9432 11.011V6.09376H94.9994V11.011C94.9994 12.5502 95.7044 13.3404 96.8177 13.3404C97.9309 13.3404 98.6565 12.5297 98.6565 11.011L98.6447 6.09082Z" fill="#3B3B3B"/>
<path d="M114.367 11.3346H118.949C118.949 11.3346 119.393 8.94938 117.657 7.16342C117.234 6.71929 116.722 6.36838 116.156 6.13317C115.589 5.89797 114.98 5.78364 114.367 5.79751C113.442 5.79553 112.538 6.06795 111.769 6.58028C110.999 7.09261 110.399 7.8218 110.044 8.67549C109.689 9.52918 109.596 10.469 109.775 11.3758C109.955 12.2827 110.4 13.1158 111.053 13.7697C111.935 14.6337 113.121 15.1176 114.355 15.1176C115.59 15.1176 116.775 14.6337 117.657 13.7697C118.075 13.3583 118.411 12.872 118.65 12.3362H116.3L116.241 12.4008C115.998 12.6458 115.708 12.8386 115.389 12.9675C115.069 13.0963 114.726 13.1584 114.382 13.1499C114.034 13.1568 113.688 13.0941 113.364 12.9654C113.041 12.8368 112.747 12.6449 112.499 12.4008C112.251 12.1426 112.057 11.8377 111.929 11.5038C111.8 11.17 111.739 10.8139 111.75 10.4563C111.738 10.1016 111.798 9.74811 111.927 9.41737C112.055 9.08664 112.25 8.78553 112.499 8.53227C112.743 8.28207 113.036 8.08466 113.36 7.95228C113.684 7.81991 114.032 7.75536 114.382 7.76263C114.728 7.7538 115.073 7.81775 115.393 7.95031C115.713 8.08287 116.002 8.28114 116.241 8.53227C116.501 8.80962 116.701 9.13758 116.828 9.49572H114.382L114.367 11.3346Z" fill="#3B3B3B"/>
</svg>
