<svg width="220" height="27" viewBox="0 0 220 27" fill="none" xmlns="http://www.w3.org/2000/svg">
<path d="M119.452 26.2866V24.9453C119.264 25.1032 119.066 25.2483 118.86 25.3797C117.54 26.0674 116.079 26.4391 114.591 26.4657C113.442 26.4946 112.298 26.2932 111.227 25.8732C110.157 25.4532 109.181 24.8232 108.358 24.0203C107.535 23.2175 106.881 22.258 106.434 21.1984C105.987 20.1387 105.757 19.0004 105.757 17.8504C105.757 16.7005 105.987 15.5622 106.434 14.5026C106.881 13.443 107.535 12.4835 108.358 11.6806C109.181 10.8777 110.157 10.2477 111.227 9.82776C112.298 9.40778 113.442 9.20627 114.591 9.23514C116.844 9.20526 119.022 10.0389 120.679 11.5648C122.378 13.107 123.247 15.2412 123.247 17.9672V26.2648L119.452 26.2866ZM114.564 22.8491C115.554 22.8729 116.528 22.6011 117.362 22.0686C118.197 21.5361 118.854 20.7669 119.249 19.8593C119.644 18.9518 119.76 17.947 119.582 16.9733C119.403 15.9996 118.939 15.1012 118.247 14.3927C117.556 13.6843 116.669 13.1981 115.7 12.996C114.731 12.794 113.724 12.8854 112.807 13.2585C111.89 13.6317 111.105 14.2696 110.552 15.0909C110 15.9122 109.704 16.8795 109.704 17.8695C109.681 18.5218 109.791 19.1719 110.027 19.7804C110.264 20.3888 110.621 20.9428 111.078 21.4086C111.536 21.8745 112.083 22.2423 112.687 22.49C113.291 22.7376 113.939 22.8599 114.591 22.8491H114.564Z" fill="#005BF3"/>
<path d="M55.1158 26.2866V24.9453C54.9285 25.1032 54.7307 25.2483 54.5239 25.3797C53.2044 26.0674 51.7433 26.4391 50.2556 26.4657C49.106 26.4946 47.9623 26.2932 46.8918 25.8732C45.8213 25.4532 44.8457 24.8232 44.0224 24.0203C43.1991 23.2175 42.5449 22.258 42.0981 21.1984C41.6514 20.1387 41.4213 19.0004 41.4213 17.8504C41.4213 16.7005 41.6514 15.5622 42.0981 14.5026C42.5449 13.443 43.1991 12.4835 44.0224 11.6806C44.8457 10.8777 45.8213 10.2477 46.8918 9.82776C47.9623 9.40778 49.106 9.20627 50.2556 9.23514C52.5079 9.20526 54.6862 10.0389 56.3431 11.5648C58.0428 13.107 58.9117 15.2412 58.9117 17.9672V26.2648L55.1158 26.2866ZM50.2285 22.8491C51.2181 22.8729 52.1923 22.6011 53.0268 22.0686C53.8613 21.5361 54.5181 20.7669 54.9134 19.8593C55.3087 18.9518 55.4244 17.947 55.246 16.9733C55.0676 15.9996 54.603 15.1012 53.9116 14.3927C53.2202 13.6843 52.3333 13.1981 51.3642 12.996C50.3951 12.794 49.3878 12.8854 48.4709 13.2585C47.554 13.6317 46.7691 14.2696 46.2165 15.0909C45.6639 15.9122 45.3686 16.8795 45.3683 17.8695C45.3453 18.5218 45.4554 19.1719 45.6917 19.7804C45.928 20.3888 46.2856 20.9428 46.7428 21.4086C47.2 21.8745 47.7472 22.2423 48.3511 22.49C48.955 22.7376 49.603 22.8599 50.2556 22.8491H50.2285Z" fill="#005BF3"/>
<path d="M25.9923 0V10.5947C27.0956 9.83634 28.4059 9.43627 29.7447 9.44888C30.642 9.43276 31.5325 9.60743 32.3572 9.9613C33.182 10.3152 33.9222 10.8402 34.5288 11.5016C35.8701 12.8483 36.5435 14.8195 36.5435 17.3881V26.4786L32.7422 26.4786V17.3881C32.7422 14.5426 31.4009 13.0818 29.3428 13.0818C27.2847 13.0818 25.9868 14.5046 25.9868 17.3881V26.4786H22.1855L22.1855 0L25.9923 0Z" fill="#005BF3"/>
<path d="M98.7187 11.7509C97.3407 10.4801 95.5348 9.77446 93.6603 9.77446C91.7857 9.77446 89.9799 10.4801 88.6019 11.7509C88.5313 11.8161 88.4661 11.8921 88.401 11.9627C88.3304 11.8921 88.2652 11.8161 88.1946 11.7509C86.8157 10.4797 85.0089 9.77393 83.1335 9.77393C81.258 9.77393 79.4513 10.4797 78.0724 11.7509C76.6931 13.0542 75.9817 15.0092 75.9817 17.7243V26.8148H79.783V17.7243C79.783 14.8788 81.0917 13.418 83.1443 13.418C85.1047 13.418 86.4026 14.7865 86.5329 17.3442C86.5329 17.4745 86.5329 17.594 86.5329 17.7243V26.8148L90.3342 26.8148V17.7243C90.3342 17.594 90.3342 17.4691 90.3342 17.3388C90.4482 14.7485 91.7244 13.418 93.6847 13.418C95.7374 13.418 97.0787 14.9223 97.0787 17.7243V26.8148H100.88V17.7243C100.853 15.0689 100.125 13.0542 98.7187 11.7509Z" fill="#005BF3"/>
<path d="M3.80127 15.6946L3.80127 26.5554H0L0 8.7328C0 6.0176 0.868851 3.87265 2.56856 2.33042C4.2235 0.804851 6.40001 -0.0288334 8.65063 0.00076181C9.78471 -0.00280873 10.9083 0.217247 11.9573 0.648272C13.0063 1.0793 13.96 1.71282 14.7639 2.51271C15.5679 3.31261 16.2063 4.26317 16.6426 5.30997C17.0788 6.35677 17.3045 7.47927 17.3066 8.61334C17.3221 9.75257 17.1085 10.8833 16.6785 11.9384C16.2485 12.9935 15.6108 13.9514 14.8034 14.7552C13.996 15.5591 13.0354 16.1925 11.9784 16.6179C10.9214 17.0432 9.78978 17.2518 8.65063 17.2314C7.13706 17.2534 5.64678 16.8569 4.34431 16.0856L3.80127 15.6946ZM8.68862 3.63909C7.70001 3.62076 6.72835 3.89719 5.89739 4.4331C5.06644 4.96901 4.41384 5.7402 4.02274 6.64834C3.63165 7.55649 3.51978 8.56048 3.70137 9.53244C3.88296 10.5044 4.3498 11.4003 5.0424 12.106C5.735 12.8117 6.62195 13.2952 7.59034 13.4949C8.55874 13.6947 9.5647 13.6016 10.48 13.2276C11.3953 12.8535 12.1786 12.2155 12.7299 11.3947C13.2813 10.5739 13.5758 9.60756 13.576 8.61878C13.6022 7.96334 13.4936 7.30952 13.2568 6.69779C13.02 6.08607 12.66 5.52953 12.1992 5.06265C11.7384 4.59576 11.1867 4.22846 10.5781 3.9836C9.96956 3.73873 9.31723 3.62146 8.6615 3.63909H8.68862Z" fill="#005BF3"/>
<path d="M67.5472 26.6081H63.7893V16.5728C63.7893 11.6854 66.5045 9.77393 70.1918 9.77393L71.104 9.77393V13.4123H70.3927C68.492 13.4123 67.5472 14.4984 67.5472 16.5728V26.6081Z" fill="#005BF3"/>
<path d="M136.236 0V3.63851H135.443C133.624 3.63851 132.728 4.66488 132.728 6.76108V9.64466H136.247V13.2832H132.728V26.4794H128.927V6.79906C128.927 1.93872 131.642 0 135.443 0H136.236Z" fill="#3B3B3B"/>
<path d="M194.593 26.0671H190.835V16.0315C190.835 11.144 193.55 9.23242 197.237 9.23242H198.15V12.8709H197.438C195.538 12.8709 194.593 13.957 194.593 16.0315V26.0671Z" fill="#3B3B3B"/>
<path d="M167.185 22.9013V26.5343H166.397C162.563 26.5343 159.881 24.6391 159.881 19.7787V2.17285H163.633V9.68328H166.892V13.3218H163.633V19.7624C163.633 21.8586 164.546 22.885 166.403 22.885L167.185 22.9013Z" fill="#3B3B3B"/>
<path d="M151.415 9.23242H155.216V18.3232C155.216 20.9678 154.505 22.988 153.082 24.2968C151.703 25.5613 149.902 26.2659 148.031 26.273C146.16 26.28 144.353 25.5889 142.965 24.3348C141.586 23.0315 140.874 21.0167 140.874 18.3286V9.23786H144.676V18.3286C144.676 21.1742 145.979 22.635 148.037 22.635C150.095 22.635 151.437 21.1362 151.437 18.3286L151.415 9.23242Z" fill="#3B3B3B"/>
<path d="M182.369 9.77539H186.17V18.8661C186.17 21.5108 185.459 23.531 184.036 24.8397C182.657 26.1042 180.856 26.8089 178.985 26.8159C177.114 26.823 175.308 26.1319 173.919 24.8778C172.54 23.5745 171.828 21.5597 171.828 18.8716V9.78083H175.63V18.8716C175.63 21.7172 176.933 23.178 178.991 23.178C181.049 23.178 182.391 21.6792 182.391 18.8716L182.369 9.77539Z" fill="#3B3B3B"/>
<path d="M211.435 19.4711H219.907C219.907 19.4711 220.727 15.0615 217.518 11.7597C216.735 10.9386 215.79 10.2899 214.743 9.85505C213.696 9.42022 212.569 9.20886 211.435 9.23451C209.726 9.23085 208.054 9.73447 206.632 10.6816C205.209 11.6288 204.099 12.9769 203.443 14.5551C202.787 16.1334 202.615 17.8708 202.947 19.5474C203.279 21.2239 204.101 22.7642 205.31 23.973C206.94 25.5704 209.131 26.465 211.414 26.465C213.696 26.465 215.887 25.5704 217.518 23.973C218.29 23.2124 218.912 22.3134 219.353 21.3229H215.009L214.9 21.4424C214.452 21.8953 213.915 22.2518 213.324 22.4899C212.733 22.728 212.1 22.8428 211.462 22.8272C210.819 22.84 210.18 22.724 209.582 22.4862C208.984 22.2484 208.44 21.8935 207.981 21.4424C207.524 20.965 207.166 20.4012 206.928 19.784C206.69 19.1668 206.577 18.5085 206.597 17.8474C206.575 17.1916 206.686 16.5382 206.924 15.9267C207.162 15.3153 207.522 14.7586 207.981 14.2904C208.434 13.8278 208.976 13.4628 209.574 13.2181C210.173 12.9734 210.816 12.8541 211.462 12.8675C212.103 12.8512 212.74 12.9694 213.332 13.2145C213.924 13.4596 214.458 13.8261 214.9 14.2904C215.381 14.8031 215.75 15.4094 215.986 16.0716H211.462L211.435 19.4711Z" fill="#3B3B3B"/>
</svg>
