<svg width="220" height="27" viewBox="0 0 220 27" fill="none" xmlns="http://www.w3.org/2000/svg">
<path d="M119.452 26.2867V24.9454C119.264 25.1033 119.066 25.2484 118.86 25.3798C117.54 26.0675 116.079 26.4393 114.591 26.4659C113.442 26.4947 112.298 26.2933 111.227 25.8733C110.157 25.4533 109.181 24.8233 108.358 24.0205C107.535 23.2176 106.881 22.2581 106.434 21.1985C105.987 20.1389 105.757 19.0005 105.757 17.8506C105.757 16.7006 105.987 15.5623 106.434 14.5027C106.881 13.4431 107.535 12.4836 108.358 11.6807C109.181 10.8779 110.157 10.2479 111.227 9.8279C112.298 9.40792 113.442 9.20641 114.591 9.23528C116.844 9.2054 119.022 10.039 120.679 11.5649C122.378 13.1072 123.247 15.2413 123.247 17.9674V26.265L119.452 26.2867ZM114.564 22.8493C115.554 22.873 116.528 22.6013 117.362 22.0687C118.197 21.5362 118.854 20.767 119.249 19.8595C119.644 18.9519 119.76 17.9471 119.582 16.9734C119.403 15.9997 118.939 15.1013 118.247 14.3929C117.556 13.6845 116.669 13.1982 115.7 12.9962C114.731 12.7942 113.724 12.8855 112.807 13.2587C111.89 13.6318 111.105 14.2697 110.552 15.091C110 15.9123 109.704 16.8797 109.704 17.8696C109.681 18.5219 109.791 19.1721 110.027 19.7805C110.264 20.3889 110.621 20.9429 111.078 21.4088C111.536 21.8746 112.083 22.2425 112.687 22.4901C113.291 22.7378 113.939 22.86 114.591 22.8493H114.564Z" fill="#005BF3"/>
<path d="M55.1158 26.2867V24.9454C54.9285 25.1033 54.7307 25.2484 54.5239 25.3798C53.2044 26.0675 51.7433 26.4393 50.2556 26.4659C49.106 26.4947 47.9623 26.2933 46.8918 25.8733C45.8213 25.4533 44.8457 24.8233 44.0224 24.0205C43.1991 23.2176 42.5449 22.2581 42.0981 21.1985C41.6514 20.1389 41.4213 19.0005 41.4213 17.8506C41.4213 16.7006 41.6514 15.5623 42.0981 14.5027C42.5449 13.4431 43.1991 12.4836 44.0224 11.6807C44.8457 10.8779 45.8213 10.2479 46.8918 9.8279C47.9623 9.40792 49.106 9.20641 50.2556 9.23528C52.5079 9.2054 54.6862 10.039 56.3431 11.5649C58.0428 13.1072 58.9117 15.2413 58.9117 17.9674V26.265L55.1158 26.2867ZM50.2285 22.8493C51.2181 22.873 52.1923 22.6013 53.0268 22.0687C53.8613 21.5362 54.5181 20.767 54.9134 19.8595C55.3087 18.9519 55.4244 17.9471 55.246 16.9734C55.0676 15.9997 54.603 15.1013 53.9116 14.3929C53.2202 13.6845 52.3333 13.1982 51.3642 12.9962C50.3951 12.7942 49.3878 12.8855 48.4709 13.2587C47.554 13.6318 46.7691 14.2697 46.2165 15.091C45.6639 15.9123 45.3686 16.8797 45.3683 17.8696C45.3453 18.5219 45.4554 19.1721 45.6917 19.7805C45.928 20.3889 46.2856 20.9429 46.7428 21.4088C47.2 21.8746 47.7472 22.2425 48.3511 22.4901C48.955 22.7378 49.603 22.86 50.2556 22.8493H50.2285Z" fill="#005BF3"/>
<path d="M25.9923 0V10.5947C27.0956 9.83634 28.4059 9.43627 29.7447 9.44888C30.642 9.43276 31.5325 9.60743 32.3572 9.9613C33.182 10.3152 33.9222 10.8402 34.5288 11.5016C35.8701 12.8483 36.5435 14.8195 36.5435 17.3881V26.4786L32.7422 26.4786V17.3881C32.7422 14.5426 31.4009 13.0818 29.3428 13.0818C27.2847 13.0818 25.9868 14.5046 25.9868 17.3881V26.4786H22.1855L22.1855 0L25.9923 0Z" fill="#005BF3"/>
<path d="M98.7187 11.751C97.3407 10.4801 95.5348 9.7745 93.6603 9.7745C91.7857 9.7745 89.9799 10.4801 88.6019 11.751C88.5313 11.8161 88.4661 11.8922 88.401 11.9628C88.3304 11.8922 88.2652 11.8161 88.1946 11.751C86.8157 10.4798 85.0089 9.77397 83.1335 9.77397C81.258 9.77397 79.4513 10.4798 78.0724 11.751C76.6931 13.0543 75.9817 15.0092 75.9817 17.7244V26.8149H79.783V17.7244C79.783 14.8789 81.0917 13.4181 83.1443 13.4181C85.1047 13.4181 86.4026 14.7865 86.5329 17.3442C86.5329 17.4746 86.5329 17.5941 86.5329 17.7244V26.8149L90.3342 26.8149V17.7244C90.3342 17.5941 90.3342 17.4692 90.3342 17.3389C90.4482 14.7486 91.7244 13.4181 93.6847 13.4181C95.7374 13.4181 97.0787 14.9223 97.0787 17.7244V26.8149H100.88V17.7244C100.853 15.0689 100.125 13.0543 98.7187 11.751Z" fill="#005BF3"/>
<path d="M3.80127 15.6946L3.80127 26.5554H0L0 8.7328C0 6.0176 0.868851 3.87265 2.56856 2.33042C4.2235 0.804851 6.40001 -0.0288334 8.65063 0.00076181C9.78471 -0.00280873 10.9083 0.217247 11.9573 0.648272C13.0063 1.0793 13.96 1.71282 14.7639 2.51271C15.5679 3.31261 16.2063 4.26317 16.6426 5.30997C17.0788 6.35677 17.3045 7.47927 17.3066 8.61334C17.3221 9.75257 17.1085 10.8833 16.6785 11.9384C16.2485 12.9935 15.6108 13.9514 14.8034 14.7552C13.996 15.5591 13.0354 16.1925 11.9784 16.6179C10.9214 17.0432 9.78978 17.2518 8.65063 17.2314C7.13706 17.2534 5.64678 16.8569 4.34431 16.0856L3.80127 15.6946ZM8.68862 3.63909C7.70001 3.62076 6.72835 3.89719 5.89739 4.4331C5.06644 4.96901 4.41384 5.7402 4.02274 6.64834C3.63165 7.55649 3.51978 8.56048 3.70137 9.53244C3.88296 10.5044 4.3498 11.4003 5.0424 12.106C5.735 12.8117 6.62195 13.2952 7.59034 13.4949C8.55874 13.6947 9.5647 13.6016 10.48 13.2276C11.3953 12.8535 12.1786 12.2155 12.7299 11.3947C13.2813 10.5739 13.5758 9.60756 13.576 8.61878C13.6022 7.96334 13.4936 7.30952 13.2568 6.69779C13.02 6.08607 12.66 5.52953 12.1992 5.06265C11.7384 4.59576 11.1867 4.22846 10.5781 3.9836C9.96956 3.73873 9.31723 3.62146 8.6615 3.63909H8.68862Z" fill="#005BF3"/>
<path d="M67.5472 26.6082H63.7893V16.5728C63.7893 11.6855 66.5045 9.77397 70.1918 9.77397L71.104 9.77397V13.4124H70.3927C68.492 13.4124 67.5472 14.4984 67.5472 16.5728V26.6082Z" fill="#005BF3"/>
<path d="M136.236 0V3.63851H135.443C133.624 3.63851 132.728 4.66488 132.728 6.76108V9.64466H136.247V13.2832H132.728V26.4794H128.927V6.79906C128.927 1.93872 131.642 0 135.443 0H136.236Z" fill="white"/>
<path d="M194.593 26.0673H190.835V16.0316C190.835 11.1441 193.55 9.23256 197.237 9.23256H198.15V12.8711H197.438C195.538 12.8711 194.593 13.9572 194.593 16.0316V26.0673Z" fill="white"/>
<path d="M167.185 22.9012V26.5342H166.397C162.563 26.5342 159.881 24.639 159.881 19.7787V2.17279H163.633V9.68322H166.892V13.3217H163.633V19.7624C163.633 21.8585 164.546 22.8849 166.403 22.8849L167.185 22.9012Z" fill="white"/>
<path d="M151.415 9.23256H155.216V18.3233C155.216 20.968 154.505 22.9881 153.082 24.2969C151.703 25.5614 149.902 26.2661 148.031 26.2731C146.16 26.2801 144.353 25.5891 142.965 24.335C141.586 23.0316 140.874 21.0169 140.874 18.3287V9.238H144.676V18.3287C144.676 21.1743 145.979 22.6352 148.037 22.6352C150.095 22.6352 151.437 21.1363 151.437 18.3287L151.415 9.23256Z" fill="white"/>
<path d="M182.369 9.7754H186.17V18.8661C186.17 21.5108 185.459 23.531 184.036 24.8397C182.657 26.1042 180.856 26.8089 178.985 26.8159C177.114 26.823 175.308 26.1319 173.919 24.8778C172.54 23.5745 171.828 21.5597 171.828 18.8716V9.78084H175.63V18.8716C175.63 21.7172 176.933 23.178 178.991 23.178C181.049 23.178 182.391 21.6792 182.391 18.8716L182.369 9.7754Z" fill="white"/>
<path d="M211.435 19.4712H219.907C219.907 19.4712 220.727 15.0616 217.518 11.7599C216.735 10.9388 215.79 10.29 214.743 9.8552C213.696 9.42036 212.569 9.209 211.435 9.23465C209.726 9.23099 208.054 9.73461 206.632 10.6818C205.209 11.6289 204.099 12.977 203.443 14.5553C202.787 16.1335 202.615 17.871 202.947 19.5475C203.279 21.2241 204.101 22.7643 205.31 23.9732C206.94 25.5705 209.131 26.4652 211.414 26.4652C213.696 26.4652 215.887 25.5705 217.518 23.9732C218.29 23.2125 218.912 22.3136 219.353 21.3231H215.009L214.9 21.4425C214.452 21.8954 213.915 22.2519 213.324 22.49C212.733 22.7282 212.1 22.843 211.462 22.8273C210.819 22.8401 210.18 22.7241 209.582 22.4863C208.984 22.2485 208.44 21.8936 207.981 21.4425C207.524 20.9651 207.166 20.4014 206.928 19.7842C206.69 19.167 206.577 18.5086 206.597 17.8475C206.575 17.1917 206.686 16.5383 206.924 15.9268C207.162 15.3154 207.522 14.7587 207.981 14.2905C208.434 13.828 208.976 13.463 209.574 13.2183C210.173 12.9735 210.816 12.8542 211.462 12.8677C212.103 12.8513 212.74 12.9695 213.332 13.2146C213.924 13.4597 214.458 13.8262 214.9 14.2905C215.381 14.8033 215.75 15.4096 215.986 16.0717H211.462L211.435 19.4712Z" fill="white"/>
</svg>
