<svg width="226" height="78" viewBox="0 0 226 78" fill="none" xmlns="http://www.w3.org/2000/svg">
<g opacity="0.45">
<path d="M18.4208 38.0063L28.2013 19.3229L34.4583 31.3965L31.1111 38.0063H18.4208Z" fill="white"/>
<path d="M37.2806 0.815994L30.9333 13.066L49.882 50.5202L55.9625 37.9174L37.2806 0.815994Z" fill="white"/>
<path d="M52.7902 19.9397L62.3096 1.07997L80.9902 38.0064H68.4763L62.1318 25.58L59.0471 32.0133L52.7902 19.9397Z" fill="white"/>
<path d="M4.00429 64.9911L3.80151 64.6147L2.12373 61.5591V67.0688H0.125122V57.3689H1.95151L4.86123 62.6758L7.75568 57.3689H9.60429V67.0661H7.60846V61.5272L5.91401 64.6147L5.71123 64.9911H4.00429Z" fill="white"/>
<path d="M27.7167 57.3689C28.2067 57.3674 28.6948 57.428 29.1695 57.5494C29.6398 57.6699 30.089 57.8615 30.5015 58.1175C30.9151 58.3714 31.2843 58.6914 31.5945 59.0647C31.9241 59.4712 32.1738 59.9363 32.3306 60.4355C32.6918 61.5961 32.6918 62.8389 32.3306 63.9994C32.1737 64.499 31.9239 64.9646 31.5945 65.3717C31.2837 65.7443 30.9145 66.0642 30.5015 66.3189C30.0886 66.5739 29.6396 66.765 29.1695 66.8855C28.2122 67.1266 27.2101 67.1266 26.2528 66.8855C25.7839 66.7657 25.3361 66.5746 24.9251 66.3189C24.5139 66.0643 24.1471 65.7444 23.839 65.3717C23.5123 64.9634 23.2641 64.4981 23.107 63.9994C22.9188 63.4243 22.825 62.8226 22.8292 62.2175C22.8252 61.6165 22.919 61.0189 23.107 60.448C23.2644 59.9507 23.5126 59.4869 23.839 59.08C24.1472 58.7063 24.514 58.385 24.9251 58.1286C25.3357 57.8703 25.7835 57.6764 26.2528 57.5536C26.7309 57.4296 27.2229 57.3675 27.7167 57.3689ZM27.7167 65.2008C28.5825 65.2008 29.2769 64.9332 29.8001 64.398C30.3232 63.8629 30.5862 63.136 30.589 62.2175C30.589 61.3156 30.3246 60.5925 29.7959 60.048C29.2672 59.5036 28.5728 59.2318 27.7126 59.2328C26.845 59.2328 26.1505 59.5045 25.6292 60.048C25.1079 60.5916 24.8417 61.3147 24.8306 62.2175C24.8306 63.1342 25.0927 63.861 25.6167 64.398C26.1408 64.9351 26.8408 65.2027 27.7167 65.2008Z" fill="white"/>
<path d="M54.5014 67.0661H52.082L49.2028 63.6452L47.8333 65.2772V67.0661H45.8347V57.3689H47.8333V62.4813L52.1917 57.3689H54.5306L50.4333 62.2022L54.5014 67.0661Z" fill="white"/>
<path d="M76.5597 67.0661H74.1361L71.2569 63.6452L69.8889 65.2772V67.0661H67.8861V57.3689H69.8861V62.4813L74.2458 57.3689H76.5847L72.4861 62.2022L76.5597 67.0661Z" fill="white"/>
<path d="M95.5041 57.3689H93.2569L89.7916 67.0661H91.7916L92.475 65.1577L93.143 63.2925H93.1361L94.3847 59.8272L96.9708 67.0661H98.9694L95.5041 57.3689Z" fill="white"/>
<path d="M26.9819 76.6674C26.9819 77.0521 26.7916 77.3618 26.4111 77.6104C26.0305 77.859 25.5111 77.9757 24.8555 77.9757C24.5919 77.9763 24.3292 77.9441 24.0736 77.8798C23.8501 77.825 23.6348 77.7409 23.4333 77.6299C23.2734 77.5402 23.1267 77.429 22.9972 77.2993C22.8963 77.2047 22.8216 77.0855 22.7805 76.9535L23.693 76.6535C23.7152 76.7535 23.8514 76.8576 24.1014 76.966C24.3613 77.0763 24.6412 77.1317 24.9236 77.1285C25.1977 77.134 25.4705 77.0902 25.7291 76.9993C25.9583 76.9118 26.0722 76.8021 26.0722 76.6674C26.0722 76.5326 25.9875 76.4396 25.818 76.3535C25.5173 76.2316 25.203 76.1462 24.8819 76.0993C24.6273 76.0544 24.3766 75.9899 24.1319 75.9062C23.914 75.8317 23.7041 75.7354 23.5055 75.6187C23.3333 75.5222 23.1837 75.3901 23.0666 75.2313C22.9632 75.0892 22.9073 74.9181 22.9069 74.7424C22.9069 74.422 23.0875 74.1442 23.4486 73.909C23.8646 73.6582 24.3451 73.5351 24.8305 73.5549C25.1512 73.5523 25.4702 73.602 25.775 73.7021C26.0363 73.7824 26.2797 73.9126 26.4916 74.0854C26.6564 74.2149 26.7784 74.3911 26.8416 74.591L25.9319 74.8854C25.8986 74.7465 25.7736 74.6299 25.5597 74.5382C25.306 74.4389 25.0348 74.3917 24.7625 74.3993C24.5366 74.3947 24.3114 74.4242 24.0944 74.4868C23.9092 74.5451 23.8166 74.6243 23.8166 74.7243C23.8166 74.8229 23.918 74.9188 24.118 75.0118C24.3969 75.1279 24.6881 75.2118 24.9861 75.2618C25.6796 75.4007 26.1856 75.5859 26.5041 75.8174C26.648 75.9083 26.767 76.0336 26.8504 76.182C26.9338 76.3304 26.979 76.4972 26.9819 76.6674Z" fill="white"/>
<path d="M33.6278 77.9757H32.7153V74.4145H31.3778V73.5645H34.9695V74.4132H33.6264L33.6278 77.9757Z" fill="white"/>
<path d="M43.9972 73.5645V75.7048C43.9994 75.9819 43.9577 76.2575 43.8736 76.5215C43.8022 76.7532 43.6887 76.9698 43.5389 77.1604C43.2562 77.5105 42.8719 77.7643 42.4389 77.8868C42.0054 78.0034 41.5488 78.0034 41.1153 77.8868C40.9007 77.826 40.6969 77.7323 40.5111 77.609C40.3224 77.4866 40.1545 77.3346 40.0139 77.159C39.8641 76.9681 39.7502 76.7516 39.6778 76.5201C39.5941 76.2561 39.5529 75.9804 39.5555 75.7034V73.5645H40.468V75.7048C40.4474 76.0848 40.5765 76.4578 40.8278 76.7437C41.0829 76.9895 41.4235 77.1268 41.7778 77.1268C42.1321 77.1268 42.4726 76.9895 42.7278 76.7437C42.979 76.4578 43.1082 76.0848 43.0875 75.7048V73.5645H43.9972Z" fill="white"/>
<path d="M50.1848 73.5645C50.9542 73.5645 51.5477 73.7544 51.9653 74.134C52.3829 74.5136 52.5917 75.059 52.5917 75.7701C52.5917 76.4812 52.3829 77.0266 51.9653 77.4062C51.5477 77.7858 50.9542 77.9752 50.1848 77.9742H48.7195V73.5645H50.1848ZM50.1848 74.4131H49.6292V77.127H50.1848C50.4283 77.1319 50.671 77.0986 50.9042 77.0284C51.0822 76.9751 51.2428 76.8754 51.3695 76.7395C51.478 76.6156 51.5594 76.4704 51.6084 76.3131C51.7066 75.9573 51.7066 75.5815 51.6084 75.2256C51.5594 75.0688 51.478 74.924 51.3695 74.8006C51.2432 74.6643 51.0824 74.5645 50.9042 74.5118C50.6711 74.4413 50.4282 74.4085 50.1848 74.4145V74.4131Z" fill="white"/>
<path d="M58.2626 73.5645V77.9743H57.3501V73.5645H58.2626Z" fill="white"/>
<path d="M65.2056 73.5647C65.429 73.5643 65.6515 73.5919 65.8681 73.6466C66.0814 73.7018 66.2851 73.7889 66.4723 73.9049C66.6604 74.0204 66.8284 74.1658 66.9695 74.3355C67.1194 74.5206 67.2334 74.7321 67.3056 74.9591C67.4685 75.4871 67.4685 76.0519 67.3056 76.5799C67.2337 76.8071 67.1197 77.0186 66.9695 77.2036C66.8284 77.3737 66.6604 77.5196 66.4723 77.6355C66.285 77.7511 66.0813 77.8378 65.8681 77.8924C65.4327 78.0017 64.9771 78.0017 64.5417 77.8924C64.3284 77.8383 64.1246 77.7516 63.9376 77.6355C63.7503 77.5195 63.5832 77.3736 63.4431 77.2036C63.2944 77.0181 63.1813 76.8067 63.1098 76.5799C62.9468 76.0539 62.9468 75.4908 63.1098 74.9647C63.1816 74.7385 63.2946 74.5275 63.4431 74.3424C63.5832 74.1724 63.7503 74.0265 63.9376 73.9105C64.1244 73.7926 64.3281 73.7041 64.5417 73.648C64.7585 73.5918 64.9817 73.5638 65.2056 73.5647ZM65.2056 77.1272C65.3807 77.135 65.5555 77.1065 65.719 77.0434C65.8826 76.9803 66.0312 76.884 66.1556 76.7605C66.3884 76.4839 66.5161 76.1339 66.5161 75.7723C66.5161 75.4107 66.3884 75.0608 66.1556 74.7841C65.897 74.5456 65.5581 74.4131 65.2063 74.4131C64.8545 74.4131 64.5156 74.5456 64.257 74.7841C64.0255 75.0614 63.8986 75.4111 63.8986 75.7723C63.8986 76.1335 64.0255 76.4833 64.257 76.7605C64.3812 76.8839 64.5296 76.9803 64.6929 77.0436C64.8561 77.1069 65.0307 77.1359 65.2056 77.1286V77.1272Z" fill="white"/>
<path d="M76.1902 76.6673C76.1902 77.052 75.9999 77.3617 75.6193 77.6103C75.2388 77.8589 74.7193 77.9756 74.0638 77.9756C73.8001 77.9763 73.5375 77.9441 73.2818 77.8797C73.0583 77.8249 72.8431 77.7408 72.6415 77.6298C72.4817 77.5401 72.3349 77.4289 72.2054 77.2992C72.1045 77.2046 72.0299 77.0854 71.9888 76.9534L72.9013 76.6534C72.9235 76.7534 73.0596 76.8575 73.3096 76.9659C73.5695 77.0762 73.8495 77.1316 74.1318 77.1284C74.4059 77.1339 74.6788 77.0901 74.9374 76.9992C75.1666 76.9117 75.2804 76.802 75.2804 76.6673C75.2804 76.5325 75.1957 76.4395 75.0263 76.3534C74.726 76.2316 74.4122 76.1463 74.0916 76.0992C73.8365 76.0545 73.5852 75.9899 73.3402 75.9061C73.1221 75.8319 72.9122 75.7356 72.7138 75.6186C72.542 75.5216 72.3925 75.3896 72.2749 75.2312C72.1714 75.0891 72.1155 74.918 72.1152 74.7423C72.1152 74.4219 72.2953 74.1441 72.6554 73.9089C73.0737 73.6573 73.5567 73.5342 74.0443 73.5548C74.3646 73.5523 74.6831 73.602 74.9874 73.702C75.2485 73.782 75.4914 73.9123 75.7027 74.0853C75.8683 74.2143 75.9909 74.3907 76.0541 74.5909L75.1443 74.8853C75.111 74.7464 74.986 74.6298 74.7721 74.5381C74.5183 74.4389 74.2472 74.3917 73.9749 74.3992C73.7491 74.3946 73.5239 74.4241 73.3068 74.4867C73.1216 74.545 73.0291 74.6242 73.0291 74.7242C73.0291 74.8228 73.1304 74.9187 73.3304 75.0117C73.6093 75.1278 73.9006 75.2117 74.1985 75.2617C74.892 75.4006 75.398 75.5858 75.7166 75.8173C75.8597 75.9087 75.9778 76.0342 76.0605 76.1826C76.1431 76.3309 76.1877 76.4975 76.1902 76.6673Z" fill="white"/>
<path d="M21.2486 75.4535H0V76.0688H21.2486V75.4535Z" fill="white"/>
<path d="M98.9693 75.4535H77.7207V76.0688H98.9693V75.4535Z" fill="white"/>
<path d="M122.781 20.7639C122.781 20.2119 122.619 19.7379 122.295 19.3419C121.971 18.9459 121.569 18.6459 121.089 18.4419C120.609 18.2379 120.087 18.0159 119.523 17.7759C118.959 17.5239 118.437 17.2779 117.957 17.0379C117.477 16.7979 117.075 16.4439 116.751 15.9759C116.427 15.4959 116.265 14.9319 116.265 14.2839C116.265 13.3719 116.595 12.6219 117.255 12.0339C117.927 11.4339 118.827 11.1339 119.955 11.1339C121.431 11.1339 122.559 11.5599 123.339 12.4119L122.799 13.1499C122.079 12.4299 121.143 12.0699 119.991 12.0699C119.163 12.0699 118.509 12.2739 118.029 12.6819C117.549 13.0779 117.309 13.6119 117.309 14.2839C117.309 14.8239 117.471 15.2919 117.795 15.6879C118.119 16.0719 118.521 16.3599 119.001 16.5519C119.481 16.7439 120.003 16.9599 120.567 17.1999C121.131 17.4279 121.653 17.6619 122.133 17.9019C122.613 18.1419 123.015 18.5079 123.339 18.9999C123.663 19.4799 123.825 20.0619 123.825 20.7459C123.825 21.7299 123.441 22.5279 122.673 23.1399C121.905 23.7519 120.951 24.0579 119.811 24.0579C119.031 24.0579 118.263 23.8959 117.507 23.5719C116.763 23.2239 116.241 22.7799 115.941 22.2399L116.535 21.5559C116.895 22.0239 117.375 22.4019 117.975 22.6899C118.575 22.9779 119.181 23.1219 119.793 23.1219C120.609 23.1219 121.311 22.9119 121.899 22.4919C122.487 22.0839 122.781 21.5079 122.781 20.7639ZM136.64 23.8959H135.65V17.9379H127.784V23.8959H126.794V11.2959H127.784V17.0019H135.65V11.2959H136.64V23.8959ZM140.016 23.8959H139.008L144.498 11.1879H145.308L150.798 23.8959H149.736L147.9 19.6119H141.852L140.016 23.8959ZM147.486 18.6759L144.876 12.5559L142.248 18.6759H147.486ZM154.168 18.8379V23.8959H153.178V11.2959C153.67 11.2959 154.18 11.2899 154.708 11.2779C155.236 11.2659 155.752 11.2599 156.256 11.2599C157.096 11.2599 157.816 11.3679 158.416 11.5839C159.028 11.7999 159.496 12.0939 159.82 12.4659C160.144 12.8379 160.378 13.2399 160.522 13.6719C160.666 14.0919 160.738 14.5539 160.738 15.0579C160.738 16.1499 160.36 17.0619 159.604 17.7939C158.836 18.5379 157.72 18.9099 156.256 18.9099C155.428 18.9099 154.732 18.8859 154.168 18.8379ZM156.346 12.1959C155.95 12.1959 155.224 12.2079 154.168 12.2319V17.8839C155.032 17.9439 155.716 17.9739 156.22 17.9739C157.324 17.9739 158.176 17.7099 158.776 17.1819C159.388 16.6539 159.694 15.9399 159.694 15.0399C159.694 14.1519 159.412 13.4559 158.848 12.9519C158.296 12.4479 157.462 12.1959 156.346 12.1959ZM165.13 23.8959H164.14V11.2959H165.13V23.8959ZM179.911 11.2959V23.8959H179.119L170.497 13.0599V23.8959H169.561V11.2959H170.353L178.975 22.1679V11.2959H179.911ZM192.905 18.7299H189.215V17.7939H193.841V22.3299C193.289 22.8699 192.575 23.2959 191.699 23.6079C190.835 23.9079 189.977 24.0579 189.125 24.0579C187.241 24.0579 185.729 23.4699 184.589 22.2939C183.449 21.1179 182.879 19.5519 182.879 17.5959C182.879 15.7359 183.443 14.1999 184.571 12.9879C185.699 11.7519 187.175 11.1339 188.999 11.1339C190.583 11.1339 191.879 11.5299 192.887 12.3219L192.437 13.0959C191.633 12.4119 190.523 12.0699 189.107 12.0699C187.571 12.0699 186.323 12.5859 185.363 13.6179C184.403 14.6499 183.923 15.9759 183.923 17.5959C183.923 19.2519 184.403 20.5899 185.363 21.6099C186.335 22.6179 187.601 23.1219 189.161 23.1219C189.833 23.1219 190.529 23.0019 191.249 22.7619C191.945 22.5339 192.497 22.2159 192.905 21.8079V18.7299ZM124.113 44.8959H116.967V32.2959H123.933V33.2319H117.957V38.0379H123.393V38.9739H117.957V43.9599H124.113V44.8959ZM135.925 32.2959H136.933L131.641 45.0039H130.939L125.521 32.2959H126.583L131.317 43.4919L135.925 32.2959ZM146.279 44.8959H139.133V32.2959H146.099V33.2319H140.123V38.0379H145.559V38.9739H140.123V43.9599H146.279V44.8959ZM150.477 39.6039V44.8959H149.487V32.2959C150.027 32.2959 150.573 32.2899 151.125 32.2779C151.677 32.2659 152.139 32.2599 152.511 32.2599C155.451 32.2599 156.921 33.4719 156.921 35.8959C156.921 36.7599 156.639 37.5219 156.075 38.1819C155.511 38.8179 154.797 39.2259 153.933 39.4059L158.343 44.8959H157.119L152.925 39.6039H150.477ZM152.457 33.1959C152.193 33.1959 151.533 33.2079 150.477 33.2319V38.6679H152.655C153.507 38.6679 154.251 38.4099 154.887 37.8939C155.547 37.3779 155.877 36.7119 155.877 35.8959C155.877 34.0959 154.737 33.1959 152.457 33.1959ZM167.163 32.2959H168.261L163.725 39.3879V44.8959H162.735V39.3879L158.253 32.2959H159.405L163.275 38.4519L167.163 32.2959ZM168.904 38.5959C168.904 36.7599 169.504 35.2239 170.704 33.9879C171.904 32.7519 173.41 32.1339 175.222 32.1339C177.022 32.1339 178.522 32.7459 179.722 33.9699C180.934 35.1819 181.54 36.7239 181.54 38.5959C181.54 40.4319 180.934 41.9739 179.722 43.2219C178.522 44.4459 177.022 45.0579 175.222 45.0579C173.422 45.0579 171.916 44.4519 170.704 43.2399C169.504 42.0279 168.904 40.4799 168.904 38.5959ZM169.948 38.5959C169.948 40.1559 170.452 41.4699 171.46 42.5379C172.48 43.5939 173.734 44.1219 175.222 44.1219C176.758 44.1219 178.018 43.5939 179.002 42.5379C179.998 41.4699 180.496 40.1559 180.496 38.5959C180.496 36.9999 179.986 35.6859 178.966 34.6539C177.958 33.5979 176.71 33.0699 175.222 33.0699C173.722 33.0699 172.468 33.5979 171.46 34.6539C170.452 35.6979 169.948 37.0119 169.948 38.5959ZM194.853 32.2959V44.8959H194.061L185.439 34.0599V44.8959H184.503V32.2959H185.295L193.917 43.1679V32.2959H194.853ZM205.992 44.8959H198.846V32.2959H205.812V33.2319H199.836V38.0379H205.272V38.9739H199.836V43.9599H205.992V44.8959ZM208.822 32.2779L209.596 31.7739C209.908 32.1459 210.064 32.5839 210.064 33.0879C210.064 34.1799 209.62 34.9719 208.732 35.4639L208.3 35.0139C208.888 34.6779 209.182 34.1019 209.182 33.2859C209.182 32.8539 209.062 32.5179 208.822 32.2779ZM219.303 41.7639C219.303 41.2119 219.141 40.7379 218.817 40.3419C218.493 39.9459 218.091 39.6459 217.611 39.4419C217.131 39.2379 216.609 39.0159 216.045 38.7759C215.481 38.5239 214.959 38.2779 214.479 38.0379C213.999 37.7979 213.597 37.4439 213.273 36.9759C212.949 36.4959 212.787 35.9319 212.787 35.2839C212.787 34.3719 213.117 33.6219 213.777 33.0339C214.449 32.4339 215.349 32.1339 216.477 32.1339C217.953 32.1339 219.081 32.5599 219.861 33.4119L219.321 34.1499C218.601 33.4299 217.665 33.0699 216.513 33.0699C215.685 33.0699 215.031 33.2739 214.551 33.6819C214.071 34.0779 213.831 34.6119 213.831 35.2839C213.831 35.8239 213.993 36.2919 214.317 36.6879C214.641 37.0719 215.043 37.3599 215.523 37.5519C216.003 37.7439 216.525 37.9599 217.089 38.1999C217.653 38.4279 218.175 38.6619 218.655 38.9019C219.135 39.1419 219.537 39.5079 219.861 39.9999C220.185 40.4799 220.347 41.0619 220.347 41.7459C220.347 42.7299 219.963 43.5279 219.195 44.1399C218.427 44.7519 217.473 45.0579 216.333 45.0579C215.553 45.0579 214.785 44.8959 214.029 44.5719C213.285 44.2239 212.763 43.7799 212.463 43.2399L213.057 42.5559C213.417 43.0239 213.897 43.4019 214.497 43.6899C215.097 43.9779 215.703 44.1219 216.315 44.1219C217.131 44.1219 217.833 43.9119 218.421 43.4919C219.009 43.0839 219.303 42.5079 219.303 41.7639ZM117.957 65.8959H116.967V53.2959H124.005V54.2319H117.957V59.4159H123.465V60.3519H117.957V65.8959ZM135.435 53.2959H136.425V60.6219C136.425 62.4339 135.975 63.7899 135.075 64.6899C134.175 65.5899 133.035 66.0399 131.655 66.0399C130.131 66.0399 128.895 65.5659 127.947 64.6179C127.011 63.6699 126.543 62.2959 126.543 60.4959V53.2959H127.533V60.3159C127.533 61.8159 127.899 62.9919 128.631 63.8439C129.375 64.6839 130.383 65.1039 131.655 65.1039C132.831 65.1039 133.755 64.7019 134.427 63.8979C135.099 63.0939 135.435 61.9299 135.435 60.4059V53.2959ZM143.085 54.2319H138.423V53.2959H148.737V54.2319H144.075V65.8959H143.085V54.2319ZM159.623 53.2959H160.613V60.6219C160.613 62.4339 160.163 63.7899 159.263 64.6899C158.363 65.5899 157.223 66.0399 155.843 66.0399C154.319 66.0399 153.083 65.5659 152.135 64.6179C151.199 63.6699 150.731 62.2959 150.731 60.4959V53.2959H151.721V60.3159C151.721 61.8159 152.087 62.9919 152.819 63.8439C153.563 64.6839 154.571 65.1039 155.843 65.1039C157.019 65.1039 157.943 64.7019 158.615 63.8979C159.287 63.0939 159.623 61.9299 159.623 60.4059V53.2959ZM165.418 60.6039V65.8959H164.428V53.2959C164.968 53.2959 165.514 53.2899 166.066 53.2779C166.618 53.2659 167.08 53.2599 167.452 53.2599C170.392 53.2599 171.862 54.4719 171.862 56.8959C171.862 57.7599 171.58 58.5219 171.016 59.1819C170.452 59.8179 169.738 60.2259 168.874 60.4059L173.284 65.8959H172.06L167.866 60.6039H165.418ZM167.398 54.1959C167.134 54.1959 166.474 54.2079 165.418 54.2319V59.6679H167.596C168.448 59.6679 169.192 59.4099 169.828 58.8939C170.488 58.3779 170.818 57.7119 170.818 56.8959C170.818 55.0959 169.678 54.1959 167.398 54.1959ZM182.93 65.8959H175.784V53.2959H182.75V54.2319H176.774V59.0379H182.21V59.9739H176.774V64.9599H182.93V65.8959ZM185.111 65.2119C185.111 65.0319 185.177 64.8819 185.309 64.7619C185.453 64.6299 185.627 64.5639 185.831 64.5639C186.011 64.5639 186.161 64.6299 186.281 64.7619C186.413 64.8939 186.479 65.0439 186.479 65.2119C186.479 65.4039 186.413 65.5719 186.281 65.7159C186.161 65.8599 186.011 65.9319 185.831 65.9319C185.627 65.9319 185.453 65.8599 185.309 65.7159C185.177 65.5719 185.111 65.4039 185.111 65.2119Z" fill="white"/>
</g>
</svg>
