<svg width="400" height="101" viewBox="0 0 400 101" fill="none" xmlns="http://www.w3.org/2000/svg">
<g opacity="0.4">
<path d="M40.926 48.8845L50.7066 30.2012L56.9635 42.2748L53.6163 48.8845H40.926Z" fill="black"/>
<path d="M59.7858 11.6943L53.4386 23.9443L72.3872 61.3985L78.4678 48.7957L59.7858 11.6943Z" fill="black"/>
<path d="M75.2954 30.8182L84.8149 11.9585L103.495 48.8849H90.9815L84.6371 36.4585L81.5524 42.8918L75.2954 30.8182Z" fill="black"/>
<path d="M26.5095 75.8693L26.3068 75.4929L24.629 72.4373V77.9471H22.6304V68.2471H24.4568L27.3665 73.554L30.2609 68.2471H32.1095V77.9443H30.1137V72.4054L28.4193 75.4929L28.2165 75.8693H26.5095Z" fill="black"/>
<path d="M50.222 68.2471C50.7119 68.2456 51.2001 68.3062 51.6748 68.4277C52.1451 68.5481 52.5942 68.7397 53.0067 68.9957C53.4203 69.2496 53.7896 69.5696 54.0998 69.9429C54.4293 70.3494 54.6791 70.8145 54.8359 71.3138C55.197 72.4743 55.197 73.7171 54.8359 74.8777C54.6789 75.3773 54.4292 75.8428 54.0998 76.2499C53.7889 76.6225 53.4198 76.9424 53.0067 77.1971C52.5939 77.4521 52.1448 77.6432 51.6748 77.7638C50.7175 78.0048 49.7154 78.0048 48.7581 77.7638C48.2891 77.6439 47.8413 77.4528 47.4303 77.1971C47.0192 76.9425 46.6523 76.6226 46.3442 76.2499C46.0176 75.8416 45.7694 75.3763 45.6123 74.8777C45.4241 74.3026 45.3302 73.7008 45.3345 73.0957C45.3304 72.4947 45.4242 71.8971 45.6123 71.3263C45.7697 70.829 46.0178 70.3651 46.3442 69.9582C46.6525 69.5845 47.0193 69.2632 47.4303 69.0068C47.841 68.7485 48.2888 68.5546 48.7581 68.4318C49.2361 68.3078 49.7281 68.2457 50.222 68.2471ZM50.222 76.079C51.0877 76.079 51.7822 75.8114 52.3053 75.2763C52.8285 74.7411 53.0914 74.0142 53.0942 73.0957C53.0942 72.1939 52.8299 71.4707 52.3012 70.9263C51.7724 70.3818 51.078 70.1101 50.2178 70.111C49.3502 70.111 48.6558 70.3827 48.1345 70.9263C47.6132 71.4698 47.347 72.1929 47.3359 73.0957C47.3359 74.0124 47.5979 74.7392 48.122 75.2763C48.6461 75.8133 49.3461 76.0809 50.222 76.079Z" fill="black"/>
<path d="M77.0067 77.9443H74.5872L71.708 74.5235L70.3386 76.1554V77.9443H68.34V68.2471H70.3386V73.3596L74.6969 68.2471H77.0358L72.9386 73.0804L77.0067 77.9443Z" fill="black"/>
<path d="M99.065 77.9443H96.6414L93.7622 74.5235L92.3941 76.1554V77.9443H90.3914V68.2471H92.3914V73.3596L96.7511 68.2471H99.09L94.9914 73.0804L99.065 77.9443Z" fill="black"/>
<path d="M118.009 68.2471H115.762L112.297 77.9443H114.297L114.98 76.036L115.648 74.1707H115.641L116.89 70.7054L119.476 77.9443H121.475L118.009 68.2471Z" fill="black"/>
<path d="M49.4872 87.5457C49.4872 87.9304 49.2969 88.2401 48.9163 88.4887C48.5358 88.7374 48.0163 88.854 47.3608 88.854C47.0972 88.8547 46.8345 88.8225 46.5788 88.7582C46.3553 88.7033 46.1401 88.6193 45.9385 88.5082C45.7787 88.4186 45.6319 88.3074 45.5024 88.1776C45.4015 88.083 45.3269 87.9639 45.2858 87.8318L46.1983 87.5318C46.2205 87.6318 46.3566 87.736 46.6066 87.8443C46.8665 87.9547 47.1465 88.01 47.4288 88.0068C47.7029 88.0123 47.9758 87.9686 48.2344 87.8776C48.4635 87.7901 48.5774 87.6804 48.5774 87.5457C48.5774 87.411 48.4927 87.3179 48.3233 87.2318C48.0225 87.1099 47.7082 87.0246 47.3872 86.9776C47.1325 86.9327 46.8818 86.8682 46.6372 86.7846C46.4192 86.7101 46.2094 86.6137 46.0108 86.4971C45.8386 86.4006 45.689 86.2685 45.5719 86.1096C45.4684 85.9676 45.4125 85.7964 45.4122 85.6207C45.4122 85.3003 45.5927 85.0226 45.9538 84.7874C46.3699 84.5366 46.8504 84.4134 47.3358 84.4332C47.6565 84.4306 47.9755 84.4804 48.2802 84.5804C48.5416 84.6608 48.785 84.791 48.9969 84.9638C49.1617 85.0933 49.2837 85.2695 49.3469 85.4693L48.4372 85.7638C48.4038 85.6249 48.2788 85.5082 48.0649 85.4165C47.8112 85.3172 47.5401 85.27 47.2677 85.2777C47.0419 85.2731 46.8167 85.3026 46.5997 85.3652C46.4145 85.4235 46.3219 85.5027 46.3219 85.6027C46.3219 85.7013 46.4233 85.7971 46.6233 85.8902C46.9022 86.0063 47.1934 86.0901 47.4913 86.1401C48.1848 86.279 48.6909 86.4642 49.0094 86.6957C49.1533 86.7867 49.2722 86.912 49.3557 87.0603C49.4391 87.2087 49.4842 87.3755 49.4872 87.5457Z" fill="#58595B"/>
<path d="M56.1331 88.854H55.2206V85.2929H53.8831V84.4429H57.4747V85.2915H56.1317L56.1331 88.854Z" fill="#58595B"/>
<path d="M66.5025 84.4429V86.5831C66.5047 86.8602 66.463 87.1358 66.3788 87.3998C66.3074 87.6315 66.1939 87.8481 66.0441 88.0387C65.7614 88.3888 65.3771 88.6426 64.9441 88.7651C64.5106 88.8817 64.054 88.8817 63.6205 88.7651C63.406 88.7043 63.2022 88.6106 63.0163 88.4873C62.8276 88.3649 62.6597 88.213 62.5191 88.0373C62.3694 87.8464 62.2555 87.63 62.183 87.3984C62.0994 87.1344 62.0581 86.8587 62.0608 86.5818V84.4429H62.9733V86.5831C62.9526 86.9632 63.0818 87.3362 63.333 87.622C63.5882 87.8678 63.9287 88.0051 64.283 88.0051C64.6373 88.0051 64.9778 87.8678 65.233 87.622C65.4842 87.3362 65.6134 86.9632 65.5927 86.5831V84.4429H66.5025Z" fill="#58595B"/>
<path d="M72.6899 84.4429C73.4593 84.4429 74.0528 84.6327 74.4704 85.0123C74.888 85.3919 75.0968 85.9373 75.0968 86.6484C75.0968 87.3595 74.888 87.9049 74.4704 88.2845C74.0528 88.6641 73.4593 88.8535 72.6899 88.8526H71.2246V84.4429H72.6899ZM72.6899 85.2915H72.1343V88.0053H72.6899C72.9334 88.0102 73.1761 87.9769 73.4093 87.9067C73.5873 87.8534 73.7479 87.7537 73.8746 87.6178C73.9831 87.494 74.0645 87.3487 74.1135 87.1915C74.2117 86.8356 74.2117 86.4598 74.1135 86.104C74.0645 85.9471 73.9831 85.8024 73.8746 85.679C73.7483 85.5426 73.5876 85.4428 73.4093 85.3901C73.1762 85.3197 72.9333 85.2868 72.6899 85.2929V85.2915Z" fill="#58595B"/>
<path d="M80.7678 84.4429V88.8526H79.8553V84.4429H80.7678Z" fill="#58595B"/>
<path d="M87.7109 84.4429C87.9343 84.4426 88.1568 84.4701 88.3734 84.5248C88.5866 84.58 88.7903 84.6671 88.9775 84.7832C89.1656 84.8986 89.3336 85.044 89.4748 85.2137C89.6247 85.3988 89.7387 85.6103 89.8109 85.8373C89.9738 86.3653 89.9738 86.9302 89.8109 87.4582C89.739 87.6853 89.625 87.8969 89.4748 88.0818C89.3336 88.2519 89.1657 88.3978 88.9775 88.5137C88.7903 88.6294 88.5866 88.716 88.3734 88.7707C87.938 88.8799 87.4824 88.8799 87.047 88.7707C86.8336 88.7165 86.6298 88.6299 86.4428 88.5137C86.2555 88.3977 86.0885 88.2518 85.9484 88.0818C85.7996 87.8964 85.6866 87.6849 85.615 87.4582C85.4521 86.9321 85.4521 86.369 85.615 85.8429C85.6869 85.6167 85.7999 85.4058 85.9484 85.2207C86.0885 85.0506 86.2555 84.9047 86.4428 84.7887C86.6296 84.6709 86.8334 84.5824 87.047 84.5262C87.2638 84.4701 87.4869 84.4421 87.7109 84.4429ZM87.7109 88.0054C87.886 88.0133 88.0608 87.9847 88.2243 87.9216C88.3878 87.8585 88.5365 87.7622 88.6609 87.6387C88.8937 87.3621 89.0213 87.0121 89.0213 86.6505C89.0213 86.289 88.8937 85.939 88.6609 85.6623C88.4023 85.4238 88.0634 85.2913 87.7116 85.2913C87.3598 85.2913 87.0208 85.4238 86.7623 85.6623C86.5307 85.9396 86.4039 86.2893 86.4039 86.6505C86.4039 87.0117 86.5307 87.3615 86.7623 87.6387C86.8865 87.7621 87.0349 87.8585 87.1981 87.9218C87.3614 87.9852 87.5359 88.0141 87.7109 88.0068V88.0054Z" fill="#58595B"/>
<path d="M98.6954 87.5454C98.6954 87.9301 98.5051 88.2398 98.1246 88.4884C97.744 88.737 97.2246 88.8537 96.569 88.8537C96.3054 88.8544 96.0427 88.8222 95.7871 88.7579C95.5636 88.703 95.3483 88.619 95.1468 88.5079C94.9869 88.4183 94.8402 88.307 94.7107 88.1773C94.6098 88.0827 94.5351 87.9635 94.494 87.8315L95.4065 87.5315C95.4287 87.6315 95.5649 87.7356 95.8149 87.844C96.0748 87.9543 96.3547 88.0097 96.6371 88.0065C96.9112 88.012 97.184 87.9682 97.4426 87.8773C97.6718 87.7898 97.7857 87.6801 97.7857 87.5454C97.7857 87.4106 97.701 87.3176 97.5315 87.2315C97.2312 87.1097 96.9174 87.0244 96.5968 86.9773C96.3417 86.9326 96.0905 86.868 95.8454 86.7843C95.6274 86.71 95.4175 86.6137 95.219 86.4968C95.0472 86.3997 94.8977 86.2677 94.7801 86.1093C94.6767 85.9672 94.6208 85.7961 94.6204 85.6204C94.6204 85.3 94.8005 85.0222 95.1607 84.787C95.5789 84.5354 96.0619 84.4123 96.5496 84.4329C96.8698 84.4304 97.1884 84.4801 97.4926 84.5801C97.7537 84.6602 97.9967 84.7904 98.2079 84.9634C98.3736 85.0925 98.4961 85.2688 98.5593 85.469L97.6496 85.7634C97.6162 85.6245 97.4912 85.5079 97.2774 85.4162C97.0236 85.317 96.7525 85.2698 96.4801 85.2773C96.2543 85.2727 96.0291 85.3022 95.8121 85.3648C95.6269 85.4232 95.5343 85.5023 95.5343 85.6023C95.5343 85.7009 95.6357 85.7968 95.8357 85.8898C96.1146 86.0059 96.4058 86.0898 96.7037 86.1398C97.3973 86.2787 97.9033 86.4639 98.2218 86.6954C98.3649 86.7868 98.4831 86.9123 98.5657 87.0607C98.6484 87.209 98.6929 87.3756 98.6954 87.5454Z" fill="#58595B"/>
<path d="M43.7539 86.332H22.5052V86.9473H43.7539V86.332Z" fill="#58595B"/>
<path d="M121.475 86.332H100.226V86.9473H121.475V86.332Z" fill="#58595B"/>
</g>
<g opacity="0.35">
<path d="M169.446 23.6004C169.446 22.8644 169.23 22.2324 168.798 21.7044C168.366 21.1764 167.83 20.7764 167.19 20.5044C166.55 20.2324 165.854 19.9364 165.102 19.6164C164.35 19.2804 163.654 18.9524 163.014 18.6324C162.374 18.3124 161.838 17.8404 161.406 17.2164C160.974 16.5764 160.758 15.8244 160.758 14.9604C160.758 13.7444 161.198 12.7444 162.078 11.9604C162.974 11.1604 164.174 10.7604 165.678 10.7604C167.646 10.7604 169.15 11.3284 170.19 12.4644L169.47 13.4484C168.51 12.4884 167.262 12.0084 165.726 12.0084C164.622 12.0084 163.75 12.2804 163.11 12.8244C162.47 13.3524 162.15 14.0644 162.15 14.9604C162.15 15.6804 162.366 16.3044 162.798 16.8324C163.23 17.3444 163.766 17.7284 164.406 17.9844C165.046 18.2404 165.742 18.5284 166.494 18.8484C167.246 19.1524 167.942 19.4644 168.582 19.7844C169.222 20.1044 169.758 20.5924 170.19 21.2484C170.622 21.8884 170.838 22.6644 170.838 23.5764C170.838 24.8884 170.326 25.9524 169.302 26.7684C168.278 27.5844 167.006 27.9924 165.486 27.9924C164.446 27.9924 163.422 27.7764 162.414 27.3444C161.422 26.8804 160.726 26.2884 160.326 25.5684L161.118 24.6564C161.598 25.2804 162.238 25.7844 163.038 26.1684C163.838 26.5524 164.646 26.7444 165.462 26.7444C166.55 26.7444 167.486 26.4644 168.27 25.9044C169.054 25.3604 169.446 24.5924 169.446 23.6004ZM187.924 27.7764H186.604V19.8324H176.116V27.7764H174.796V10.9764H176.116V18.5844H186.604V10.9764H187.924V27.7764ZM192.425 27.7764H191.081L198.401 10.8324H199.481L206.801 27.7764H205.385L202.937 22.0644H194.873L192.425 27.7764ZM202.385 20.8164L198.905 12.6564L195.401 20.8164H202.385ZM211.296 21.0324V27.7764H209.976V10.9764C210.632 10.9764 211.312 10.9684 212.016 10.9524C212.72 10.9364 213.408 10.9284 214.08 10.9284C215.2 10.9284 216.16 11.0724 216.96 11.3604C217.776 11.6484 218.4 12.0404 218.832 12.5364C219.264 13.0324 219.576 13.5684 219.768 14.1444C219.96 14.7044 220.056 15.3204 220.056 15.9924C220.056 17.4484 219.552 18.6644 218.544 19.6404C217.52 20.6324 216.032 21.1284 214.08 21.1284C212.976 21.1284 212.048 21.0964 211.296 21.0324ZM214.2 12.1764C213.672 12.1764 212.704 12.1924 211.296 12.2244V19.7604C212.448 19.8404 213.36 19.8804 214.032 19.8804C215.504 19.8804 216.64 19.5284 217.44 18.8244C218.256 18.1204 218.664 17.1684 218.664 15.9684C218.664 14.7844 218.288 13.8564 217.536 13.1844C216.8 12.5124 215.688 12.1764 214.2 12.1764ZM225.911 27.7764H224.591V10.9764H225.911V27.7764ZM245.619 10.9764V27.7764H244.563L233.067 13.3284V27.7764H231.819V10.9764H232.875L244.371 25.4724V10.9764H245.619ZM262.944 20.8884H258.024V19.6404H264.192V25.6884C263.456 26.4084 262.504 26.9764 261.336 27.3924C260.184 27.7924 259.04 27.9924 257.904 27.9924C255.392 27.9924 253.376 27.2084 251.856 25.6404C250.336 24.0724 249.576 21.9844 249.576 19.3764C249.576 16.8964 250.328 14.8484 251.832 13.2324C253.336 11.5844 255.304 10.7604 257.736 10.7604C259.848 10.7604 261.576 11.2884 262.92 12.3444L262.32 13.3764C261.248 12.4644 259.768 12.0084 257.88 12.0084C255.832 12.0084 254.168 12.6964 252.888 14.0724C251.608 15.4484 250.968 17.2164 250.968 19.3764C250.968 21.5844 251.608 23.3684 252.888 24.7284C254.184 26.0724 255.872 26.7444 257.952 26.7444C258.848 26.7444 259.776 26.5844 260.736 26.2644C261.664 25.9604 262.4 25.5364 262.944 24.9924V20.8884ZM171.222 56.7764H161.694V39.9764H170.982V41.2244H163.014V47.6324H170.262V48.8804H163.014V55.5284H171.222V56.7764ZM186.971 39.9764H188.315L181.259 56.9204H180.323L173.099 39.9764H174.515L180.827 54.9044L186.971 39.9764ZM200.777 56.7764H191.249V39.9764H200.537V41.2244H192.569V47.6324H199.817V48.8804H192.569V55.5284H200.777V56.7764ZM206.374 49.7204V56.7764H205.054V39.9764C205.774 39.9764 206.502 39.9684 207.238 39.9524C207.974 39.9364 208.59 39.9284 209.086 39.9284C213.006 39.9284 214.966 41.5444 214.966 44.7764C214.966 45.9284 214.59 46.9444 213.838 47.8244C213.086 48.6724 212.134 49.2164 210.982 49.4564L216.862 56.7764H215.23L209.638 49.7204H206.374ZM209.014 41.1764C208.662 41.1764 207.782 41.1924 206.374 41.2244V48.4724H209.278C210.414 48.4724 211.406 48.1284 212.254 47.4404C213.134 46.7524 213.574 45.8644 213.574 44.7764C213.574 42.3764 212.054 41.1764 209.014 41.1764ZM228.621 39.9764H230.085L224.037 49.4324V56.7764H222.717V49.4324L216.741 39.9764H218.277L223.437 48.1844L228.621 39.9764ZM230.943 48.3764C230.943 45.9284 231.743 43.8804 233.343 42.2324C234.943 40.5844 236.951 39.7604 239.367 39.7604C241.767 39.7604 243.767 40.5764 245.367 42.2084C246.983 43.8244 247.791 45.8804 247.791 48.3764C247.791 50.8244 246.983 52.8804 245.367 54.5444C243.767 56.1764 241.767 56.9924 239.367 56.9924C236.967 56.9924 234.959 56.1844 233.343 54.5684C231.743 52.9524 230.943 50.8884 230.943 48.3764ZM232.335 48.3764C232.335 50.4564 233.007 52.2084 234.351 53.6324C235.711 55.0404 237.383 55.7444 239.367 55.7444C241.415 55.7444 243.095 55.0404 244.407 53.6324C245.735 52.2084 246.399 50.4564 246.399 48.3764C246.399 46.2484 245.719 44.4964 244.359 43.1204C243.015 41.7124 241.351 41.0084 239.367 41.0084C237.367 41.0084 235.695 41.7124 234.351 43.1204C233.007 44.5124 232.335 46.2644 232.335 48.3764ZM265.541 39.9764V56.7764H264.485L252.989 42.3284V56.7764H251.741V39.9764H252.797L264.293 54.4724V39.9764H265.541ZM280.394 56.7764H270.866V39.9764H280.154V41.2244H272.186V47.6324H279.434V48.8804H272.186V55.5284H280.394V56.7764ZM284.167 39.9524L285.199 39.2804C285.615 39.7764 285.823 40.3604 285.823 41.0324C285.823 42.4884 285.231 43.5444 284.047 44.2004L283.471 43.6004C284.255 43.1524 284.647 42.3844 284.647 41.2964C284.647 40.7204 284.487 40.2724 284.167 39.9524ZM298.142 52.6004C298.142 51.8644 297.926 51.2324 297.494 50.7044C297.062 50.1764 296.526 49.7764 295.886 49.5044C295.246 49.2324 294.55 48.9364 293.798 48.6164C293.046 48.2804 292.35 47.9524 291.71 47.6324C291.07 47.3124 290.534 46.8404 290.102 46.2164C289.67 45.5764 289.454 44.8244 289.454 43.9604C289.454 42.7444 289.894 41.7444 290.774 40.9604C291.67 40.1604 292.87 39.7604 294.374 39.7604C296.342 39.7604 297.846 40.3284 298.886 41.4644L298.166 42.4484C297.206 41.4884 295.958 41.0084 294.422 41.0084C293.318 41.0084 292.446 41.2804 291.806 41.8244C291.166 42.3524 290.846 43.0644 290.846 43.9604C290.846 44.6804 291.062 45.3044 291.494 45.8324C291.926 46.3444 292.462 46.7284 293.102 46.9844C293.742 47.2404 294.438 47.5284 295.19 47.8484C295.942 48.1524 296.638 48.4644 297.278 48.7844C297.918 49.1044 298.454 49.5924 298.886 50.2484C299.318 50.8884 299.534 51.6644 299.534 52.5764C299.534 53.8884 299.022 54.9524 297.998 55.7684C296.974 56.5844 295.702 56.9924 294.182 56.9924C293.142 56.9924 292.118 56.7764 291.11 56.3444C290.118 55.8804 289.422 55.2884 289.022 54.5684L289.814 53.6564C290.294 54.2804 290.934 54.7844 291.734 55.1684C292.534 55.5524 293.342 55.7444 294.158 55.7444C295.246 55.7444 296.182 55.4644 296.966 54.9044C297.75 54.3604 298.142 53.5924 298.142 52.6004ZM163.014 85.7764H161.694V68.9764H171.078V70.2244H163.014V77.1364H170.358V78.3844H163.014V85.7764ZM186.318 68.9764H187.638V78.7444C187.638 81.1604 187.038 82.9684 185.838 84.1684C184.638 85.3684 183.118 85.9684 181.278 85.9684C179.246 85.9684 177.598 85.3364 176.334 84.0724C175.086 82.8084 174.462 80.9764 174.462 78.5764V68.9764H175.782V78.3364C175.782 80.3364 176.27 81.9044 177.246 83.0404C178.238 84.1604 179.582 84.7204 181.278 84.7204C182.846 84.7204 184.078 84.1844 184.974 83.1124C185.87 82.0404 186.318 80.4884 186.318 78.4564V68.9764ZM196.518 70.2244H190.302V68.9764H204.054V70.2244H197.838V85.7764H196.518V70.2244ZM218.568 68.9764H219.888V78.7444C219.888 81.1604 219.288 82.9684 218.088 84.1684C216.888 85.3684 215.368 85.9684 213.528 85.9684C211.496 85.9684 209.848 85.3364 208.584 84.0724C207.336 82.8084 206.712 80.9764 206.712 78.5764V68.9764H208.032V78.3364C208.032 80.3364 208.52 81.9044 209.496 83.0404C210.488 84.1604 211.832 84.7204 213.528 84.7204C215.096 84.7204 216.328 84.1844 217.224 83.1124C218.12 82.0404 218.568 80.4884 218.568 78.4564V68.9764ZM226.296 78.7204V85.7764H224.976V68.9764C225.696 68.9764 226.424 68.9684 227.16 68.9524C227.896 68.9364 228.512 68.9284 229.008 68.9284C232.928 68.9284 234.888 70.5444 234.888 73.7764C234.888 74.9284 234.512 75.9444 233.76 76.8244C233.008 77.6724 232.056 78.2164 230.904 78.4564L236.784 85.7764H235.152L229.56 78.7204H226.296ZM228.936 70.1764C228.584 70.1764 227.704 70.1924 226.296 70.2244V77.4724H229.2C230.336 77.4724 231.328 77.1284 232.176 76.4404C233.056 75.7524 233.496 74.8644 233.496 73.7764C233.496 71.3764 231.976 70.1764 228.936 70.1764ZM249.644 85.7764H240.116V68.9764H249.404V70.2244H241.436V76.6324H248.684V77.8804H241.436V84.5284H249.644V85.7764ZM252.553 84.8644C252.553 84.6244 252.641 84.4244 252.817 84.2644C253.009 84.0884 253.241 84.0004 253.513 84.0004C253.753 84.0004 253.953 84.0884 254.113 84.2644C254.289 84.4404 254.377 84.6404 254.377 84.8644C254.377 85.1204 254.289 85.3444 254.113 85.5364C253.953 85.7284 253.753 85.8244 253.513 85.8244C253.241 85.8244 253.009 85.7284 252.817 85.5364C252.641 85.3444 252.553 85.1204 252.553 84.8644Z" fill="#3B3B3B"/>
</g>
</svg>
