<svg width="256" height="211" viewBox="0 0 256 211" fill="none" xmlns="http://www.w3.org/2000/svg">
<path d="M103.107 204.353L62.9596 202.7L64.5745 173.845L71.8102 142.261C71.8102 142.261 59.5295 94.2021 44.4822 96.8436L46.385 95.1786C46.385 95.1786 64.9376 87.2919 83.1395 84.8383C101.342 82.3846 135.717 78.1909 135.717 78.1909C135.717 78.1909 161.28 83.7241 166.676 90.9849L108.001 92.5873C108.001 92.5873 102.906 98.8465 103.057 99.1345C103.207 99.4224 103.107 204.353 103.107 204.353Z" fill="#5D95F3"/>
<path d="M135.705 78.1905C128.92 77.0638 122.085 74.823 117.002 70.1912C115.822 69.0879 114.706 67.9176 113.66 66.686C106.149 58.2359 99.0004 49.4855 89.9745 42.7255C91.1127 40.9959 91.7521 38.9861 91.8228 36.9168C91.8935 34.8475 91.3926 32.7988 90.3751 30.9955C89.8909 30.1093 89.1994 29.3534 88.3597 28.7923C87.5996 28.3448 86.7377 28.0991 85.8559 28.0787C84.7964 28.0426 83.7441 28.2658 82.7904 28.7289C81.8368 29.192 81.0107 29.881 80.3839 30.736C79.7571 31.5911 79.3487 32.5862 79.194 33.635C79.0394 34.6838 79.1432 35.7545 79.4965 36.7541C77.2866 35.4444 74.9006 34.4579 72.411 33.8247C69.9051 33.1939 67.2599 33.4231 64.8999 34.4757C61.5074 36.1407 59.5044 39.8837 59.0412 43.6393C58.5154 48.0208 59.6672 53.1284 62.7968 56.283C66.1768 59.7256 70.1076 62.8678 74.7771 64.1197C79.4465 65.3715 84.9546 64.3826 88.0467 60.6771C88.2067 60.4264 88.4328 60.2248 88.7001 60.0945C88.9673 59.9642 89.2655 59.9102 89.5615 59.9385C92.1975 63.8203 94.1455 68.127 95.32 72.6698C95.8236 74.1782 95.9271 75.7914 95.6204 77.3518C95.0673 79.0658 93.8746 80.5007 92.2905 81.3577C90.7084 82.1949 89.0256 82.826 87.2831 83.2355L83.1269 84.3997C84.2795 87.4603 86.4381 90.0382 89.2485 91.7105C93.4016 94.5371 98.0335 96.5858 102.919 97.757C102.895 96.8292 103.129 95.9129 103.595 95.1105C104.062 94.308 104.742 93.651 105.56 93.2128C107.228 92.4036 109.042 91.9395 110.893 91.8483C115.604 91.246 120.358 91.0617 125.102 91.2974C126.769 91.5266 128.465 91.4587 130.109 91.0971C130.225 90.6513 130.416 90.2281 130.672 89.8453C133.391 86.498 135.133 82.4648 135.705 78.1905Z" fill="white"/>
<path d="M44.5949 110.977L41.5654 103.203C41.5654 103.203 40.9394 96.3049 46.0971 96.7055C51.2547 97.1061 55.6237 104.304 55.6237 104.304L44.5949 110.977Z" fill="#3B3B3B"/>
<path d="M14.1247 105.969C14.1247 105.969 3.70918 88.4435 2.04422 82.034C0.379249 75.6245 -0.872595 71.1554 4.87342 65.1841C10.6194 59.2127 20.2087 60.3894 22.9753 62.0419C25.7419 63.6943 33.6661 68.0883 31.8509 78.1908C30.0357 88.2933 19.3323 104.868 19.3323 104.868C19.3323 104.868 17.705 110.539 14.1247 105.969Z" fill="#005BF3"/>
<path d="M24.2145 76.1499C24.217 77.6959 23.7606 79.2079 22.9032 80.4945C22.0458 81.781 20.8259 82.7842 19.398 83.377C17.9701 83.9698 16.3985 84.1255 14.882 83.8245C13.3656 83.5235 11.9725 82.7792 10.8793 81.686C9.78607 80.5928 9.04182 79.1998 8.7408 77.6833C8.43979 76.1668 8.59553 74.5951 9.18832 73.1672C9.78111 71.7394 10.7843 70.5195 12.0709 69.6621C13.3574 68.8047 14.8693 68.3484 16.4154 68.3508C17.4396 68.3508 18.4538 68.5525 19.4 68.9445C20.3462 69.3364 21.206 69.9109 21.9302 70.6351C22.6544 71.3593 23.2289 72.2191 23.6208 73.1653C24.0127 74.1115 24.2145 75.1257 24.2145 76.1499Z" fill="#AEC9FF"/>
<path d="M80.6984 47.7957C81.3744 48.1837 81.3744 49.4606 80.6984 50.6499C80.0224 51.8391 78.9083 52.4776 78.1947 52.0895C77.4811 51.7014 77.5187 50.4245 78.1947 49.2353C78.8707 48.046 80.0224 47.3575 80.6984 47.7957Z" fill="#005BF3"/>
<path d="M73.5752 58.0607C73.9892 58.1552 74.3627 58.3781 74.6425 58.6974C74.9223 59.0168 75.0942 59.4164 75.1334 59.8392C75.1727 60.262 75.0774 60.6864 74.8612 61.0518C74.645 61.4173 74.3189 61.7052 73.9294 61.8743C73.5399 62.0434 73.107 62.0852 72.6923 61.9938C72.2777 61.9023 71.9025 61.6822 71.6204 61.3649C71.3382 61.0475 71.1635 60.6492 71.1211 60.2267C71.0788 59.8042 71.1709 59.3791 71.3844 59.0121C71.5568 58.6019 71.8808 58.2741 72.2889 58.0968C72.697 57.9196 73.1578 57.9067 73.5752 58.0607Z" fill="#005BF3"/>
<path d="M172.021 116.96H111.857V177.125H172.021V116.96Z" fill="#FFCB2F"/>
<path d="M141.776 165.62C152.133 165.62 160.529 157.224 160.529 146.868C160.529 136.511 152.133 128.115 141.776 128.115C131.42 128.115 123.024 136.511 123.024 146.868C123.024 157.224 131.42 165.62 141.776 165.62Z" fill="white"/>
<path d="M214.922 116.96H181.135V199.433H214.922V116.96Z" fill="#AEC9FF"/>
<path d="M219.754 211H108.64C106.877 211 105.186 210.3 103.939 209.053C102.693 207.806 101.992 206.116 101.992 204.353V96.5179C101.996 94.7571 102.698 93.0695 103.944 91.8256C105.19 90.5817 106.879 89.8831 108.64 89.8831H220.118C221.878 89.8831 223.567 90.5817 224.813 91.8256C226.06 93.0695 226.762 94.7571 226.765 96.5179V203.99C226.765 205.849 226.026 207.632 224.712 208.947C223.397 210.261 221.614 211 219.754 211ZM108.64 92.0738C107.47 92.0738 106.348 92.5376 105.519 93.3637C104.691 94.1897 104.224 95.3105 104.221 96.4804V204.315C104.221 205.487 104.686 206.611 105.515 207.44C106.344 208.269 107.468 208.734 108.64 208.734H219.754C221.022 208.731 222.236 208.226 223.132 207.33C224.028 206.434 224.533 205.219 224.537 203.952V96.5179C224.533 95.3481 224.066 94.2273 223.238 93.4013C222.409 92.5752 221.287 92.1114 220.118 92.1114L108.64 92.0738Z" fill="#3B3B3B"/>
<path d="M103.444 104.68H225.651V95.792C225.651 95.792 224.824 91.0224 219.216 91.6859H108.239C106.913 91.7412 105.663 92.3208 104.764 93.2973C103.865 94.2738 103.39 95.5673 103.444 96.8936V104.68Z" fill="#3B3B3B"/>
<path d="M118.041 99.5972C119.071 99.5972 119.906 98.7621 119.906 97.732C119.906 96.7018 119.071 95.8667 118.041 95.8667C117.011 95.8667 116.176 96.7018 116.176 97.732C116.176 98.7621 117.011 99.5972 118.041 99.5972Z" fill="white"/>
<path d="M112.245 99.5972C113.275 99.5972 114.11 98.7621 114.11 97.732C114.11 96.7018 113.275 95.8667 112.245 95.8667C111.215 95.8667 110.38 96.7018 110.38 97.732C110.38 98.7621 111.215 99.5972 112.245 99.5972Z" fill="white"/>
<path d="M123.85 99.5972C124.88 99.5972 125.715 98.7621 125.715 97.732C125.715 96.7018 124.88 95.8667 123.85 95.8667C122.82 95.8667 121.984 96.7018 121.984 97.732C121.984 98.7621 122.82 99.5972 123.85 99.5972Z" fill="white"/>
<path d="M172.584 177.676H111.243V116.397H172.584V177.676ZM112.42 176.562H171.47V117.512H112.42V176.562Z" fill="#3B3B3B"/>
<path d="M215.498 199.984H180.584V116.397H215.498V199.984ZM181.698 198.87H214.371V117.499H181.698V198.87Z" fill="#3B3B3B"/>
<path d="M209.189 122.231H186.981V144.439H209.189V122.231Z" fill="#3B3B3B"/>
<path d="M209.076 147.343H186.868V169.551H209.076V147.343Z" fill="#3B3B3B"/>
<path d="M209.076 172.681H186.868V194.889H209.076V172.681Z" fill="#3B3B3B"/>
<path d="M138.709 185.8H111.657C111.583 185.802 111.51 185.789 111.442 185.762C111.374 185.735 111.312 185.695 111.259 185.643C111.207 185.592 111.165 185.531 111.137 185.463C111.108 185.395 111.093 185.323 111.093 185.249C111.093 185.1 111.153 184.957 111.258 184.851C111.364 184.745 111.507 184.686 111.657 184.686H138.709C138.857 184.689 138.997 184.75 139.1 184.855C139.203 184.961 139.26 185.102 139.26 185.249C139.26 185.395 139.202 185.536 139.099 185.639C138.996 185.742 138.855 185.8 138.709 185.8Z" fill="#3B3B3B"/>
<path d="M160.88 190.007H111.657C111.583 190.007 111.51 189.992 111.441 189.964C111.373 189.935 111.311 189.894 111.258 189.842C111.206 189.789 111.165 189.727 111.136 189.659C111.108 189.59 111.093 189.517 111.093 189.443C111.093 189.369 111.108 189.296 111.136 189.228C111.165 189.159 111.206 189.097 111.258 189.045C111.311 188.993 111.373 188.951 111.441 188.923C111.51 188.894 111.583 188.88 111.657 188.88H160.88C161.029 188.88 161.172 188.939 161.278 189.045C161.384 189.15 161.443 189.294 161.443 189.443C161.443 189.593 161.384 189.736 161.278 189.842C161.172 189.947 161.029 190.007 160.88 190.007Z" fill="#3B3B3B"/>
<path d="M160.88 194.262H111.657C111.583 194.264 111.51 194.251 111.442 194.224C111.374 194.197 111.312 194.157 111.259 194.106C111.207 194.054 111.165 193.993 111.137 193.925C111.108 193.858 111.093 193.785 111.093 193.712C111.093 193.562 111.153 193.419 111.258 193.313C111.364 193.208 111.507 193.148 111.657 193.148H160.88C161.027 193.151 161.167 193.212 161.27 193.318C161.373 193.423 161.431 193.564 161.431 193.712C161.431 193.858 161.373 193.998 161.269 194.101C161.166 194.204 161.026 194.262 160.88 194.262Z" fill="#3B3B3B"/>
<path d="M225.813 142.549C224.825 142.761 223.798 142.703 222.84 142.381C221.882 142.059 221.028 141.486 220.368 140.721C219.075 139.168 218.097 137.378 217.489 135.451C216.875 133.528 215.967 131.712 214.797 130.068C214.086 129.119 213.09 128.421 211.955 128.077C211.495 128.008 211.025 128.042 210.579 128.176C210.133 128.31 209.722 128.542 209.376 128.853C208.687 129.482 208.199 130.301 207.974 131.207C207.699 132.262 207.699 133.369 207.974 134.424C207.355 134.697 206.797 135.092 206.332 135.584C205.868 136.076 205.507 136.657 205.27 137.291C204.849 138.584 204.601 139.926 204.532 141.284C203.731 141.739 203.055 142.383 202.561 143.16C202.068 143.937 201.773 144.823 201.703 145.741C201.502 147.544 203.217 154.329 203.768 156.056C203.281 156.743 202.953 157.53 202.808 158.359C202.663 159.188 202.705 160.039 202.929 160.851C205.207 167.423 209.997 172.825 216.249 175.873C219.076 177.473 222.253 178.354 225.5 178.439C226.302 178.481 227.101 178.326 227.829 177.989C228.827 177.353 229.595 176.414 230.02 175.31C231.709 171.834 232.728 168.071 233.024 164.218C233.738 155.017 233.287 145.541 233.024 136.314C232.899 132.446 232.924 128.353 232.423 124.522C232.338 123.428 232.04 122.36 231.547 121.38C231.295 120.895 230.919 120.485 230.457 120.193C229.995 119.9 229.464 119.735 228.918 119.715C228.379 119.776 227.866 119.975 227.427 120.293C226.989 120.611 226.64 121.037 226.414 121.53C225.926 122.506 226.953 122.506 226.852 123.596C226.339 129.454 226.94 137.616 226.765 142.912C226.765 142.511 225.888 142.937 225.813 142.549Z" fill="white"/>
<path d="M65.9514 124.647C67.0522 126.747 67.9131 128.964 68.5178 131.257C69.632 134.887 70.696 138.63 71.8101 142.261C79.6217 140.07 87.5334 138.593 95.5328 137.166C102.077 135.856 108.695 134.948 115.35 134.449C120.357 134.186 125.44 134.274 130.51 133.898C132.738 133.723 135.054 133.285 137.144 134.049C138.156 134.298 139.213 134.298 140.224 134.049C141.789 133.852 143.378 134.019 144.868 134.537C145.565 134.747 146.203 135.116 146.734 135.613C146.999 135.862 147.202 136.169 147.326 136.511C147.45 136.852 147.492 137.218 147.447 137.579C147.26 138.706 146.108 139.382 145.031 139.782C140.712 141.397 135.868 141.172 131.361 142.173C131.661 142.937 132.162 143.613 132.463 144.376C132.71 145.062 132.798 145.795 132.72 146.519C132.642 147.244 132.4 147.941 132.012 148.558C132.405 149.405 132.643 150.317 132.713 151.249C132.796 152.196 132.549 153.143 132.012 153.928C132.488 154.932 132.551 156.083 132.187 157.133C131.829 158.173 131.228 159.113 130.435 159.874C129.577 160.738 128.572 161.442 127.468 161.952C126.594 162.447 125.564 162.59 124.588 162.353C124.356 162.305 124.136 162.209 123.944 162.069C123.751 161.93 123.59 161.752 123.472 161.546C123.354 161.34 123.28 161.111 123.257 160.875C123.234 160.639 123.261 160.4 123.337 160.175C114.241 161.982 104.98 162.822 95.7081 162.679C93.6025 162.502 91.4822 162.705 89.4488 163.279C82.0477 165.89 74.8112 168.946 67.7792 172.431C54.2216 179.128 41.2524 189.669 26.155 188.83C23.0159 188.546 19.9906 187.514 17.3332 185.819C14.6757 184.124 12.4635 181.817 10.8823 179.09C7.78171 173.566 6.65578 167.151 7.69012 160.901C8.72571 154.689 10.9578 148.736 14.2624 143.375C18.5713 136.197 23.8027 129.614 29.8229 123.796C37.7536 115.987 46.6915 109.272 56.3998 103.829C57.5264 107.584 60.0176 110.802 61.7953 114.344C62.5339 115.809 63.1348 117.324 63.7482 118.839C64.3525 120.822 65.0885 122.762 65.9514 124.647Z" fill="white"/>
<path d="M59.3041 40.8606C57.1384 44.7288 58.5404 49.3106 60.5559 52.9535C62.7505 56.9033 65.8742 60.2591 69.6569 62.7305C73.2873 65.134 77.6563 66.5862 81.9877 65.4721C83.944 64.9491 85.7555 63.9874 87.2847 62.66C88.8139 61.3325 90.0207 59.6741 90.8133 57.8107C91.1638 56.997 89.9621 56.2834 89.5615 57.1097C88.8588 58.7766 87.7892 60.2635 86.4324 61.4599C85.0756 62.6564 83.4666 63.5314 81.7248 64.0199C77.6939 65.1466 73.6504 63.7069 70.2829 61.5162C67.0119 59.3729 64.2582 56.5294 62.2209 53.1914C60.1929 49.8489 58.3777 45.2796 60.4558 41.5491C60.5488 41.3831 60.572 41.187 60.5203 41.0038C60.4687 40.8207 60.3464 40.6656 60.1804 40.5727C60.0144 40.4797 59.8183 40.4565 59.6351 40.5081C59.452 40.5598 59.2969 40.6821 59.204 40.8481L59.3041 40.8606Z" fill="#3B3B3B"/>
<path d="M60.506 41.536C61.6368 40.0299 63.0647 38.7718 64.7011 37.8395C66.3376 36.9071 68.1478 36.3204 70.02 36.1155C72.0088 35.9419 74.0119 36.1863 75.9005 36.8331C77.7891 37.4799 79.5215 38.5147 80.9863 39.8711C81.6498 40.4845 82.6388 39.4955 81.9753 38.8946C80.427 37.4525 78.5969 36.3466 76.6001 35.6467C74.6033 34.9468 72.4832 34.6681 70.3733 34.828C68.2635 34.988 66.2097 35.5831 64.3412 36.576C62.4728 37.5689 60.8302 38.9381 59.517 40.5971C58.9787 41.2982 59.9552 42.2872 60.506 41.5861V41.536Z" fill="#3B3B3B"/>
<path d="M82.0754 38.6946C81.5165 37.9834 81.1075 37.1665 80.873 36.293C80.6385 35.4194 80.5833 34.5075 80.7109 33.6121C80.8546 32.8422 81.1953 32.1226 81.7 31.5237C82.2046 30.9247 82.8558 30.4668 83.5901 30.1945C84.423 30.008 85.2906 30.0478 86.1029 30.3097C86.9151 30.5717 87.6425 31.0463 88.2095 31.6842C88.9065 32.239 89.4754 32.9379 89.8773 33.733C90.2792 34.5282 90.5045 35.4007 90.5379 36.291C90.4503 38.2439 88.8103 39.7837 88.247 41.5989C88.2217 41.7678 88.2591 41.9401 88.3519 42.0835C88.4447 42.2268 88.5867 42.3314 88.7511 42.3775C88.9156 42.4236 89.0912 42.4081 89.245 42.3339C89.3988 42.2597 89.5202 42.1319 89.5865 41.9744C90.2249 39.9464 91.8899 38.4192 91.9274 36.1909C91.8782 35.1191 91.6029 34.0698 91.1197 33.1119C90.6364 32.154 89.9561 31.3091 89.1233 30.6326C88.4195 29.8874 87.5434 29.3265 86.5721 28.999C85.6007 28.6716 84.5639 28.5878 83.5525 28.7548C82.634 29.0136 81.7914 29.49 81.0962 30.1438C80.401 30.7976 79.8737 31.6094 79.5591 32.5104C79.2186 33.6823 79.1603 34.9182 79.3887 36.117C79.6172 37.3158 80.126 38.4435 80.8736 39.4081C81.3994 40.1217 82.6137 39.4081 82.1255 38.6946H82.0754Z" fill="#3B3B3B"/>
<path d="M88.247 41.9746C89.0857 44.1278 91.3516 45.3672 93.0666 46.7818C95.2324 48.5719 97.3605 50.4121 99.4136 52.34C103.543 56.1517 107.334 60.3152 110.743 64.7834C111.281 65.4845 112.483 64.7834 111.995 64.0824C108.764 59.8196 105.188 55.8294 101.304 52.1522C99.3635 50.2995 97.3605 48.5343 95.32 46.8068C94.306 45.9555 93.2794 45.1043 92.2404 44.3031C91.1469 43.661 90.2472 42.7354 89.6366 41.6241C89.3236 40.7979 87.9716 41.1609 88.2971 41.9997L88.247 41.9746Z" fill="#3B3B3B"/>
<path d="M88.61 60.1012C92.2215 64.3831 94.5055 69.6255 95.1823 75.186C95.2699 76.0749 96.6594 76.0749 96.5718 75.186C95.8823 69.243 93.457 63.6349 89.599 59.0621C89.0356 58.3611 88.0592 59.3626 88.61 60.0511V60.1012Z" fill="#3B3B3B"/>
<path d="M84.3037 34.9142C84.2846 34.8617 84.2846 34.804 84.3037 34.7515C84.3037 34.8516 84.3037 34.8516 84.3037 34.7515C84.3037 34.7515 84.3037 34.7515 84.3037 34.6764C84.3037 34.6013 84.3037 34.6764 84.3037 34.6764V34.6013C84.3913 34.451 84.2411 34.6013 84.3037 34.6013L84.4163 34.4886C84.3287 34.5637 84.4163 34.4886 84.4163 34.4886L84.5665 34.4135C84.4163 34.4886 84.5665 34.4135 84.5665 34.4135C84.5665 34.4135 84.7043 34.4135 84.5665 34.4135H84.8295H85.0548L85.2426 34.4761L85.3552 34.5387L85.7058 34.739L85.8685 34.8642L86.1314 35.1145L86.2691 35.2773V35.3524C86.2691 35.2898 86.2691 35.2898 86.2691 35.3524C86.2691 35.415 86.4068 35.5652 86.4694 35.6904C86.5032 35.7376 86.5325 35.7879 86.557 35.8406C86.557 35.7405 86.557 35.8406 86.557 35.8406C86.5935 35.947 86.6228 36.0557 86.6447 36.1661C86.6447 36.0033 86.6447 36.1661 86.6447 36.1661C86.6447 36.1661 86.6447 36.2788 86.6447 36.3288C86.6447 36.3789 86.6447 36.2162 86.6447 36.4039C86.65 36.4664 86.65 36.5292 86.6447 36.5917C86.5981 36.7709 86.6229 36.9612 86.714 37.1224C86.8051 37.2835 86.9554 37.403 87.1329 37.4555C87.312 37.4989 87.5008 37.4726 87.6612 37.3819C87.8216 37.2913 87.9415 37.1431 87.9967 36.9673C88.1522 36.2469 88.0616 35.4952 87.7393 34.8325C87.417 34.1698 86.8817 33.6343 86.219 33.3119C85.8975 33.0953 85.5316 32.9537 85.1481 32.8974C84.7646 32.8411 84.3734 32.8715 84.0033 32.9864C83.636 33.1162 83.3182 33.3571 83.0939 33.6756C82.8696 33.9941 82.7499 34.3745 82.7514 34.764C82.7514 34.9499 82.8253 35.1283 82.9567 35.2597C83.0882 35.3912 83.2665 35.465 83.4525 35.465C83.6384 35.465 83.8166 35.3912 83.9481 35.2597C84.0796 35.1283 84.1535 34.9499 84.1535 34.764L84.3037 34.9142Z" fill="#3B3B3B"/>
<path d="M250.567 95.1032C253.427 82.9844 245.922 70.8416 233.803 67.9813C221.684 65.121 209.541 72.6264 206.681 84.7452C203.821 96.864 211.326 109.007 223.445 111.867C235.564 114.728 247.707 107.222 250.567 95.1032Z" fill="#FFCB2F"/>
<path d="M208.225 70.0914L212.769 69.7033C213.563 69.5338 214.374 69.4623 215.185 69.4905C215.548 69.5781 215.811 69.6282 215.924 70.1164C215.948 70.5102 215.923 70.9056 215.849 71.2931C215.623 74.4896 215.39 77.6776 215.148 80.8573L213.758 99.9982C213.695 100.9 215.085 100.9 215.148 99.9982L216.75 77.8404C216.888 76.0252 217.025 74.1975 217.151 72.3698C217.238 71.2932 217.651 69.6783 216.925 68.7018C216.199 67.7254 214.835 68.1134 213.833 68.2011L208.212 68.6893C207.324 68.7644 207.311 70.154 208.212 70.0788L208.225 70.0914Z" fill="#3B3B3B"/>
<path d="M214.459 100.699C224.148 100.398 233.813 99.6347 243.477 98.9712C244.366 98.9087 244.378 97.5066 243.477 97.5692C233.813 98.2452 224.148 99.0088 214.459 99.3092C214.291 99.3319 214.137 99.4148 214.025 99.5425C213.913 99.6703 213.852 99.8343 213.852 100.004C213.852 100.174 213.913 100.338 214.025 100.466C214.137 100.593 214.291 100.676 214.459 100.699Z" fill="#3B3B3B"/>
<path d="M216.099 83.3108C225.989 82.7933 235.878 82.4553 245.768 82.2968C245.936 82.2741 246.091 82.1912 246.202 82.0635C246.314 81.9357 246.376 81.7717 246.376 81.602C246.376 81.4323 246.314 81.2683 246.202 81.1405C246.091 81.0127 245.936 80.9299 245.768 80.9072C235.878 81.0658 225.989 81.3996 216.099 81.9087C215.21 81.9087 215.198 83.3483 216.099 83.3108Z" fill="#3B3B3B"/>
<path d="M245.267 81.5082L236.266 98.0703C235.841 98.859 237.043 99.56 237.518 98.7713C240.523 93.2465 243.523 87.7258 246.519 82.2093C246.612 82.0433 246.635 81.8471 246.584 81.664C246.532 81.4809 246.41 81.3258 246.244 81.2328C246.078 81.1399 245.882 81.1166 245.698 81.1683C245.515 81.2199 245.36 81.3422 245.267 81.5082Z" fill="#3B3B3B"/>
<path d="M221.394 84.5125C220.418 88.3849 219.471 92.2657 218.553 96.1548C218.34 97.0186 219.692 97.4067 219.892 96.5178C220.81 92.6371 221.762 88.7563 222.746 84.8756C222.783 84.7002 222.751 84.5175 222.658 84.3648C222.564 84.2122 222.415 84.1012 222.242 84.0548C222.069 84.0083 221.885 84.0298 221.727 84.115C221.569 84.2001 221.45 84.3423 221.394 84.5125Z" fill="#3B3B3B"/>
<path d="M228.017 84.8755C227.316 88.4683 226.527 92.0611 225.651 95.6289C225.603 95.8066 225.627 95.996 225.719 96.1557C225.81 96.3153 225.961 96.4321 226.139 96.4802C226.317 96.5284 226.506 96.504 226.666 96.4124C226.825 96.3208 226.942 96.1696 226.99 95.992C227.867 92.4242 228.668 88.8439 229.369 85.2385C229.532 84.3622 228.192 83.9867 228.017 84.8755Z" fill="#3B3B3B"/>
<path d="M235.778 84.7127C234.526 88.051 233.275 91.4227 232.023 94.8277C231.71 95.6665 233.062 96.0795 233.362 95.1907L237.118 85.0757C237.431 84.237 236.079 83.8239 235.778 84.7127Z" fill="#3B3B3B"/>
<path d="M221.757 104.129C221.757 104.691 221.591 105.24 221.278 105.708C220.966 106.175 220.522 106.539 220.003 106.754C219.484 106.969 218.913 107.026 218.361 106.916C217.81 106.806 217.304 106.536 216.906 106.138C216.509 105.741 216.238 105.234 216.129 104.683C216.019 104.132 216.075 103.561 216.29 103.041C216.505 102.522 216.87 102.078 217.337 101.766C217.804 101.454 218.354 101.287 218.916 101.287C219.669 101.287 220.392 101.586 220.925 102.119C221.458 102.652 221.757 103.375 221.757 104.129Z" fill="#3B3B3B"/>
<path d="M238.37 104.129C238.367 104.688 238.199 105.234 237.887 105.697C237.574 106.161 237.132 106.521 236.614 106.734C236.097 106.946 235.529 107 234.981 106.89C234.433 106.779 233.93 106.509 233.535 106.112C233.141 105.716 232.873 105.212 232.765 104.664C232.656 104.115 232.713 103.547 232.928 103.031C233.142 102.514 233.505 102.073 233.97 101.763C234.435 101.453 234.981 101.287 235.54 101.287C235.913 101.287 236.282 101.361 236.626 101.504C236.97 101.647 237.282 101.856 237.545 102.12C237.808 102.384 238.016 102.698 238.158 103.042C238.299 103.387 238.371 103.756 238.37 104.129Z" fill="#3B3B3B"/>
<path d="M34.4172 155.455C50.6765 148.497 67.6363 143.305 85.0047 139.97C102.371 136.432 120.048 134.645 137.77 134.637C140.074 134.637 143.216 134.199 145.282 135.363C146.17 135.876 147.347 137.366 146.533 138.392C146.036 138.836 145.432 139.142 144.781 139.281C140.287 140.796 135.254 141.021 130.56 141.259C129.671 141.259 129.658 142.699 130.56 142.649C135.166 142.566 139.75 141.982 144.23 140.909C145.467 140.689 146.622 140.14 147.572 139.319C147.993 138.708 148.194 137.973 148.141 137.234C148.089 136.495 147.787 135.795 147.285 135.25C146.659 134.605 145.904 134.099 145.069 133.767C144.234 133.435 143.338 133.283 142.44 133.322C140.136 133.197 137.82 133.235 135.517 133.247C130.777 133.247 126.036 133.418 121.296 133.761C101.775 135.042 82.4414 138.361 63.6105 143.663C53.4109 146.484 43.4182 150.006 33.7037 154.203C32.89 154.566 33.591 155.768 34.4172 155.455Z" fill="#3B3B3B"/>
<path d="M118.492 142.937L124.125 142.236C125.839 141.923 127.595 141.923 129.308 142.236C129.907 142.355 130.466 142.625 130.931 143.022C131.396 143.419 131.751 143.928 131.962 144.502C132.211 145.01 132.313 145.578 132.258 146.142C132.203 146.706 131.992 147.243 131.649 147.694C131.048 148.357 132.024 149.346 132.638 148.683C134.566 146.592 133.552 142.724 131.123 141.435C129.306 140.636 127.292 140.401 125.339 140.759C123.061 140.997 120.783 141.309 118.492 141.585C117.616 141.698 117.603 143.087 118.492 142.987V142.937Z" fill="#3B3B3B"/>
<path d="M119.105 149.196C120.884 148.776 122.685 148.463 124.501 148.257C126.118 147.98 127.766 147.933 129.396 148.119C129.958 148.17 130.493 148.383 130.938 148.732C131.382 149.081 131.716 149.55 131.899 150.084C132.109 150.556 132.167 151.082 132.066 151.588C131.965 152.095 131.71 152.558 131.336 152.914C130.622 153.464 131.624 154.441 132.312 153.89C132.822 153.425 133.191 152.827 133.377 152.163C133.562 151.499 133.558 150.796 133.364 150.134C133.231 149.461 132.933 148.832 132.495 148.303C132.058 147.774 131.496 147.362 130.86 147.105C129.012 146.536 127.054 146.42 125.152 146.767C122.96 146.981 120.786 147.341 118.642 147.844C117.766 148.044 118.141 149.383 119.018 149.183L119.105 149.196Z" fill="#3B3B3B"/>
<path d="M119.831 155.455C122.093 155.08 124.367 154.788 126.654 154.579C127.768 154.466 128.895 154.379 130.009 154.316C130.391 154.276 130.777 154.306 131.148 154.404C131.636 154.566 131.724 155.03 131.749 155.493C131.75 157.105 131.139 158.658 130.04 159.838C128.942 161.018 127.436 161.738 125.828 161.852C125.001 161.852 123.637 161.714 123.975 160.6C124.313 159.486 125.552 159.248 126.479 158.985C126.567 158.961 126.65 158.919 126.723 158.862C126.796 158.805 126.856 158.735 126.902 158.655C126.947 158.574 126.976 158.486 126.987 158.395C126.998 158.303 126.991 158.21 126.967 158.122C126.942 158.033 126.9 157.95 126.844 157.877C126.787 157.805 126.716 157.744 126.636 157.699C126.556 157.653 126.467 157.624 126.376 157.613C126.285 157.602 126.192 157.609 126.103 157.633C124.904 157.858 123.818 158.485 123.023 159.411C122.707 159.841 122.537 160.361 122.537 160.894C122.537 161.428 122.707 161.948 123.023 162.378C124.488 164.03 127.555 163.229 129.183 162.29C130.12 161.744 130.936 161.013 131.581 160.141C132.227 159.27 132.689 158.276 132.938 157.22C133.273 156.127 133.17 154.946 132.65 153.928C132.275 153.516 131.796 153.211 131.263 153.046C130.731 152.881 130.164 152.861 129.621 152.989C126.202 153.198 122.797 153.582 119.418 154.141C118.529 154.291 118.905 155.63 119.781 155.493L119.831 155.455Z" fill="#3B3B3B"/>
<path d="M123.299 158.873C115.755 161.112 107.905 162.142 100.04 161.927C96.314 161.736 92.5796 162.043 88.9356 162.841C85.3312 163.821 81.8072 165.077 78.3949 166.597C65.0376 172.205 52.7194 180.004 39.2244 185.274C32.7648 187.778 25.7419 190.194 19.1947 186.676C16.6493 185.214 14.4201 183.259 12.6363 180.928C10.8526 178.596 9.55005 175.933 8.80429 173.094C4.92354 159.236 13.8117 144.814 21.8737 134.286C31.084 122.261 42.6972 112.284 55.9742 104.993C56.7629 104.567 56.0618 103.365 55.2732 103.741C43.0507 110.453 32.2104 119.42 23.3258 130.168C18.7347 135.603 14.7744 141.541 11.5208 147.869C8.29101 154.341 6.03765 161.577 6.65106 168.887C7.64002 180.617 17.4671 191.709 29.9231 189.593C33.7239 188.805 37.4296 187.613 40.977 186.038C44.4196 184.648 47.7996 183.096 51.1421 181.469C58.0273 178.114 64.7497 174.446 71.6599 171.128C79.4965 167.373 87.934 163.342 96.8472 163.304C101.441 163.437 106.038 163.311 110.618 162.929C115.049 162.425 119.427 161.528 123.7 160.25C123.857 160.183 123.985 160.062 124.059 159.908C124.133 159.754 124.149 159.579 124.103 159.414C124.057 159.25 123.952 159.108 123.809 159.015C123.665 158.922 123.493 158.885 123.324 158.91L123.299 158.873Z" fill="#3B3B3B"/>
<path d="M141.063 134.174C140.97 134.857 141.082 135.553 141.385 136.173C141.688 136.792 142.169 137.308 142.765 137.654C144.071 138.334 145.542 138.633 147.009 138.518C147.177 138.495 147.332 138.412 147.443 138.284C147.555 138.157 147.617 137.993 147.617 137.823C147.617 137.653 147.555 137.489 147.443 137.361C147.332 137.234 147.177 137.151 147.009 137.128C145.871 137.218 144.728 137.029 143.679 136.577C143.285 136.372 142.949 136.071 142.703 135.701C142.577 135.515 142.487 135.307 142.44 135.088C142.409 134.91 142.409 134.727 142.44 134.549C142.483 134.37 142.457 134.181 142.366 134.021C142.276 133.861 142.127 133.741 141.952 133.686C141.772 133.639 141.582 133.664 141.421 133.755C141.26 133.846 141.14 133.996 141.088 134.174H141.063Z" fill="#3B3B3B"/>
<path d="M72.3609 141.86C69.7805 131.064 65.8875 120.625 60.7688 110.776C58.6281 106.683 56.3372 102.389 52.7945 99.3218C50.1656 97.056 44.9328 94.0891 42.1412 97.6569C38.7737 101.951 42.8923 106.896 43.9188 111.164C44.1316 112.028 45.4711 111.665 45.2583 110.789C44.3695 107.033 40.7766 102.952 42.8797 99.059C45.2708 94.6524 51.5426 99.7975 53.5831 102.076C56.3206 105.431 58.606 109.13 60.3807 113.08C62.5879 117.452 64.548 121.945 66.2519 126.537C68.1603 131.667 69.749 136.909 71.009 142.235C71.2218 143.112 72.5612 142.736 72.3609 141.86Z" fill="#3B3B3B"/>
<path d="M43.6559 97.5321C50.7914 93.2007 58.7908 90.7846 66.8528 88.8692C70.8462 87.9178 74.8646 87.0791 78.858 86.1652C82.8256 85.4297 86.7242 84.3619 90.5128 82.973C93.9179 81.5459 96.672 79.0922 96.5718 75.1864C96.5492 75.0182 96.4663 74.8639 96.3385 74.7522C96.2108 74.6405 96.0468 74.5789 95.877 74.5789C95.7073 74.5789 95.5433 74.6405 95.4155 74.7522C95.2878 74.8639 95.2049 75.0182 95.1823 75.1864C95.3075 80.5569 89.2484 82.1092 85.0422 83.2233C80.2226 84.4752 75.3404 85.5142 70.4707 86.6034C60.9566 88.7315 51.3799 91.2227 42.9298 96.3303C42.1662 96.7935 42.9298 97.9952 43.6309 97.5821L43.6559 97.5321Z" fill="#3B3B3B"/>
<path d="M63.8734 174.483C62.8886 183.864 62.3503 193.27 62.2585 202.7C62.2585 202.886 62.3324 203.065 62.4639 203.196C62.5953 203.327 62.7737 203.401 62.9596 203.401C63.1455 203.401 63.3238 203.327 63.4552 203.196C63.5867 203.065 63.6606 202.886 63.6606 202.7C63.7357 193.27 64.2698 183.864 65.263 174.483C65.3631 173.595 64.0111 173.607 63.8734 174.483Z" fill="#3B3B3B"/>
<path d="M110.856 64.921C113.44 68.2332 116.568 71.0822 120.107 73.346C123.556 75.4016 127.289 76.937 131.186 77.9027C136.193 79.2547 141.288 80.0809 146.283 81.3704C150.939 82.5322 155.41 84.3398 159.565 86.7408C164.105 89.4319 168.177 92.844 171.621 96.8433C172.209 97.5193 173.186 96.5303 172.61 95.8543C166.741 89.0637 159.139 83.9929 150.615 81.1826C141.501 78.1907 131.461 77.8151 122.861 73.3209C118.574 70.9896 114.818 67.7923 111.832 63.932C111.269 63.231 110.292 64.2324 110.856 64.921Z" fill="#3B3B3B"/>
<path d="M225.863 142.048C221.394 143.112 219.491 137.591 218.352 134.424C217.276 131.557 215.423 127.752 211.893 127.501C208.362 127.251 207.348 131.257 207.712 134.073C208.059 136.143 208.695 138.153 209.602 140.045C210.328 141.829 211.216 143.543 212.256 145.165C214.409 148.395 217.739 151.011 221.782 150.998C221.951 150.976 222.105 150.893 222.217 150.765C222.328 150.637 222.39 150.473 222.39 150.304C222.39 150.134 222.328 149.97 222.217 149.842C222.105 149.714 221.951 149.632 221.782 149.609C218.315 149.609 215.435 147.368 213.558 144.601C211.546 141.652 210.091 138.36 209.264 134.887C209.008 134.06 208.924 133.189 209.016 132.328C209.109 131.467 209.376 130.634 209.802 129.88C211.054 128.215 213.12 129.053 214.359 130.243C216.737 132.509 217.226 136.064 218.653 138.893C220.08 141.722 222.909 144.238 226.302 143.425C227.165 143.224 226.802 141.872 225.926 142.085L225.863 142.048Z" fill="#3B3B3B"/>
<path d="M207.724 131.858C202.504 135.613 203.468 143.35 205.972 148.395C207.383 151.239 209.426 153.723 211.946 155.656C214.465 157.59 217.393 158.921 220.506 159.549C221.382 159.724 221.757 158.384 220.881 158.209C218.137 157.66 215.545 156.524 213.28 154.88C211.016 153.236 209.133 151.122 207.762 148.683C205.258 144.301 203.606 136.54 208.475 133.059C209.201 132.546 208.475 131.344 207.774 131.808L207.724 131.858Z" fill="#3B3B3B"/>
<path d="M204.232 140.032C201.728 141.434 201.352 144.802 201.402 147.418C201.509 150.775 202.447 154.052 204.131 156.957C207.411 162.741 213.182 166.572 219.366 168.662C220.218 168.95 220.618 167.598 219.742 167.31C214.178 165.634 209.332 162.149 205.972 157.408C204.379 155.015 203.332 152.301 202.905 149.459C202.542 146.955 202.304 142.649 204.87 141.247C205.659 140.808 204.958 139.607 204.169 139.995L204.232 140.032Z" fill="#3B3B3B"/>
<path d="M203.142 155.706C199.387 162.428 206.41 168.963 211.079 172.881C213.72 175.188 216.74 177.022 220.005 178.302C222.872 179.366 226.602 180.167 229.081 177.826C231.559 175.485 232.561 171.304 233.162 168.099C233.786 164.289 234.066 160.43 234.001 156.57C234.063 147.681 233.75 138.806 233.387 129.93C233.3 127.877 233.387 125.786 233.049 123.758C233.012 122.991 232.811 122.24 232.462 121.556C232.112 120.872 231.621 120.27 231.021 119.79C230.443 119.484 229.794 119.335 229.14 119.358C228.486 119.38 227.849 119.572 227.293 119.917C226.736 120.261 226.279 120.744 225.967 121.319C225.655 121.894 225.498 122.541 225.513 123.195C225.588 124.071 226.978 124.084 226.903 123.195C226.884 122.861 226.937 122.528 227.056 122.216C227.176 121.904 227.36 121.621 227.596 121.384C227.832 121.148 228.115 120.964 228.427 120.845C228.739 120.726 229.073 120.673 229.406 120.691C231.146 120.829 231.622 122.995 231.772 124.384C232.123 127.689 232.085 131.094 232.21 134.399C232.473 141.435 232.674 148.47 232.649 155.505C232.649 161.827 232.649 168.525 229.794 174.346C229.285 175.768 228.257 176.944 226.915 177.638C225.362 178.125 223.692 178.095 222.158 177.551C219.266 176.718 216.553 175.355 214.159 173.532C211.44 171.544 208.95 169.26 206.735 166.722C204.307 163.93 202.379 159.987 204.394 156.419C204.487 156.253 204.51 156.057 204.459 155.874C204.407 155.691 204.285 155.536 204.119 155.443C203.953 155.35 203.757 155.327 203.574 155.378C203.39 155.43 203.235 155.552 203.142 155.718V155.706Z" fill="#3B3B3B"/>
<path d="M227.766 120.616C227.601 122.203 227.888 123.804 228.593 125.235C228.955 125.89 229.509 126.419 230.18 126.75C230.851 127.081 231.608 127.199 232.348 127.088C232.525 127.038 232.675 126.921 232.766 126.762C232.857 126.603 232.883 126.414 232.836 126.237C232.781 126.061 232.661 125.913 232.501 125.822C232.341 125.731 232.152 125.705 231.973 125.748C231.531 125.796 231.087 125.685 230.721 125.436C230.303 125.147 229.964 124.76 229.732 124.309C229.262 123.138 229.085 121.87 229.219 120.616C229.196 120.448 229.113 120.293 228.985 120.182C228.857 120.07 228.693 120.008 228.524 120.008C228.354 120.008 228.19 120.07 228.062 120.182C227.934 120.293 227.852 120.448 227.829 120.616H227.766Z" fill="#3B3B3B"/>
<path d="M211.83 128.615C212.517 130.085 212.607 131.763 212.081 133.297C211.821 133.918 211.438 134.48 210.953 134.947C210.469 135.414 209.894 135.777 209.264 136.014C208.425 136.314 208.776 137.666 209.627 137.366C210.435 137.075 211.176 136.625 211.806 136.042C212.436 135.46 212.942 134.756 213.295 133.973C214.009 132.121 213.968 130.063 213.182 128.24C212.882 127.401 211.53 127.764 211.83 128.615Z" fill="#3B3B3B"/>
<path d="M205.634 141.998C206.24 142 206.838 141.856 207.377 141.577C207.915 141.298 208.378 140.892 208.726 140.395C209.294 139.436 209.625 138.354 209.69 137.241C209.691 137.149 209.674 137.057 209.64 136.972C209.605 136.887 209.553 136.81 209.487 136.745C209.422 136.681 209.344 136.631 209.258 136.597C209.172 136.564 209.08 136.549 208.988 136.552C208.807 136.555 208.634 136.629 208.505 136.757C208.377 136.886 208.303 137.059 208.3 137.241V137.316C208.3 137.316 208.3 137.416 208.3 137.466C208.3 137.516 208.3 137.704 208.3 137.817C208.3 137.929 208.212 138.242 208.15 138.443C208.098 138.669 208.027 138.891 207.937 139.106C207.937 139.018 207.937 139.106 207.937 139.106C207.939 139.152 207.939 139.198 207.937 139.244L207.762 139.544C207.735 139.588 207.706 139.63 207.674 139.669C207.601 139.759 207.522 139.842 207.436 139.92L207.323 140.032L207.023 140.22L206.873 140.295C206.698 140.395 206.998 140.295 206.798 140.295L206.485 140.395H206.322H205.921C205.739 140.395 205.564 140.468 205.435 140.597C205.306 140.726 205.233 140.901 205.233 141.084C205.233 141.268 205.305 141.444 205.434 141.575C205.563 141.706 205.738 141.782 205.921 141.785L205.634 141.998Z" fill="#3B3B3B"/>
<path d="M202.779 148.77C203.583 148.71 204.342 148.379 204.933 147.832C205.491 147.319 205.865 146.637 205.997 145.891C206.035 145.708 206.008 145.518 205.921 145.353C205.826 145.202 205.679 145.091 205.508 145.04C205.419 145.012 205.325 145.003 205.233 145.014C205.14 145.025 205.05 145.055 204.97 145.103C204.89 145.148 204.82 145.209 204.764 145.282C204.708 145.355 204.668 145.439 204.645 145.528C204.623 145.673 204.59 145.815 204.544 145.954V146.079C204.544 146.192 204.544 145.929 204.544 146.079L204.444 146.279C204.374 146.406 204.294 146.527 204.206 146.642C204.344 146.442 204.206 146.642 204.206 146.642C204.155 146.7 204.101 146.754 204.044 146.805L203.881 146.955C203.768 147.043 203.969 146.893 203.881 146.955L203.781 147.03L203.405 147.243H203.305L203.092 147.306H202.892C202.892 147.306 202.704 147.306 202.892 147.306C203.08 147.306 202.892 147.306 202.892 147.306C202.707 147.309 202.531 147.384 202.4 147.515C202.269 147.645 202.194 147.822 202.191 148.007C202.194 148.191 202.27 148.366 202.401 148.494C202.532 148.623 202.708 148.695 202.892 148.695L202.779 148.77Z" fill="#3B3B3B"/>
<path d="M203.856 161.552C204.52 161.552 205.157 161.288 205.626 160.818C206.096 160.349 206.36 159.712 206.36 159.048C206.36 158.864 206.288 158.688 206.159 158.557C206.03 158.426 205.855 158.35 205.671 158.347C205.486 158.35 205.31 158.425 205.179 158.556C205.048 158.687 204.973 158.863 204.97 159.048C204.976 159.123 204.976 159.198 204.97 159.273V159.086C204.948 159.236 204.906 159.384 204.845 159.524L204.92 159.361C204.858 159.504 204.778 159.638 204.682 159.762L204.782 159.624C204.689 159.755 204.575 159.869 204.444 159.962L204.595 159.849C204.469 159.952 204.33 160.036 204.181 160.1L204.344 160.024C204.209 160.085 204.065 160.127 203.919 160.15H204.106H203.843C203.658 160.15 203.479 160.223 203.348 160.355C203.216 160.486 203.142 160.665 203.142 160.851C203.142 161.037 203.216 161.215 203.348 161.346C203.479 161.478 203.658 161.552 203.843 161.552H203.856Z" fill="#3B3B3B"/>
<path d="M82.3758 84.8252C85.7558 92.9747 94.5313 95.9416 102.405 98.0072C102.583 98.0553 102.773 98.031 102.932 97.9394C103.092 97.8479 103.209 97.6966 103.257 97.519C103.305 97.3414 103.281 97.1519 103.189 96.9922C103.097 96.8326 102.946 96.7159 102.769 96.6677C95.4953 94.7524 86.8825 92.0734 83.7404 84.4496C83.4024 83.6359 82.0503 83.9989 82.3883 84.8252H82.3758Z" fill="#3B3B3B"/>
<path d="M129.896 91.936C133.612 88.3263 135.768 83.4066 135.905 78.2282C135.883 78.0599 135.8 77.9056 135.672 77.7939C135.544 77.6822 135.38 77.6206 135.21 77.6206C135.041 77.6206 134.877 77.6822 134.749 77.7939C134.621 77.9056 134.538 78.0599 134.516 78.2282C134.374 83.0364 132.362 87.5998 128.907 90.947C128.269 91.5729 129.245 92.5494 129.896 91.936Z" fill="#3B3B3B"/>
<path d="M70.0075 54.0549C70.5959 54.6558 70.7962 55.4194 70.4457 55.7825C70.0951 56.1455 69.319 55.9327 68.7181 55.3318C68.1172 54.7309 67.9169 53.9673 68.28 53.6043C68.643 53.2412 69.4066 53.4916 70.0075 54.0549Z" fill="#3B3B3B"/>
<path d="M76.1165 47.57C76.7299 48.1834 76.9302 48.972 76.5672 49.3351C76.2042 49.6981 75.4154 49.4853 74.802 48.8719C74.1886 48.2585 73.9883 47.4698 74.3514 47.1068C74.7144 46.7437 75.5031 46.9566 76.1165 47.57Z" fill="#3B3B3B"/>
<path d="M72.1858 55.1439C72.9856 55.7956 73.7308 56.5115 74.4141 57.2846C74.4781 57.3489 74.5542 57.4 74.6379 57.4348C74.7217 57.4697 74.8116 57.4876 74.9023 57.4876C74.9931 57.4876 75.0829 57.4697 75.1667 57.4348C75.2505 57.4 75.3266 57.3489 75.3906 57.2846C75.5213 57.1532 75.5946 56.9754 75.5946 56.7901C75.5946 56.6048 75.5213 56.427 75.3906 56.2956C74.7148 55.5198 73.9734 54.8035 73.1747 54.1549C73.0418 54.0272 72.8646 53.9558 72.6802 53.9558C72.4959 53.9558 72.3187 54.0272 72.1858 54.1549C72.0581 54.2878 71.9867 54.4651 71.9867 54.6494C71.9867 54.8338 72.0581 55.011 72.1858 55.1439Z" fill="#3B3B3B"/>
<path d="M79.1334 58.8743C80.26 57.4739 80.9091 55.7501 80.9862 53.9545C80.9829 53.7696 80.908 53.5931 80.7773 53.4623C80.6465 53.3315 80.47 53.2566 80.2851 53.2534C80.1002 53.2566 79.9238 53.3315 79.793 53.4623C79.6622 53.5931 79.5873 53.7696 79.5841 53.9545C79.56 54.6824 79.4162 55.4014 79.1585 56.0826C78.9026 56.7261 78.5615 57.3324 78.1445 57.8853C78.0719 57.9484 78.0129 58.0257 77.9714 58.1126C77.93 58.1994 77.9069 58.2938 77.9035 58.39C77.9001 58.4861 77.9165 58.582 77.9518 58.6715C77.9871 58.761 78.0403 58.8423 78.1084 58.9103C78.1764 58.9784 78.2578 59.0317 78.3473 59.0669C78.4368 59.1022 78.5326 59.1186 78.6288 59.1152C78.7249 59.1118 78.8193 59.0887 78.9061 59.0473C78.9929 59.0058 79.0704 58.9469 79.1334 58.8743Z" fill="#3B3B3B"/>
<path d="M82.3132 57.3099L82.4385 57.0345C82.499 56.9607 82.5303 56.8671 82.5261 56.7716C82.5506 56.6815 82.5506 56.5864 82.5261 56.4962C82.5021 56.4088 82.4593 56.3277 82.4009 56.2584C82.3546 56.1846 82.2899 56.1242 82.2132 56.0831L82.0379 56.008C81.9182 55.983 81.7945 55.983 81.6748 56.008L81.4996 56.0831C81.3985 56.1468 81.3129 56.2324 81.2492 56.3335C81.2492 56.4211 81.1616 56.5087 81.1115 56.6089C81.0623 56.6831 81.0362 56.7702 81.0364 56.8592C81.0115 56.9536 81.0115 57.0528 81.0364 57.1472C81.0912 57.3162 81.2015 57.4618 81.3494 57.5603L81.5246 57.6229C81.6427 57.6603 81.7695 57.6603 81.8877 57.6229L82.0629 57.5603C82.1639 57.4965 82.2495 57.411 82.3132 57.3099Z" fill="#3B3B3B"/>
<path d="M65.6886 54.4058C65.7379 54.144 65.8005 53.885 65.8763 53.6296C65.8763 53.5045 65.964 53.3792 66.0141 53.2541V53.1539C66.0141 53.0663 66.0141 53.1539 66.0141 53.1539C66.0507 53.0863 66.08 53.0149 66.1016 52.9411C66.2188 52.7049 66.3484 52.4751 66.4897 52.2526L66.7151 51.9271C66.7151 51.9271 66.8027 51.8144 66.7151 51.9271C66.7571 51.8657 66.8031 51.8072 66.8528 51.7519C66.9798 51.621 67.0508 51.4459 67.0508 51.2636C67.0508 51.0813 66.9798 50.9062 66.8528 50.7754C66.7214 50.6447 66.5436 50.5713 66.3583 50.5713C66.173 50.5713 65.9952 50.6447 65.8638 50.7754C65.0488 51.706 64.4997 52.839 64.274 54.0553C64.2306 54.2343 64.2568 54.4232 64.3475 54.5835C64.4381 54.7439 64.5864 54.8639 64.7622 54.919C64.9398 54.9652 65.1284 54.94 65.2875 54.8487C65.4467 54.7574 65.5637 54.6074 65.6135 54.4308L65.6886 54.4058Z" fill="#3B3B3B"/>
<path d="M72.2858 45.6924C72.5612 45.5172 72.8367 45.3419 73.1246 45.1791L73.5878 44.9413L73.8257 44.8286L73.9884 44.766H74.101L74.3514 44.6784L74.8146 44.5157C75.1391 44.4131 75.4693 44.3295 75.8035 44.2653C75.9828 44.2155 76.135 44.0965 76.2266 43.9345C76.3182 43.7725 76.3416 43.5808 76.2918 43.4015C76.242 43.2222 76.123 43.0701 75.961 42.9785C75.799 42.8869 75.6073 42.8635 75.428 42.9133C74.0419 43.2149 72.7253 43.7755 71.5473 44.5658C71.3914 44.6619 71.2785 44.8143 71.2319 44.9914C71.1853 45.1685 71.2086 45.3567 71.2969 45.5171C71.3908 45.6754 71.5433 45.7904 71.7213 45.8372C71.8993 45.8841 72.0886 45.859 72.2483 45.7675L72.2858 45.6924Z" fill="#3B3B3B"/>
<path d="M80.8861 38.6818C80.3914 37.1657 80.1338 35.5822 80.1225 33.9874C80.1254 33.1875 80.312 32.399 80.668 31.6827C81.024 30.9664 81.5397 30.3415 82.1756 29.8562C84.1159 28.6044 86.87 29.3054 88.6476 30.8452C90.8759 32.7605 92.0277 36.2282 90.5004 38.7319C89.8996 39.7209 88.8981 40.6973 89.2486 41.8115C89.4359 42.3062 89.7566 42.7395 90.1749 43.0633C92.7178 45.5282 95.4192 47.824 98.2619 49.936C98.7097 49.1117 98.9338 48.1844 98.9119 47.2466C98.8899 46.3088 98.6226 45.393 98.1367 44.5906C97.148 43.0046 96.2697 41.3524 95.5079 39.6457C94.4939 36.6162 95.5078 33.2863 95.1322 30.1066C95.0063 28.6954 94.5886 27.3257 93.9055 26.0844C93.2223 24.8432 92.2887 23.7574 91.1639 22.8959C90.0225 22.0517 88.6795 21.5219 87.2692 21.3593C85.8588 21.1968 84.4305 21.4072 83.127 21.9695C82.963 20.7589 82.4992 19.6084 81.7778 18.6224C81.0564 17.6365 80.1001 16.8463 78.9959 16.3237C76.7649 15.2988 74.2648 15.0137 71.8603 15.51C66.7027 16.3988 62.0458 20.6426 59.8175 25.3746C54.0965 26.1507 49.8026 31.1832 47.737 36.6413C47.1711 37.8099 47.0466 39.1437 47.3865 40.3968C47.4802 40.698 47.6392 40.9748 47.8522 41.2074C48.0653 41.44 48.3271 41.6226 48.6189 41.7422C48.9108 41.8618 49.2255 41.9155 49.5405 41.8993C49.8554 41.8832 50.163 41.7976 50.4411 41.6487C48.675 43.8235 47.3639 46.3309 46.5853 49.0222C45.9919 50.8446 45.8798 52.7894 46.2598 54.668C46.4668 55.6034 46.9054 56.4718 47.5354 57.1936C48.1653 57.9154 48.9664 58.4675 49.8652 58.7991C50.7778 59.0824 51.7624 59.0224 52.6339 58.6305C53.5053 58.2386 54.2036 57.5417 54.5972 56.671C54.3694 57.4005 54.3185 58.1737 54.4485 58.9268C54.5785 59.6799 54.8856 60.3913 55.3447 61.0023C55.8038 61.6133 56.4016 62.1063 57.0888 62.4407C57.776 62.7752 58.5328 62.9414 59.2969 62.9257C60.061 62.91 60.8103 62.7128 61.4832 62.3505C62.1561 61.9881 62.7332 61.4709 63.1668 60.8416C63.6004 60.2123 63.878 59.4888 63.977 58.731C64.0759 57.9732 63.9933 57.2027 63.7358 56.4832C62.4839 53.1533 59.8049 50.4618 59.3918 46.9441C59.175 45.4385 59.2948 43.9036 59.7423 42.4499C60.869 39.12 64.1363 36.9793 67.4412 35.8151C68.4518 35.4325 69.5082 35.1842 70.5834 35.0765C74.2889 34.6258 77.6939 36.6538 80.8861 38.6818Z" fill="#3B3B3B"/>
<path d="M16.4531 108.398C16.0028 108.403 15.559 108.29 15.1659 108.071C14.7727 107.851 14.444 107.532 14.2123 107.146C10.0186 100.173 0.254089 83.2108 0.254089 76.263C0.254089 71.9667 1.96077 67.8464 4.99867 64.8085C8.03657 61.7706 12.1569 60.064 16.4531 60.064C20.7493 60.064 24.8696 61.7706 27.9075 64.8085C30.9454 67.8464 32.6521 71.9667 32.6521 76.263C32.6521 83.2108 22.8877 100.173 18.6814 107.146C18.4508 107.531 18.124 107.848 17.7332 108.068C17.3425 108.287 16.9013 108.401 16.4531 108.398ZM16.4531 61.1531C12.4534 61.1564 8.61841 62.7468 5.79017 65.575C2.96193 68.4033 1.37157 72.2382 1.36826 76.238C1.36826 82.9103 11.0201 99.6602 15.1387 106.558C15.2828 106.755 15.4713 106.914 15.6888 107.025C15.9063 107.135 16.1467 107.192 16.3905 107.192C16.6344 107.192 16.8748 107.135 17.0922 107.025C17.3097 106.914 17.4982 106.755 17.6424 106.558C21.7985 99.6602 31.4128 82.9103 31.4128 76.238C31.4097 72.2598 29.8365 68.4436 27.0353 65.619C24.234 62.7943 20.4311 61.1894 16.4531 61.1531Z" fill="#3B3B3B"/>
<path d="M16.4532 84.5126C15.1067 84.5155 13.7794 84.1931 12.5841 83.573C11.3889 82.9529 10.3612 82.0533 9.58822 80.9508C8.81523 79.8483 8.31988 78.5754 8.14435 77.2404C7.96882 75.9053 8.11831 74.5477 8.58002 73.2828C9.04173 72.0179 9.802 70.8833 10.7963 69.9752C11.7906 69.0672 12.9894 68.4128 14.2909 68.0675C15.5924 67.7222 16.958 67.6963 18.2717 67.9919C19.5853 68.2876 20.8081 68.8961 21.8361 69.7657C21.892 69.8126 21.9382 69.87 21.9719 69.9347C22.0056 69.9994 22.0263 70.07 22.0327 70.1427C22.039 70.2153 22.031 70.2886 22.0091 70.3581C21.9872 70.4277 21.9518 70.4923 21.905 70.5482C21.8581 70.604 21.8007 70.6502 21.736 70.6839C21.6714 70.7176 21.6007 70.7382 21.5281 70.7446C21.4554 70.751 21.3822 70.743 21.3127 70.7211C21.2431 70.6992 21.1785 70.6639 21.1226 70.617C19.8734 69.5355 18.2923 68.9133 16.6411 68.8534C14.9898 68.7935 13.3677 69.2995 12.0435 70.2876C10.7192 71.2758 9.77232 72.6868 9.35968 74.2867C8.94705 75.8867 9.09341 77.5795 9.77457 79.0849C10.4557 80.5903 11.6308 81.8177 13.105 82.5639C14.5792 83.3101 16.2641 83.5301 17.8805 83.1877C19.497 82.8452 20.9479 81.9607 21.9928 80.6809C23.0378 79.401 23.6141 77.8025 23.6263 76.1502C23.6296 76.003 23.6904 75.8629 23.7957 75.76C23.901 75.657 24.0424 75.5994 24.1896 75.5994C24.262 75.5994 24.3336 75.6137 24.4004 75.6413C24.4673 75.669 24.528 75.7096 24.5792 75.7607C24.6303 75.8119 24.6708 75.8726 24.6985 75.9394C24.7262 76.0063 24.7404 76.0779 24.7404 76.1502C24.7405 78.3551 23.8699 80.4708 22.3178 82.0369C20.7658 83.603 18.658 84.4928 16.4532 84.5126Z" fill="#3B3B3B"/>
<path d="M162.795 41.3484C185.417 41.3484 203.756 32.3527 203.756 21.2561C203.756 10.1594 185.417 1.16382 162.795 1.16382C140.173 1.16382 121.834 10.1594 121.834 21.2561C121.834 32.3527 140.173 41.3484 162.795 41.3484Z" fill="#53D86A"/>
<path d="M133.301 57.8107C133.151 57.8121 133.002 57.7822 132.863 57.723C131.399 57.1472 130.359 53.0411 128.632 44.4534C127.781 40.3348 126.616 34.6889 125.878 34.1756C119.919 30.4201 116.764 25.9509 116.764 21.1814C116.764 9.50156 136.393 0 160.579 0C184.765 0 204.394 9.50156 204.394 21.1814C204.394 32.8612 184.753 42.3628 160.579 42.3628C154.264 42.392 147.966 41.716 141.801 40.3473C140.662 40.0969 138.822 45.7929 137.733 49.2104C136.181 54.0676 135.167 57.0721 133.865 57.6855C133.691 57.7743 133.497 57.8174 133.301 57.8107ZM160.542 1.11413C137.007 1.11413 117.879 10.115 117.879 21.1438C117.879 25.5128 120.845 29.6815 126.479 33.1867C127.493 33.8251 128.244 37.0299 129.721 44.1905C130.71 48.9851 132.225 56.2333 133.276 56.709C134.278 56.2459 135.592 52.1648 136.631 48.8849C138.647 42.6257 140.011 38.8075 142.014 39.2707C148.096 40.6249 154.311 41.2926 160.542 41.2611C184.064 41.2611 203.205 32.2603 203.205 21.2315C203.205 10.2026 184.064 1.12666 160.542 1.12666V1.11413Z" fill="#3B3B3B"/>
<path d="M164.034 21.1436C164.034 21.8374 163.828 22.5156 163.443 23.0923C163.057 23.669 162.509 24.1183 161.868 24.3832C161.226 24.6481 160.521 24.7168 159.841 24.5805C159.16 24.4443 158.536 24.1092 158.046 23.6177C157.556 23.1263 157.224 22.5005 157.09 21.8198C156.956 21.139 157.027 20.4338 157.294 19.7936C157.562 19.1533 158.013 18.6067 158.591 18.2231C159.169 17.8394 159.848 17.636 160.542 17.6385C161.469 17.6418 162.357 18.0125 163.012 18.6695C163.667 19.3265 164.034 20.2162 164.034 21.1436Z" fill="#3B3B3B"/>
<path d="M152.542 21.1436C152.542 21.8374 152.336 22.5156 151.951 23.0923C151.565 23.669 151.017 24.1183 150.376 24.3832C149.734 24.6481 149.029 24.7168 148.349 24.5805C147.668 24.4443 147.044 24.1092 146.554 23.6177C146.065 23.1263 145.732 22.5005 145.598 21.8198C145.464 21.139 145.535 20.4338 145.802 19.7936C146.07 19.1533 146.521 18.6067 147.099 18.2231C147.677 17.8394 148.356 17.636 149.05 17.6385C149.977 17.6418 150.866 18.0125 151.52 18.6695C152.175 19.3265 152.542 20.2162 152.542 21.1436Z" fill="#3B3B3B"/>
<path d="M175.526 21.1436C175.526 21.8374 175.32 22.5156 174.935 23.0923C174.549 23.669 174.001 24.1183 173.36 24.3832C172.718 24.6481 172.013 24.7168 171.333 24.5805C170.652 24.4443 170.028 24.1092 169.538 23.6177C169.048 23.1263 168.716 22.5005 168.582 21.8198C168.448 21.139 168.519 20.4338 168.786 19.7936C169.054 19.1533 169.505 18.6067 170.083 18.2231C170.661 17.8394 171.34 17.636 172.034 17.6385C172.961 17.6418 173.849 18.0125 174.504 18.6695C175.159 19.3265 175.526 20.2162 175.526 21.1436Z" fill="#3B3B3B"/>
</svg>
