<svg width="101" height="101" viewBox="0 0 101 101" fill="none" xmlns="http://www.w3.org/2000/svg">
<g clip-path="url(#clip0)">
<path d="M83.0195 53.3862C82.2158 53.3862 81.5643 54.0378 81.5643 54.8415C81.5643 55.8604 80.7354 56.6894 79.7164 56.6894C78.6977 56.6894 77.8686 55.8604 77.8686 54.8415C77.8686 54.0376 77.217 53.3862 76.4133 53.3862C75.6096 53.3862 74.958 54.0378 74.958 54.8415C74.958 57.4653 77.0928 59.5999 79.7164 59.5999C82.34 59.5999 84.4748 57.4651 84.4748 54.8415C84.4748 54.0374 83.8232 53.3862 83.0195 53.3862Z" fill="#005BF3"/>
<path d="M96.6805 53.624L92.5844 52.3119C92.0598 52.1437 91.6463 51.725 91.4785 51.1916C90.6152 48.4469 89.3125 45.8701 87.6064 43.5326C86.8289 42.4672 85.9643 41.4498 85.0197 40.4812C85.624 37.8303 85.9525 34.8301 85.91 32.2381C85.849 28.5301 85.108 26.3553 83.6447 25.5889C82.8566 25.1756 80.4582 23.9201 67.4764 29.8627C67.1689 30.0033 66.8818 30.1766 66.616 30.375C65.7408 30.1398 64.8463 29.9223 63.9463 29.727C63.8379 29.7033 63.7262 29.6824 63.617 29.6594C64.6689 27.3613 65.2832 24.8654 65.3986 22.2889C65.4346 21.4857 64.8129 20.8057 64.0098 20.7699C63.2088 20.7301 62.5266 21.3555 62.4908 22.1586C62.3012 26.3951 60.5438 30.3812 57.5426 33.3826C55.7494 35.1758 53.6498 36.4783 51.4121 37.2986C47.5314 36.7541 43.5787 36.7541 39.698 37.2986C37.4602 36.4783 35.3607 35.1758 33.5676 33.3826C30.3656 30.1807 28.6021 25.9234 28.6021 21.3951C28.6021 16.8666 30.3656 12.6096 33.5676 9.40762C36.7695 6.20547 41.027 4.44199 45.5551 4.44199C50.0832 4.44199 54.3406 6.20547 57.5426 9.40762C58.8293 10.6943 59.8926 12.1627 60.7029 13.7715C61.0645 14.4895 61.9396 14.7785 62.6574 14.4168C63.3754 14.0555 63.6643 13.1803 63.3027 12.4625C62.3529 10.576 61.1074 8.85586 59.601 7.34922C55.8492 3.59746 50.8609 1.53125 45.5553 1.53125C40.2496 1.53125 35.2613 3.59746 31.5096 7.34922C27.7578 11.1012 25.6916 16.0893 25.6916 21.3949C25.6916 26.7006 27.7578 31.6889 31.5096 35.4406C32.5918 36.5229 33.7691 37.4535 35.0145 38.2332C35.0148 38.2332 35.0152 38.233 35.0156 38.233C34.1107 38.4682 33.2127 38.7322 32.3246 39.0291C31.5623 39.284 31.151 40.1084 31.4059 40.8709C31.6605 41.6332 32.4854 42.0445 33.2475 41.7898C41.1842 39.1365 49.9264 39.1365 57.8631 41.7898C58.0162 41.841 58.1717 41.8652 58.3246 41.8652C58.9334 41.8652 59.501 41.4801 59.7047 40.8709C59.9596 40.1086 59.5482 39.284 58.7859 39.0291C57.8979 38.7322 56.9998 38.468 56.0949 38.233C56.0953 38.233 56.0957 38.2332 56.0961 38.2332C57.3416 37.4535 58.5187 36.5229 59.601 35.4406C60.5584 34.4832 61.4035 33.4377 62.1373 32.3266C62.5385 32.4045 62.9367 32.4861 63.3291 32.5713C63.8518 32.6848 64.3721 32.8066 64.8877 32.9346C64.8715 32.9978 64.8549 33.0609 64.8414 33.1252C64.1316 36.4934 64.1777 39.4723 64.9783 41.9787C65.6979 44.2316 66.9965 46.0568 68.8377 47.4039C71.0078 48.9914 73.6277 49.6771 76.001 49.6771C77.7871 49.6771 79.4338 49.2885 80.6432 48.6035C82.0111 47.8287 83.1572 46.1961 84.0645 43.7449C84.4838 44.2344 84.8813 44.7357 85.2559 45.249C86.7748 47.3299 87.9344 49.6232 88.7023 52.065C89.1533 53.4992 90.2729 54.6277 91.6969 55.0842L95.793 56.3963C96.8678 56.7406 97.5898 57.7299 97.5898 58.8584V65.6504C97.5898 66.7789 96.8678 67.7682 95.793 68.1125L89.1936 70.2264C88.1377 70.5648 87.2441 71.2904 86.6775 72.2697C84.0848 76.7506 80.0084 80.4586 74.5609 83.2908C73.9316 83.6184 73.4957 84.2041 73.3645 84.8982L71.2508 96.0902C71.1924 96.3986 70.9223 96.6223 70.6084 96.6223H63.7359C63.4221 96.6223 63.152 96.3984 63.0936 96.0902L61.9228 89.9049C61.6924 88.6879 60.551 87.8795 59.3225 88.0656C56.3621 88.5133 53.3117 88.74 50.2564 88.74C47.9834 88.74 45.7395 88.6133 43.5865 88.3631C42.3961 88.2262 41.2871 89.0377 41.0646 90.2131L39.9521 96.0902C39.8937 96.3986 39.6236 96.6223 39.3098 96.6223H32.4373C32.1234 96.6223 31.8533 96.3984 31.7941 96.0855L29.759 85.5148C29.6279 84.8338 29.2002 84.2547 28.5848 83.926C19.2988 78.9688 14.3906 70.6867 14.3906 59.9758C14.3906 54.5641 15.5746 49.7787 17.9096 45.7521C20.0885 41.9945 23.2709 38.8877 27.3684 36.5176C28.0641 36.115 28.3018 35.2248 27.8994 34.5289C27.4971 33.8332 26.6068 33.5959 25.9109 33.9978C17.9658 38.5939 13.1738 45.6846 11.8545 54.6904V54.6902C11.7145 54.6775 11.5742 54.6654 11.4346 54.651C11.46 53.6793 11.2842 52.6988 10.9014 51.7473C10.057 49.6484 8.32266 48.1336 6.48262 47.8881C5.03262 47.6939 3.65273 48.3096 2.69512 49.5748C1.30664 51.4096 1.53301 52.8615 1.96719 53.7564C2.7002 55.2668 4.58437 56.3352 7.71113 57.0068C7.6252 57.1355 7.53066 57.2648 7.42715 57.3947C5.57969 59.7117 3.40313 60.224 1.98984 60.2723C1.1625 60.3002 0.5 60.9645 0.5 61.7924V61.7994C0.5 62.616 1.14434 63.282 1.96016 63.3193C2.06465 63.3242 2.17383 63.3268 2.2875 63.3268C4.07578 63.3268 6.9459 62.6672 9.70332 59.2096C10.1387 58.6639 10.4934 58.0881 10.766 57.4932C11.0406 57.5242 11.3045 57.5508 11.5572 57.5742C11.5572 57.5736 11.5572 57.5732 11.5574 57.5727C11.5078 58.3613 11.4803 59.1615 11.4803 59.9758C11.4803 66.0359 12.925 71.4393 15.774 76.0363C18.401 80.2746 22.1621 83.7449 26.9566 86.3547L28.9352 96.6312C29.2533 98.3125 30.7262 99.5328 32.4373 99.5328H39.3098C41.0209 99.5328 42.4937 98.3125 42.8119 96.6312L43.8178 91.3172C45.9068 91.5385 48.0697 91.6506 50.2562 91.6506C53.2562 91.6506 56.2527 91.4416 59.173 91.0291L60.2334 96.6316C60.5518 98.3129 62.0246 99.533 63.7355 99.533H70.608C72.3191 99.533 73.792 98.3127 74.1104 96.6309L76.1684 85.7342C81.9824 82.6598 86.3648 78.6211 89.1965 73.7273C89.4006 73.3746 89.7148 73.1158 90.0813 72.9984L96.6805 70.8846C98.965 70.1523 100.5 68.049 100.5 65.65V58.858C100.5 56.4592 98.965 54.3559 96.6805 53.624ZM82.7809 36.3277C82.2207 41.118 80.7182 45.2156 79.2084 46.0707C77.4924 47.0428 73.5305 47.2305 70.5559 45.0545C67.5777 42.876 66.5865 38.9584 67.6891 33.7252C67.6891 33.725 67.6891 33.725 67.6891 33.725C67.7998 33.1994 68.1732 32.7447 68.6879 32.5092C75.9738 29.174 80.1744 28.0832 81.735 28.0832C81.9705 28.0832 82.1459 28.108 82.2627 28.1537C82.7314 28.6533 83.3463 31.4934 82.7809 36.3277ZM4.58613 52.4855C4.43555 52.175 4.79102 51.6291 5.01641 51.3311C5.37363 50.8592 5.70273 50.7627 5.95137 50.7627C6.00391 50.7627 6.05293 50.767 6.09785 50.773C6.76699 50.8623 7.70449 51.5986 8.20117 52.8332C8.31816 53.1238 8.47012 53.6053 8.50566 54.2057C6.49102 53.7883 4.92578 53.1865 4.58613 52.4855Z" fill="#005BF3"/>
<path d="M46.9674 19.7269V14.5191C48.7633 14.6474 49.4305 15.4683 50.0461 15.4683C50.8158 15.4683 51.175 14.4935 51.175 14.006C51.175 12.7488 48.7119 12.2101 46.9674 12.1587V11.4658C46.9674 11.158 46.5824 10.8757 46.1977 10.8757C45.7613 10.8757 45.4535 11.158 45.4535 11.4658V12.2097C43.0162 12.4664 40.5789 13.7492 40.5789 16.9818C40.5789 20.2658 43.1445 21.1894 45.4535 22.0103V28.0394C42.8365 27.8341 42.1439 26.0382 41.2973 26.0382C40.6559 26.0382 40.1172 26.8849 40.1172 27.5007C40.1172 28.7578 42.2723 30.4767 45.4535 30.5281V31.3234C45.4535 31.6312 45.7615 31.9134 46.1977 31.9134C46.5826 31.9134 46.9674 31.6312 46.9674 31.3234V30.4511C49.7383 30.0662 51.6367 28.3216 51.6367 25.166C51.6367 21.6769 49.1994 20.5478 46.9674 19.7269ZM45.6074 19.2396C44.2477 18.7265 43.1445 18.1878 43.1445 16.7255C43.1445 15.3914 44.1707 14.75 45.6074 14.5705V19.2396ZM46.8133 27.988V22.5748C48.0703 23.1134 49.0709 23.8318 49.0709 25.448C49.0709 26.9107 48.1986 27.7316 46.8133 27.988Z" fill="#005BF3"/>
</g>
<defs>
<clipPath id="clip0">
<rect width="100" height="100" fill="white" transform="translate(0.5 0.532227)"/>
</clipPath>
</defs>
</svg>
