<svg width="101" height="101" viewBox="0 0 101 101" fill="none" xmlns="http://www.w3.org/2000/svg">
<path d="M84.875 2.09473H63C60.4156 2.09473 58.3125 4.19785 58.3125 6.78223V9.90723C54.8656 9.90723 52.0625 12.7104 52.0625 16.1572C52.0625 19.6041 54.8656 22.4072 58.3125 22.4072V30.2197H70.8125V27.0947C70.8125 25.3713 72.2141 23.9697 73.9375 23.9697C75.6609 23.9697 77.0625 25.3713 77.0625 27.0947V30.2197H84.875C87.4594 30.2197 89.5625 28.1166 89.5625 25.5322V6.78223C89.5625 4.19785 87.4594 2.09473 84.875 2.09473ZM86.4375 25.5322C86.4375 26.3932 85.7375 27.0947 84.875 27.0947H80.1875C80.1875 23.6479 77.3844 20.8447 73.9375 20.8447C70.4906 20.8447 67.6875 23.6479 67.6875 27.0947H61.4375V19.2822H58.3125C56.5891 19.2822 55.1875 17.8807 55.1875 16.1572C55.1875 14.4338 56.5891 13.0322 58.3125 13.0322H61.4375V6.78223C61.4375 5.92129 62.1375 5.21973 63 5.21973H84.875C85.7375 5.21973 86.4375 5.92129 86.4375 6.78223V25.5322Z" fill="#005BF3"/>
<path d="M58.3125 33.3447C54.8656 33.3447 52.0625 36.1479 52.0625 39.5947H45.8125V31.7822H42.6875C40.9641 31.7822 39.5625 30.3807 39.5625 28.6572C39.5625 26.9338 40.9641 25.5322 42.6875 25.5322H45.8125V11.4697H41.6234C24.9797 11.4697 11.4375 25.0119 11.4375 41.6557C11.4375 50.7463 15.4734 59.2619 22.5094 65.0182L28.625 70.0229V74.2588C26.8109 74.9057 25.5 76.6244 25.5 78.6588C25.5 80.8197 26.9766 82.626 28.9687 83.165C28.7516 83.7041 28.625 84.29 28.625 84.9072C28.625 86.9729 29.9766 88.7104 31.8344 89.3338C32.4813 94.7525 37.0984 98.9697 42.6875 98.9697C48.2766 98.9697 52.8937 94.7525 53.5406 89.3338C55.3984 88.7104 56.75 86.9729 56.75 84.9072C56.75 84.29 56.6234 83.7041 56.4062 83.1635C58.3984 82.6228 59.875 80.8182 59.875 78.6572C59.875 76.6228 58.5641 74.9041 56.75 74.2572V70.0213L62.8656 65.0166C69.9016 59.2619 73.9375 50.7463 73.9375 41.6557V39.5947H64.5625C64.5625 36.1479 61.7594 33.3447 58.3125 33.3447ZM41.6234 14.5947H42.6875V22.4072C39.2406 22.4072 36.4375 25.2104 36.4375 28.6572C36.4375 32.1041 39.2406 34.9072 42.6875 34.9072V39.5947H36.4375C36.4375 36.1479 33.6344 33.3447 30.1875 33.3447C26.7406 33.3447 23.9375 36.1479 23.9375 39.5947H14.6406C15.6969 25.6322 27.3953 14.5947 41.6234 14.5947ZM24.4875 62.5994C18.4547 57.6635 14.8828 50.4666 14.5844 42.7197H27.0625V39.5947C27.0625 37.8713 28.4641 36.4697 30.1875 36.4697C31.9109 36.4697 33.3125 37.8713 33.3125 39.5947V42.7197H42.6875V48.9697C39.2406 48.9697 36.4375 51.7729 36.4375 55.2197C36.4375 58.6666 39.2406 61.4697 42.6875 61.4697V73.9697H31.75V68.5416L24.4875 62.5994ZM42.6875 95.8447C38.9156 95.8447 35.7594 93.1557 35.0328 89.5947H50.3422C49.6156 93.1557 46.4594 95.8447 42.6875 95.8447ZM52.0625 86.4697H33.3125C32.45 86.4697 31.75 85.7682 31.75 84.9072C31.75 84.0463 32.45 83.3447 33.3125 83.3447H52.0625C52.925 83.3447 53.625 84.0463 53.625 84.9072C53.625 85.7682 52.925 86.4697 52.0625 86.4697ZM55.1875 80.2197H52.0625H33.3125H30.1875C29.325 80.2197 28.625 79.5182 28.625 78.6572C28.625 77.7963 29.325 77.0947 30.1875 77.0947H55.1875C56.05 77.0947 56.75 77.7963 56.75 78.6572C56.75 79.5182 56.05 80.2197 55.1875 80.2197ZM60.8875 62.5994L53.625 68.5416V73.9697H45.8125V58.3447H42.6875C40.9641 58.3447 39.5625 56.9432 39.5625 55.2197C39.5625 53.4963 40.9641 52.0947 42.6875 52.0947H45.8125V42.7197H55.1875V39.5947C55.1875 37.8713 56.5891 36.4697 58.3125 36.4697C60.0359 36.4697 61.4375 37.8713 61.4375 39.5947V42.7197H70.7906C70.4922 50.4666 66.9203 57.6635 60.8875 62.5994Z" fill="#005BF3"/>
</svg>
