<svg width="101" height="101" viewBox="0 0 101 101" fill="none" xmlns="http://www.w3.org/2000/svg">
<g clip-path="url(#clip0)">
<path d="M4.64333 41.7879C2.59932 42.1195 1.01814 43.7582 0.759989 45.8129C0.416771 48.9249 0.413316 52.0651 0.749953 55.1779C0.984579 57.2644 2.57546 58.9416 4.64662 59.2862L9.94989 60.1544C10.968 64.491 12.6868 68.6327 15.0381 72.416L11.9166 76.776C10.6727 78.4625 10.7028 80.7706 11.9899 82.4243C12.9834 83.6397 14.0405 84.802 15.1566 85.906C16.18 86.9311 17.3115 87.961 18.6699 89.1026C20.3104 90.3642 22.5869 90.3906 24.2565 89.1676L28.638 86.0243C32.4175 88.3753 36.5551 90.0946 40.8879 91.1142L41.758 96.4258C42.0887 98.4705 43.7278 100.053 45.783 100.311C46.733 100.417 47.698 100.492 48.6696 100.532H48.8112C49.6798 100.532 50.5152 100.198 51.1445 99.5991C51.7989 98.9738 52.1681 98.1075 52.1661 97.2024V83.8459C52.1562 82.0612 50.7475 80.5981 48.9644 80.521C33.0123 79.6881 20.5051 66.5109 20.5051 50.537C20.5051 34.5632 33.0123 21.386 48.9644 20.5531C50.7503 20.4748 52.1598 19.0075 52.1661 17.2198V3.87001C52.1687 2.96392 51.7987 2.09682 51.1427 1.47175C50.4879 0.829247 49.5939 0.490142 48.6776 0.536705C47.7077 0.575042 46.746 0.644969 45.7593 0.745006C43.7053 1.00974 42.0742 2.60145 41.7593 4.64825L40.8911 9.95482C36.5582 10.9753 32.4207 12.695 28.6411 15.0465L24.2596 11.9098C22.5746 10.6776 20.2761 10.7143 18.6314 11.9998C17.423 12.989 16.2665 14.0397 15.1664 15.1482C14.0326 16.2565 12.9653 17.4308 11.9699 18.6648C10.6982 20.3075 10.6656 22.593 11.8899 24.2714L15.0315 28.6581C12.6821 32.4411 10.9657 36.5822 9.94989 40.918L4.64333 41.7879ZM12.965 42.7179C13.9339 38.0106 15.7928 33.5316 18.4417 29.5214C18.8212 28.9447 18.8059 28.1938 18.4033 27.633L14.6018 22.3248C14.2503 21.861 14.2401 21.2229 14.5768 20.7481C15.4903 19.6159 16.4704 18.5391 17.5117 17.5231C18.5233 16.5013 19.5857 15.531 20.695 14.6164C21.1724 14.2525 21.8342 14.2525 22.3117 14.6164L27.6117 18.4198C28.173 18.8214 28.924 18.8352 29.5 18.4548C33.5068 15.805 37.9832 13.9454 42.6883 12.9765C43.3647 12.8371 43.8851 12.2948 43.9966 11.6132L45.0449 5.19484C45.1202 4.61913 45.5624 4.16008 46.1349 4.06317C47.0165 3.97152 47.9099 3.90653 48.8333 3.86984L48.7966 17.2213C31.0527 18.1276 17.1336 32.7838 17.1435 50.5509C17.1532 68.3179 31.0884 82.9589 48.8333 83.8455L48.8099 97.2021C47.9149 97.1654 47.0284 97.0955 46.1534 96.9971C45.5781 96.913 45.1273 96.4596 45.0467 95.8837L43.9966 89.4621C43.8851 88.7804 43.3648 88.2383 42.6883 88.0988C37.9832 87.129 33.5068 85.2691 29.5 82.6188C28.9237 82.2387 28.1729 82.2533 27.6117 82.6555L22.3067 86.4621C21.8543 86.8139 21.2258 86.8309 20.755 86.5038C19.5301 85.4721 18.4683 84.5038 17.5117 83.5487C16.4898 82.539 15.5202 81.4777 14.6067 80.3688C14.2472 79.8887 14.2472 79.229 14.6067 78.7488L18.405 73.4455C18.8071 72.8844 18.8217 72.1335 18.4417 71.5571C15.7927 67.5478 13.9338 63.0691 12.965 58.3623C12.8258 57.6864 12.2843 57.1661 11.6033 57.0539L5.18662 56.0022C4.58936 55.9035 4.1308 55.4191 4.06499 54.8172C3.75287 51.9506 3.75616 49.0582 4.07503 46.1924C4.15795 45.6166 4.61075 45.1645 5.18662 45.0824L11.6015 44.0323C12.2851 43.9205 12.8279 43.3971 12.965 42.7179Z" fill="#005BF3"/>
<path d="M95.4991 45.536C93.3877 45.5447 91.5096 46.8788 90.8057 48.8693H52.1661V43.8693H78.8325C81.5939 43.8693 83.8324 41.6308 83.8324 38.8694V30.2296C86.1283 29.4179 87.5055 27.0702 87.0937 24.6701C86.6818 22.2701 84.6008 20.5156 82.1657 20.5156C79.7306 20.5156 77.6495 22.2701 77.2377 24.6701C76.8259 27.0702 78.203 29.4179 80.4989 30.2296V38.8694C80.4989 39.7898 79.7528 40.5362 78.8322 40.5362H52.1661V35.5361H70.4992C71.4196 35.5361 72.1658 34.79 72.1658 33.8694C72.1658 32.9488 71.4196 32.2027 70.4992 32.2027H52.1661V28.8694H62.166C64.9274 28.8694 67.1661 26.6309 67.1661 23.8693V13.5631C69.462 12.7514 70.8391 10.4037 70.4273 8.00361C70.0155 5.60355 67.9344 3.84912 65.4993 3.84912C63.0642 3.84912 60.9832 5.60355 60.5714 8.00361C60.1595 10.4037 61.5367 12.7514 63.8326 13.5631V23.8697C63.8326 24.7901 63.0864 25.5364 62.1659 25.5364H51.726C51.1526 24.4707 50.0083 23.8395 48.8011 23.9231C34.7563 24.8128 23.8203 36.4633 23.8203 50.5362C23.8203 64.6092 34.7563 76.2597 48.8011 77.1493H48.996C50.1346 77.1589 51.1852 76.5379 51.726 75.5361H62.1659C63.0863 75.5361 63.8326 76.2822 63.8326 77.2028V87.5094C61.5367 88.321 60.1595 90.6688 60.5714 93.0688C60.9832 95.4689 63.0642 97.2233 65.4993 97.2233C67.9344 97.2233 70.0155 95.4689 70.4273 93.0688C70.8391 90.6688 69.462 88.321 67.1661 87.5094V77.2028C67.1661 74.4414 64.9276 72.2028 62.166 72.2028H52.1661V68.8695H70.4992C71.4196 68.8695 72.1658 68.1233 72.1658 67.2029C72.1658 66.2825 71.4196 65.5362 70.4992 65.5362H52.1661V60.5363H78.8325C79.7529 60.5363 80.4993 61.2825 80.4993 62.2029V70.8427C78.2034 71.6544 76.8262 74.0021 77.238 76.4022C77.6499 78.8022 79.7309 80.5567 82.166 80.5567C84.6011 80.5567 86.6821 78.8022 87.094 76.4022C87.5058 74.0021 86.1287 71.6544 83.8327 70.8427V62.2029C83.8327 59.4415 81.5942 57.203 78.8329 57.203H52.1661V52.2026H90.8057C91.6573 54.5936 94.1676 55.9647 96.6398 55.3892C99.1117 54.8136 100.758 52.4748 100.467 49.9534C100.174 47.4324 98.037 45.5316 95.4991 45.536ZM82.1658 23.8697C83.0863 23.8697 83.8324 24.6158 83.8324 25.5364C83.8324 26.457 83.0863 27.2031 82.1658 27.2031C81.2454 27.2031 80.4993 26.457 80.4993 25.5364C80.4993 24.6158 81.2453 23.8697 82.1658 23.8697ZM65.4993 7.20315C66.4197 7.20315 67.1661 7.94932 67.1661 8.86988C67.1661 9.79045 66.4199 10.5365 65.4993 10.5365C64.5788 10.5365 63.8328 9.79029 63.8328 8.86988C63.8328 7.94948 64.5788 7.20315 65.4993 7.20315ZM65.4993 93.869C64.5789 93.869 63.8328 93.1228 63.8328 92.2022C63.8328 91.2817 64.5789 90.5355 65.4993 90.5355C66.4197 90.5355 67.1661 91.2817 67.1661 92.2022C67.1661 93.1228 66.4197 93.869 65.4993 93.869ZM82.1658 77.2025C81.2454 77.2025 80.4993 76.4563 80.4993 75.5357C80.4993 74.6152 81.2454 73.8692 82.1658 73.8692C83.0863 73.8692 83.8324 74.6153 83.8324 75.5357C83.8324 76.4561 83.0863 77.2025 82.1658 77.2025ZM27.1663 50.5361C27.1803 38.3018 36.6308 28.1507 48.8328 27.263V73.8093C36.6308 72.9214 27.1803 62.7702 27.1663 50.5361ZM95.4991 52.2026C94.5786 52.2026 93.8323 51.4565 93.8323 50.5359C93.8323 49.6153 94.5785 48.8693 95.4991 48.8693C96.4196 48.8693 97.1658 49.6155 97.1658 50.5359C97.1658 51.4563 96.4195 52.2026 95.4991 52.2026Z" fill="#005BF3"/>
</g>
<defs>
<clipPath id="clip0">
<rect width="100" height="100" fill="white" transform="translate(0.5 0.532227)"/>
</clipPath>
</defs>
</svg>
